<?xml version="1.0" encoding="UTF-8" standalone="no"?>
<!DOCTYPE svg  PUBLIC '-//W3C//DTD SVG 1.1//EN'  'http://www.w3.org/Graphics/SVG/1.1/DTD/svg11.dtd'>
<svg xmlns="http://www.w3.org/2000/svg">
<defs>
<font id="PFRegalTextPro-RegularBItalic" horiz-adv-x="486">
<font-face slope="-12" underline-position="-91" font-weight="400" descent="-200" panose-1="2 0 5 3 0 0 0 9 0 3" units-per-em="1000" unicode-range="U+0020-2122" bbox="-162 -261 1034 889" x-height="449" underline-thickness="35" font-family="PFRegalTextPro" ascent="800" font-style="italic" cap-height="673"/>
<missing-glyph horiz-adv-x="1000"/>
<glyph glyph-name=".notdef" horiz-adv-x="1000"/>
<glyph glyph-name=".null" horiz-adv-x="0"/>
<glyph glyph-name="nonmarkingreturn" horiz-adv-x="333"/>
<glyph glyph-name="space" horiz-adv-x="214" unicode=" "/>
<glyph glyph-name="exclam" horiz-adv-x="252" unicode="!" d="M130 185h-23l43 450q2 25 15.5 46t41.5 21q40 0 40 -44q0 -16 -4 -25zM103 97q17 0 28 -12t11 -30q0 -25 -18 -44t-40 -19q-17 0 -27.5 12t-10.5 31q0 24 18 43t39 19z"/>
<glyph glyph-name="quotedbl" horiz-adv-x="278" unicode='&quot;' d="M279 709q30 0 30 -30q0 -7 -2 -17l-61 -212h-26l14 213q1 16 13 31t32 15zM168 709q31 0 31 -31q0 -8 -3 -17l-60 -211h-27l15 213q0 17 11 31.5t33 14.5z"/>
<glyph glyph-name="numbersign" d="M217 405l-50 -145h136l51 145h-137zM497 405h-99l-49 -145h91l-7 -40h-97l-62 -190h-47l66 190h-138l-65 -190h-45l65 190h-98l7 40h102l51 145h-99l8 38h104l60 180h43l-58 -180h138l58 180h45l-60 -180h94q-1 -1 -4.5 -19t-3.5 -19z" unicode="#"/>
<glyph glyph-name="dollar" d="M171 511q0 -41 50 -79q1 7 18 99.5t18 96.5q-86 -27 -86 -117zM366 178q0 61 -73 111l-46 -257q51 16 85 53t34 93zM201 -79q28 139 144 813h27l-13 -71q50 -9 81 -34t31 -61q0 -23 -12 -39.5t-32 -16.5q-23 0 -35 15t-12 37q0 30 20 55q-21 9 -46 13q-1 -4 -22.5 -125 t-22.5 -125q61 -35 95 -74.5t34 -101.5q0 -85 -57.5 -137.5t-138.5 -68.5l-14 -79h-27zM302 734l-144 -813h-27l13 75q-57 5 -93 32.5t-36 66.5q0 32 13.5 47.5t32.5 15.5q22 0 33.5 -15.5t11.5 -38.5q0 -37 -21 -58q23 -16 65 -21l56 316q-52 32 -80.5 67.5t-28.5 86.5 q0 68 47.5 114.5t118.5 55.5l13 69h26z" unicode="$"/>
<glyph glyph-name="percent" horiz-adv-x="762" unicode="%" d="M583 356q-48 0 -78.5 -79.5t-30.5 -171.5q0 -83 51 -83q49 0 80 81.5t31 170.5q0 82 -53 82zM589 383q58 0 84.5 -36t26.5 -95q0 -56 -17.5 -112.5t-60.5 -100.5t-101 -44q-111 0 -111 131q0 58 17.5 114.5t60 99.5t101.5 43zM261 656q-48 0 -79 -80t-31 -171 q0 -83 52 -83q49 0 79.5 81.5t30.5 170.5q0 82 -52 82zM267 683q110 0 110 -131q0 -41 -10.5 -84t-31 -82.5t-56.5 -65t-80 -25.5q-58 0 -85 36t-27 95q0 58 18 114.5t60.5 99.5t101.5 43zM647 720l-482 -759h-32l482 759h32z"/>
<glyph glyph-name="ampersand" horiz-adv-x="656" unicode="&amp;" d="M246 527q0 -46 28 -90q90 78 90 162q0 52 -41 52q-36 0 -56.5 -40t-20.5 -84zM257 27q100 0 193 64q-21 49 -61 96.5t-92 98t-74 77.5q-104 -86 -104 -202q0 -61 33.5 -97.5t104.5 -36.5zM217 -21q-93 0 -140 38t-47 108q0 44 13.5 81.5t43 70.5t54 54.5t66.5 52.5 q-41 56 -41 111q0 75 53.5 134t131.5 59q40 0 63.5 -22.5t23.5 -59.5q0 -52 -39.5 -95.5t-109.5 -95.5q20 -26 55.5 -61.5t65.5 -63t61 -67t47 -76.5q70 77 70 145q0 45 -23 74t-71 29v22q35 21 68 21q43 0 64.5 -24.5t21.5 -65.5q0 -52 -32.5 -112.5t-87.5 -114.5 q11 -35 11 -71q0 -59 -24.5 -110.5t-60.5 -83.5q-3 2 -7.5 6t-5.5 4q31 49 31 119q0 40 -13 81q-119 -87 -242 -87z"/>
<glyph glyph-name="quotesingle" horiz-adv-x="185" unicode="&apos;" d="M176 709q14 0 22.5 -7.5t8.5 -18.5q0 -7 -9 -47l-54 -186h-27l15 214q1 17 12 31t32 14z"/>
<glyph glyph-name="parenleft" horiz-adv-x="306" unicode="(" d="M352 737l11 -14q-111 -112 -174 -275.5t-63 -325.5q0 -181 77 -305l-15 -15q-133 127 -133 340q0 160 78 322t219 273z"/>
<glyph glyph-name="parenright" horiz-adv-x="306" unicode=")" d="M265 376q0 -163 -78 -318.5t-217 -255.5l-10 15q112 113 175 276t63 324q0 185 -80 306l16 14q131 -138 131 -361z"/>
<glyph glyph-name="asterisk" horiz-adv-x="385" unicode="*" d="M262 529l18 12q63 -53 66 -63q3 -4 3 -10q0 -17 -16.5 -30t-33.5 -13q-19 0 -22 25zM284 550l-2 20q87 52 99 52t18.5 -9t6.5 -22q0 -22 -11 -32t-37 -10q-3 0 -27 0.5t-47 0.5zM240 541l12 -12q-43 -82 -52 -96q-7 -8 -22 -8t-26.5 10.5t-11.5 24.5q0 20 44 47zM246 570 l-10 -20q-24 0 -48 -0.5t-26 -0.5q-21 0 -28.5 4.5t-7.5 16.5q0 22 11 38.5t26 16.5q10 0 29 -14zM273 577h-19q-3 30 -5.5 53.5t-3.5 31t-1 10.5q0 16 13 24.5t31 8.5q11 0 20.5 -5.5t9.5 -15.5q0 -3 -2 -9z"/>
<glyph glyph-name="plus" d="M443 270h-164l-32 -183h-46l32 183h-167q0 2 3.5 24t4.5 23h167l32 181h46l-32 -181h165z" unicode="+"/>
<glyph glyph-name="comma" horiz-adv-x="203" unicode="," d="M81 102q21 0 33 -13t12 -35q0 -44 -42.5 -101.5t-102.5 -90.5l-12 18q67 60 81 117q-29 8 -29 41q0 25 18.5 44.5t41.5 19.5z"/>
<glyph glyph-name="hyphen" horiz-adv-x="294" unicode="-" d="M253 208h-220l10 56h221z"/>
<glyph glyph-name="period" horiz-adv-x="193" unicode="." d="M74 103q18 0 30 -12.5t12 -31.5q0 -27 -19 -46.5t-43 -19.5q-19 0 -30.5 12.5t-11.5 31.5q0 27 19 46.5t43 19.5z"/>
<glyph glyph-name="slash" horiz-adv-x="296" unicode="/" d="M382 722l-384 -766h-44l382 766h46z"/>
<glyph glyph-name="zero" d="M317 637q-55 0 -101 -74.5t-70 -179.5t-24 -206q0 -157 87 -157q57 0 103 78.5t68 184t22 205.5q0 149 -85 149zM323 668q154 0 154 -217q0 -71 -16 -147.5t-46.5 -149t-85.5 -119t-125 -46.5q-83 0 -121 58.5t-38 157.5q0 71 17 148.5t49.5 149.5t88 118.5t123.5 46.5z " unicode="0"/>
<glyph glyph-name="one" d="M185 94l78 449q1 5 1 12q0 18 -12.5 26t-27 7.5t-27 2.5t-12.5 11v17l173 51l4 -4l-101 -573q-2 -12 -2 -16q0 -23 14.5 -33t29 -14t14.5 -13t-2 -17h-209l2 15q1 11 11.5 15.5t23 6.5t25 16t17.5 41z" unicode="1"/>
<glyph glyph-name="two" d="M295 668q77 0 114.5 -40t37.5 -104q0 -54 -33 -116.5t-90.5 -123.5t-118 -113t-130.5 -103v-4l324 26l5 -10l-30 -80h-397l-3 21q91 72 148.5 123t119 118t91.5 133t30 132q0 51 -27.5 78.5t-72.5 27.5q-60 0 -99 -39q25 -22 25 -55q0 -19 -12.5 -34t-36.5 -15 q-17 0 -29 12.5t-12 32.5q0 48 57 90.5t139 42.5z" unicode="2"/>
<glyph glyph-name="three" d="M295 668q80 0 114 -36t34 -84q0 -59 -46.5 -111.5t-125.5 -71.5l-1 -4q64 -7 102 -45t38 -99q0 -98 -71 -163t-168 -65q-72 0 -117.5 32t-45.5 84q0 36 21.5 66.5t59.5 47.5l12 -13q-23 -43 -23 -86q0 -44 24 -72t70 -28q73 0 113.5 58.5t40.5 137.5q0 59 -31 89.5 t-85 30.5q-24 0 -61 -8l-1 14l-2 14q107 28 162 70t55 124q0 41 -26 62.5t-66 21.5q-57 0 -99 -39q24 -21 24 -54q0 -20 -13 -35t-36 -15q-17 0 -29 12.5t-12 32.5q0 47 56.5 89.5t132.5 42.5z" unicode="3"/>
<glyph glyph-name="four" d="M391 417l4 -2l-37 -209h92l-3 -14q-3 -14 -3 -15h-91l-15 -84q-2 -14 -2 -17q0 -19 10 -28.5t21.5 -11.5t20.5 -7t7 -16l-2 -13h-209l2 12q2 12 12.5 17t22.5 6.5t24.5 15t16.5 39.5l15 87h-263l4 27q251 334 336 457h89l4 -10q-96 -117 -218 -251.5t-181 -193.5h235 l31 179z" unicode="4"/>
<glyph glyph-name="five" d="M492 671l4 -9l-30 -80h-258l-60 -207q66 27 118 27q72 0 115.5 -42.5t43.5 -120.5q0 -111 -74 -180.5t-171 -69.5q-72 0 -117 32t-45 84q0 36 21 66.5t60 47.5l12 -13q-23 -44 -23 -86q0 -43 24 -71.5t70 -28.5q51 0 88 37.5t52.5 86.5t15.5 97q0 61 -29 91.5t-80 30.5 q-49 0 -96 -23l-21 9l87 299z" unicode="5"/>
<glyph glyph-name="six" d="M309 406q57 0 93 -44t36 -117q0 -104 -71 -180t-169 -76q-78 0 -117 47t-39 125q0 114 62.5 219.5t153 176.5t195.5 112l7 -22q-158 -82 -249.5 -212.5t-91.5 -291.5q0 -126 91 -126q68 0 109 72t41 158q0 53 -24 86.5t-76 33.5q-18 0 -40 -5l-3 22q48 22 92 22z" unicode="6"/>
<glyph glyph-name="seven" d="M54 -1q19 31 200 304.5t192 285.5l-325 -22l-6 9l31 84h348l9 -16q-11 -17 -184 -323.5t-181 -323.5l-80 -8z" unicode="7"/>
<glyph glyph-name="eight" d="M319 668q69 0 109.5 -33.5t40.5 -92.5q0 -58 -39 -108.5t-97 -73.5q101 -64 101 -158q0 -87 -66.5 -150t-167.5 -63q-76 0 -120.5 38t-44.5 103q0 60 40.5 122t113.5 99q-79 53 -79 130q0 82 60.5 134.5t148.5 52.5zM209 19q63 1 104 50.5t41 106.5q0 50 -35.5 85.5 t-106.5 75.5q-60 -49 -84 -105t-24 -100q0 -53 28 -83t77 -30zM310 637q-52 0 -87.5 -42.5t-35.5 -85.5t36 -78t83 -56q92 62 92 169q0 42 -21.5 67.5t-66.5 25.5z" unicode="8"/>
<glyph glyph-name="nine" d="M319 668q78 0 117 -45.5t39 -122.5q0 -87 -35.5 -170t-95.5 -147.5t-131.5 -114t-149.5 -79.5l-9 22q157 80 251 211.5t94 289.5q0 127 -92 127q-68 0 -109 -72.5t-41 -156.5q0 -115 108 -115q15 0 33 3q1 -7 1 -21q-47 -23 -92 -23q-55 0 -91 43t-36 112q0 109 70.5 184 t168.5 75z" unicode="9"/>
<glyph glyph-name="colon" horiz-adv-x="193" unicode=":" d="M125 397q19 0 31 -12.5t12 -32.5q0 -26 -19 -45.5t-43 -19.5q-19 0 -30 12.5t-11 31.5q0 26 18.5 46t41.5 20zM74 103q18 0 30 -12.5t12 -31.5q0 -27 -19 -46.5t-43 -19.5q-19 0 -30.5 12.5t-11.5 31.5q0 27 19 46.5t43 19.5z"/>
<glyph glyph-name="semicolon" horiz-adv-x="204" unicode=";" d="M82 102q20 0 32 -13t12 -35q0 -44 -42.5 -101.5t-102.5 -90.5l-12 19q68 63 81 116q-29 8 -29 41q0 26 18 45t43 19zM138 397q19 0 30.5 -12.5t11.5 -32.5q0 -26 -19 -45.5t-43 -19.5q-18 0 -29.5 12.5t-11.5 31.5q0 26 18.5 46t42.5 20z"/>
<glyph glyph-name="less" d="M412 72l-357 197l6 33q59 24 426 197l-9 -52l-355 -160l298 -159z" unicode="&lt;"/>
<glyph glyph-name="equal" d="M455 338h-375l8 48h375zM430 199h-375l9 47h375z" unicode="="/>
<glyph glyph-name="greater" d="M446 269l-425 -197l9 56l355 159l-298 160l9 52l356 -197z" unicode="&gt;"/>
<glyph glyph-name="question" horiz-adv-x="466" unicode="?" d="M189 97q18 0 28.5 -12t10.5 -30q0 -25 -17.5 -44t-40.5 -19q-16 0 -26.5 12t-10.5 29q0 25 17.5 44.5t38.5 19.5zM472 593q0 -39 -27.5 -77t-67 -67.5t-79 -58t-67 -60t-27.5 -62.5q0 -39 33 -80q-18 -18 -18 -21q-41 19 -67 50t-26 67q0 31 26.5 64t64.5 62t75.5 58 t64 61t26.5 62q0 35 -24.5 51.5t-62.5 16.5q-31 0 -64 -10q5 -14 5 -33q0 -31 -17.5 -54t-48.5 -23q-17 0 -29 11.5t-12 30.5q0 57 54 86.5t133 29.5q66 0 110.5 -24.5t44.5 -79.5z"/>
<glyph glyph-name="at" horiz-adv-x="904" unicode="@" d="M391 141q43 0 95.5 77t72.5 179l8 42q-42 37 -83 37q-64 0 -106.5 -71.5t-42.5 -172.5q0 -91 56 -91zM472 508q64 0 111 -44q1 1 25 21t26 21h18q-33 -137 -75 -376q74 1 129 46t79.5 105.5t24.5 123.5q0 106 -68.5 178t-202.5 72q-119 0 -217 -66.5t-151 -175 t-53 -232.5q0 -133 71.5 -209.5t196.5 -76.5q58 0 127 18l3 -28q-66 -26 -150 -26q-137 0 -219.5 91t-82.5 236q0 135 65 251t176 184t239 68q136 0 223.5 -73t87.5 -204q0 -129 -81 -224t-201 -95q-62 0 -62 44q0 26 21 108h-4q-67 -146 -161 -146q-105 0 -105 136 q0 102 57 187.5t153 85.5z"/>
<glyph glyph-name="A" horiz-adv-x="632" unicode="A" d="M355 569h-4q-20 -37 -79 -150t-92 -175h230l-27 135q-20 104 -28 190zM164 214q-64 -116 -64 -143q0 -15 9.5 -24t21.5 -11.5t21.5 -7.5t9.5 -12q0 -8 -2 -16h-199l2 13q2 11 13.5 16.5t26.5 9.5t36.5 23.5t39.5 52.5q133 254 299 563q11 1 32 1l110 -568q6 -34 19.5 -53 t25.5 -23t21 -9t9 -14q0 -3 -0.5 -7t-0.5 -5h-221l1 8q2 13 12.5 19.5t22.5 8t21.5 12.5t9.5 33q0 5 -2 21l-21 112h-253z"/>
<glyph glyph-name="B" horiz-adv-x="593" unicode="B" d="M210 353l-40 -228q-5 -27 -5 -43q0 -25 15.5 -37.5t54.5 -12.5h19q51 0 96.5 18t79 62.5t33.5 109.5q0 39 -16.5 67t-43 41t-50.5 18t-48 5h-95zM289 0h-297l2 15q1 10 13 15t26.5 7t29 17.5t19.5 44.5l75 420q11 63 11 72q0 19 -10.5 29.5t-23.5 13t-23.5 7.5t-10.5 14 q0 2 4 19h268q97 0 149 -40.5t52 -97.5q0 -73 -60 -116.5t-128 -46.5v-4q81 -4 125 -51t44 -111q0 -33 -17 -68.5t-48.5 -67t-84 -51.5t-115.5 -20zM261 641l-46 -257h85q24 0 50.5 5.5t59.5 20.5t54 48t21 81q0 53 -42.5 77.5t-98.5 24.5h-83z"/>
<glyph glyph-name="C" horiz-adv-x="624" unicode="C" d="M427 683q94 0 168 -54l32 54h17l-38 -217h-5q-13 0 -18 19t-9.5 46t-15 54t-43 46t-85.5 19q-128 0 -203.5 -120t-75.5 -287q0 -102 42 -162t126 -60q52 0 92 16t61.5 40.5t38.5 52.5t25.5 52.5t19 40.5t23.5 16h9l-43 -245h-18l-17 58q-91 -62 -201 -62 q-119 0 -187 76.5t-68 196.5q0 177 107 298.5t266 121.5z"/>
<glyph glyph-name="D" horiz-adv-x="662" unicode="D" d="M258 641l-97 -545q-1 -5 -1 -14q0 -50 61 -50h29q35 0 73.5 11.5t81 40t75.5 70.5t54.5 111t21.5 153q0 108 -63.5 165.5t-181.5 57.5h-53zM240 0h-250l2 15q2 11 14 16t26 7t28.5 17t19.5 44l85 478q1 5 1 14q0 26 -17 36t-34.5 13.5t-17.5 14.5q0 3 2 19h228 q151 0 235.5 -67.5t84.5 -206.5q0 -40 -10 -86.5t-38.5 -104t-72 -102.5t-118 -76t-168.5 -31z"/>
<glyph glyph-name="E" horiz-adv-x="590" unicode="E" d="M228 32h85q72 0 119.5 40.5t103.5 138.5q10 21 25 21h4l12 -3l-87 -226q-1 -1 -2 -2.5t-2.5 -2.5t-2.5 -2q-176 4 -193 4h-295l2 15q2 11 14 16t26 7t28.5 17t19.5 44l84 478q1 5 1 14q0 20 -10.5 30.5t-23 12.5t-23 7t-10.5 14t2 19h208q96 0 267 8l4 -5l-13 -177 q-4 -1 -10 -1q-17 0 -21 17q-21 87 -42 106t-92 19h-143l-48 -271h100q35 0 57 17.5t28.5 38t15 38t19.5 17.5h10l-46 -266h-8q-12 0 -16 19t-4 42t-14.5 42t-46.5 19h-101l-42 -242q-2 -14 -2 -19q0 -44 63 -44z"/>
<glyph glyph-name="F" horiz-adv-x="544" unicode="F" d="M85 90l85 475q3 15 3 26q0 25 -16.5 35t-33.5 14t-17 15q0 9 2 19h208q106 0 277 8l4 -5l-13 -177q-4 -1 -10 -1q-17 0 -21 17q-21 87 -42 106t-92 19h-153l-50 -284h122q35 0 57 17.5t28.5 38t15 38t19.5 17.5h10l-46 -266h-8q-12 0 -16 19t-4 42t-14.5 42t-46.5 19 h-123l-42 -236q-1 -4 -1 -12q0 -18 12.5 -27.5t27 -11t25.5 -7.5t9 -18l-2 -12h-247l2 12q2 12 15 18.5t28 8.5t29.5 14.5t18.5 36.5z"/>
<glyph glyph-name="G" horiz-adv-x="685" unicode="G" d="M548 24l-33 28q-102 -62 -207 -62q-121 0 -187 74t-66 197q0 115 47.5 211.5t134 153.5t192.5 57q102 0 176 -54l36 54h17l-38 -218h-7q-10 0 -14.5 8t-9.5 32q-15 74 -48 110t-111 36q-86 0 -150.5 -57.5t-96.5 -150t-32 -204.5q0 -100 40 -159t126 -59q102 0 183 89 l21 114q1 3 1 9q0 16 -13 26t-28.5 13t-27 9t-9.5 17l3 14h235l-2 -15q-2 -10 -14 -15t-25.5 -7.5t-27 -16t-17.5 -37.5l-33 -191z"/>
<glyph glyph-name="H" horiz-adv-x="701" unicode="H" d="M655 584l-87 -496q-1 -4 -1 -12q0 -18 12.5 -27.5t27 -11t25.5 -7.5t9 -18l-2 -12h-247l2 12q2 12 15 18.5t28 8.5t29.5 14.5t18.5 36.5l44 248h-320l-44 -250q-1 -4 -1 -12q0 -18 12.5 -27.5t27 -11t25.5 -7.5t9 -18l-2 -12h-247l2 12q2 12 15 18.5t28 8.5t29.5 14.5 t18.5 36.5l87 492q1 5 1 14q0 18 -11 27.5t-24.5 11.5t-23 8t-7.5 18l2 12h248l-2 -12q-2 -12 -16.5 -18t-31 -8t-32.5 -14.5t-20 -36.5l-38 -214h320l38 212q1 5 1 14q0 18 -11 27.5t-24.5 11.5t-23 8t-7.5 18l2 12h248l-2 -12q-2 -12 -16.5 -18t-31 -8t-32.5 -14.5 t-20 -36.5z"/>
<glyph glyph-name="I" horiz-adv-x="334" unicode="I" d="M268 584l-87 -496q-1 -4 -1 -12q0 -18 12.5 -27.5t27 -11t25.5 -7.5t9 -18l-2 -12h-247l2 12q2 12 15 18.5t28 8.5t29.5 14.5t18.5 36.5l87 492q1 5 1 14q0 18 -11 27.5t-24.5 11.5t-23 8t-7.5 18l2 12h248l-2 -12q-2 -12 -16.5 -18t-31 -8t-32.5 -14.5t-20 -36.5z"/>
<glyph glyph-name="J" horiz-adv-x="325" unicode="J" d="M270 585q-84 -477 -90 -506q-18 -87 -72 -156q-102 -131 -187 -131q-33 0 -50.5 17t-17.5 38q0 23 14.5 39t41.5 16q26 0 46 -19t23 -48q55 39 80.5 99t48.5 192l72 406q9 47 9 64q0 23 -17.5 33t-35 15t-17.5 16q0 1 2 14h251l-2 -12q-2 -12 -16.5 -18t-31 -8t-32 -14.5 t-19.5 -36.5z"/>
<glyph glyph-name="K" horiz-adv-x="635" unicode="K" d="M289 335h-81l-44 -247q-1 -4 -1 -12q0 -18 12 -27t26 -11t25 -8t9 -18l-2 -12h-241l2 12q2 14 14.5 20.5t27 8t28 13.5t17.5 36l87 492q1 5 1 14q0 18 -11 27.5t-24.5 11.5t-23 8t-7.5 18l2 12h242l-2 -12q-2 -13 -16 -19.5t-29.5 -8t-30 -13.5t-18.5 -36l-37 -214h107 l194 208q18 18 18 35q0 11 -9 16.5t-19.5 7.5t-18.5 7.5t-6 16.5l2 13h222l-1 -9q-3 -15 -17 -22t-33.5 -10.5t-53.5 -23.5t-69 -57l-167 -177l135 -267q16 -32 37.5 -49.5t37 -20.5t26 -8.5t9.5 -17.5l-1 -12h-245l1 12q0 16 28 24.5t28 25.5q0 14 -9 32z"/>
<glyph glyph-name="L" horiz-adv-x="587" unicode="L" d="M230 32h98q74 0 118.5 41t98.5 149q9 18 22 18h4l10 -2q-29 -79 -89 -235l-7 -7q-118 4 -246 4h-244l2 15q2 11 14.5 16t27 7t29 17t19.5 44l84 477q2 10 2 17q0 17 -11 27t-23.5 13t-23.5 8.5t-11 14.5q0 6 3 17h248l-2 -13q-2 -12 -16 -18t-30 -8t-31.5 -14.5 t-19.5 -36.5l-86 -486q-2 -16 -2 -22q0 -22 13.5 -32.5t48.5 -10.5z"/>
<glyph glyph-name="M" horiz-adv-x="843" unicode="M" d="M707 674h177l-2 -18q-1 -10 -16.5 -16.5t-33.5 -11t-34.5 -21t-19.5 -45.5l-57 -470q0 -2 -0.5 -6t-0.5 -5q0 -21 12 -32t25.5 -13t24.5 -7.5t9 -16.5l-2 -12h-239l2 12q1 6 3.5 10t7.5 6.5t8.5 4t12 3.5t11.5 3q24 8 33.5 20t12.5 32l61 501h-5q-53 -100 -153.5 -300 t-153.5 -300h-32l-97 475q-23 111 -25 134h-4l-112 -507q-2 -12 -2 -15q0 -18 13 -28t28 -12t26.5 -8t9.5 -18l-2 -13h-203l2 13q2 15 22.5 20.5t43 17.5t28.5 40l104 460q4 15 4 29q0 22 -11.5 35t-24.5 16.5t-23.5 9.5t-8.5 16l3 17h179l89 -451q12 -66 15 -114h6 q52 98 147 287t142 278z"/>
<glyph glyph-name="N" horiz-adv-x="700" unicode="N" d="M275 674l231 -454q21 -43 33 -82q1 1 4 1l77 437q1 4 1 12q0 19 -13.5 30t-30 13.5t-28.5 9t-10 18.5l2 14h215l-2 -13q-2 -13 -11 -19t-28.5 -11.5t-26.5 -8.5t-13.5 -8.5t-11 -14t-7.5 -15t-5.5 -19.5t-4 -18.5t-3.5 -20.5t-3 -18l-91 -514q-5 -1 -14 -4t-14 -4 l-272 527q-27 49 -36 80h-4l-75 -424q-1 -8 -4 -24t-5 -28.5t-3 -22.5q0 -1 -0.5 -5t-0.5 -5q0 -20 13.5 -30.5t29.5 -13t28 -9t10 -17.5l-2 -13h-212l2 13q1 5 3.5 9.5t8.5 7.5t10 4.5t13.5 4t12.5 3.5q30 9 41.5 33t22.5 90l69 394q2 16 2 21q0 23 -11.5 35.5t-25 15 t-24 8.5t-8.5 18l3 17h168z"/>
<glyph glyph-name="O" horiz-adv-x="692" unicode="O" d="M420 650q-68 0 -123 -42t-87 -107.5t-48.5 -135.5t-16.5 -134q0 -95 39.5 -153t128.5 -58q68 0 122.5 41t86 105t48 134t16.5 136q0 96 -39 155t-127 59zM426 682q120 0 186 -75t66 -194q0 -169 -110.5 -296.5t-264.5 -127.5q-121 0 -184.5 72t-63.5 191q0 112 49 211 t135 159t187 60z"/>
<glyph glyph-name="P" horiz-adv-x="543" unicode="P" d="M106 673h242q103 0 164 -45.5t61 -123.5q0 -59 -27 -104t-70.5 -70t-90.5 -37.5t-95 -12.5q-42 0 -87 8l-36 -201q-1 -5 -1 -13q0 -23 19 -31t38 -12t19 -16q0 -2 -2 -15h-250l2 12q2 12 15 17.5t28 7t29.5 14.5t19.5 39l86 487q1 5 1 14q0 25 -16.5 35t-33.5 14t-17 14 q0 5 2 19zM266 642l-57 -325q32 -8 73 -8q81 0 140.5 53.5t59.5 144.5q0 71 -47 103t-113 32h-56z"/>
<glyph glyph-name="Q" horiz-adv-x="692" unicode="Q" d="M425 683q119 0 185.5 -74.5t66.5 -193.5q0 -155 -95.5 -281t-241.5 -143v-4q55 -4 89 -21t84 -61q23 -20 53 -20q23 0 38 4l6 -23q-59 -33 -117 -33q-26 0 -48 17q-38 29 -82 66.5t-66 53.5t-43 24q-98 14 -149 83.5t-51 175.5q0 112 48.5 210.5t134.5 159t188 60.5z M419 651q-69 0 -124 -42.5t-86 -108t-47.5 -135.5t-16.5 -135q0 -210 167 -210q55 0 101.5 27.5t77.5 71t53 99.5t32 111.5t10 107.5q0 95 -39.5 154.5t-127.5 59.5z"/>
<glyph glyph-name="R" horiz-adv-x="573" unicode="R" d="M107 673h243q102 0 156.5 -39.5t54.5 -113.5q0 -87 -71.5 -147.5t-201.5 -60.5h-22q25 -38 80 -38l79 -163q17 -36 39 -55.5t38 -22t27.5 -5.5t11.5 -12q0 -2 -2 -16h-146q-27 52 -80.5 156t-80.5 156h-28l-31 -174q-10 -52 -10 -63q0 -18 12 -27t26 -10.5t26 -7 t12 -15.5q0 -2 -2 -15h-247l2 12q2 12 15 18.5t28 8.5t29 14.5t18 36.5l78 442q10 55 10 65q0 17 -10 26.5t-22.5 11.5t-22.5 7.5t-10 14.5q0 2 2 16zM262 642l-53 -299h71q87 0 141 45.5t54 132.5q0 63 -41 92t-103 29h-69z"/>
<glyph glyph-name="S" horiz-adv-x="504" unicode="S" d="M194 -10q-80 0 -134.5 30.5t-54.5 78.5q0 31 15 45.5t36 14.5q24 0 38 -16.5t14 -42.5q0 -35 -18 -57q39 -23 108 -23q74 0 132 39.5t58 113.5q0 43 -30 76.5t-73 57t-86.5 47.5t-73.5 58.5t-30 78.5q0 94 67.5 143t162.5 49q74 0 124.5 -29.5t50.5 -77.5 q0 -25 -12.5 -42t-36.5 -17q-26 0 -40 17.5t-14 43.5q0 32 18 54q-41 18 -87 18q-36 0 -68 -11t-57 -40t-25 -72q0 -35 30.5 -64.5t73.5 -52t86 -48t73.5 -65t30.5 -88.5q0 -57 -25 -100.5t-66.5 -68.5t-89 -37.5t-97.5 -12.5z"/>
<glyph glyph-name="T" horiz-adv-x="588" unicode="T" d="M102 676q4 3 12 7q76 -9 254 -9q176 0 260 9q6 -4 9 -7l-14 -188h-8q-15 0 -19 16q-20 93 -40 115.5t-91 22.5h-59l-97 -548q-2 -8 -2 -18q0 -18 12 -27.5t26 -11.5t25 -7.5t9 -17.5l-2 -12h-245l2 12q2 13 14.5 19t27.5 7.5t29 14t19 37.5l98 552h-59q-73 0 -101 -22.5 t-78 -115.5q-9 -18 -22 -18q-2 0 -13 2q41 143 53 188z"/>
<glyph glyph-name="U" horiz-adv-x="695" unicode="U" d="M655 579l-54 -302q-25 -141 -99 -214.5t-188 -73.5q-215 0 -215 184q0 24 7 68l60 341q1 5 1 14q0 18 -11 27.5t-24 11.5t-22.5 8t-7.5 18l2 12h247l-2 -12q-2 -13 -16.5 -19t-30.5 -8t-32 -14.5t-20 -36.5l-58 -324q-8 -45 -8 -79q0 -154 156 -154q87 0 147.5 64.5 t82.5 188.5l53 299q1 5 1 13q0 19 -13 30t-28 13t-26.5 8.5t-9.5 18.5l2 12h207l-2 -12q-2 -13 -16.5 -19t-31 -8t-32 -15.5t-19.5 -39.5z"/>
<glyph glyph-name="V" horiz-adv-x="609" unicode="V" d="M308 104h4l233 451q15 28 15 46q0 15 -9 23.5t-20 11t-20 7.5t-9 14q0 3 2 17h194l-2 -13q-2 -11 -13 -16.5t-25.5 -9t-36 -23.5t-39.5 -54l-299 -564q-5 0 -15 -0.5t-14 -0.5l-110 572q-6 30 -19 47.5t-26 21t-22.5 9t-9.5 16.5q0 1 2 15h226q0 -18 -10.5 -26.5 t-22.5 -10t-22.5 -11t-10.5 -29.5q0 -10 1 -16l52 -285q17 -87 26 -192z"/>
<glyph glyph-name="W" horiz-adv-x="880" unicode="W" d="M494 519h-5l-245 -527q-11 -1 -31 -1l-68 566q-4 34 -17.5 53t-27 22.5t-24 9.5t-10.5 18q0 1 0.5 6t0.5 8h229l-2 -12q-2 -12 -13 -17.5t-22.5 -7t-21 -10.5t-9.5 -27q0 -2 0.5 -5t0.5 -4l30 -260q13 -120 14 -203h4l245 528h32l52 -343q13 -94 23 -177h4l188 432 q8 19 8 35q0 15 -9 23.5t-19.5 11t-19.5 7t-9 12.5q0 2 2 17h194l-2 -14q-2 -11 -14 -16t-27.5 -8.5t-36.5 -22.5t-37 -55l-251 -564q-10 -1 -30 -1z"/>
<glyph glyph-name="X" horiz-adv-x="593" unicode="X" d="M359 130l-69 173l-129 -164q-44 -56 -44 -81q0 -17 26 -24t26 -23q0 -2 -0.5 -6t-0.5 -5h-202q0 17 8 24.5t20 10t33.5 14.5t42.5 34q40 40 65 71l144 175l-88 208q-16 37 -35.5 60.5t-33.5 31t-24 14t-10 14.5q0 4 3 17h229l-2 -13q-2 -15 -28 -23.5t-27 -30.5 q0 -27 16 -64l60 -146l101 131q45 58 45 80q0 11 -8 18t-17 9.5t-17 8.5t-8 15q0 2 2 15h215l-2 -11q-4 -15 -16 -21.5t-30 -10t-52.5 -30t-73.5 -74.5l-127 -159l88 -212q21 -50 45 -79t40.5 -34.5t28 -11t11.5 -15.5q0 -6 -2 -16h-254l2 13q2 11 17.5 16.5t29.5 14.5 t14 31q0 25 -12 55z"/>
<glyph glyph-name="Y" horiz-adv-x="547" unicode="Y" d="M310 340h6l127 191q30 46 33 69q0 2 0.5 4t0.5 3q0 12 -8 20t-18 11t-18 8t-8 12q0 11 2 16h199l-2 -12q-2 -13 -13.5 -19t-27.5 -10t-42.5 -26.5t-52.5 -61.5l-163 -243l-38 -217q-1 -4 -1 -12q0 -17 12 -26t26 -10t25 -6.5t9 -17.5q-1 -10 -2 -13h-246l2 12q2 12 15 18 t28 8t30 14.5t19 37.5l37 205l-91 268q-9 28 -24 45.5t-26.5 22.5t-20 11.5t-8.5 16.5q0 2 0.5 7.5t0.5 7.5h225l-2 -12q-2 -15 -30.5 -25t-31.5 -29v-5q0 -15 6 -31l44 -136q18 -55 27 -96z"/>
<glyph glyph-name="Z" horiz-adv-x="580" unicode="Z" d="M498 641h-189q-73 0 -106.5 -23t-75.5 -113q-9 -19 -19 -19h-2q-2 1 -3 1q-8 2 -9 2l54 189l10 5q72 -9 193 -9h257l-5 -28l-497 -614h226q67 0 109 42t101 149q9 18 23 18h3l10 -3l-90 -235l-8 -7q-97 4 -257 4h-234l5 28z"/>
<glyph glyph-name="bracketleft" horiz-adv-x="251" unicode="[" d="M-5 -189l162 918h152l-6 -32h-82l-150 -854h82l-6 -32h-152z"/>
<glyph glyph-name="backslash" horiz-adv-x="295" unicode="\" d="M217 -71l-193 814h44l192 -814h-43z"/>
<glyph glyph-name="bracketright" horiz-adv-x="251" unicode="]" d="M272 729l-162 -918h-151l5 32h82l150 854h-82l6 32h152z"/>
<glyph glyph-name="asciicircum" horiz-adv-x="511" unicode="^" d="M472 364h-55l-92 268l-183 -268h-55q7 11 113.5 164.5t112.5 161.5h48z"/>
<glyph glyph-name="underscore" horiz-adv-x="460" unicode="_" d="M398 -120h-459l8 43h459z"/>
<glyph glyph-name="grave" horiz-adv-x="452" unicode="`" d="M356 538l-7 -21q-77 17 -126.5 53t-49.5 61q0 14 9.5 26.5t25.5 12.5q17 0 33 -18t46 -52.5t69 -61.5z"/>
<glyph glyph-name="a" horiz-adv-x="523" unicode="a" d="M153 -11q-118 0 -118 153q0 72 26 140.5t82 117.5t129 49q72 0 125 -49l57 47h21q-45 -153 -81 -398q1 0 22 13.5t42 26.5t22 14l14 -17q-40 -43 -76 -69.5t-54 -26.5q-45 0 -45 45q0 50 20 118h-4q-76 -164 -182 -164zM181 37q48 0 107 87t81 200l9 47q-45 42 -94 42 q-71 0 -119 -80.5t-48 -194.5q0 -101 64 -101z"/>
<glyph glyph-name="b" horiz-adv-x="493" unicode="b" d="M17 -8l120 610q3 16 3 28q0 16 -11.5 24.5t-25 10.5t-25 6.5t-11.5 12.5q0 5 3 17l159 23l4 -4l-61 -312q-12 -64 -36 -137h4q44 97 97.5 137.5t98.5 40.5q55 0 88.5 -39.5t33.5 -114.5q0 -70 -27 -138.5t-83 -117.5t-127 -49q-76 0 -129 49l-60 -47h-15zM207 26 q70 0 120 84t50 192q0 97 -67 97q-51 0 -106.5 -74t-83.5 -196l-14 -61q42 -42 101 -42z"/>
<glyph glyph-name="c" horiz-adv-x="413" unicode="c" d="M299 450q55 0 82 -20t27 -49q0 -18 -13 -29.5t-29 -11.5q-28 0 -43 18.5t-15 44.5q0 6 2 16q-64 0 -110.5 -47.5t-65 -105.5t-18.5 -113q0 -53 25 -85.5t78 -32.5q63 0 143 71l16 -16q-35 -41 -85 -71t-108 -30q-68 0 -109 43.5t-41 117.5q0 122 73.5 211t190.5 89z"/>
<glyph glyph-name="d" horiz-adv-x="522" unicode="d" d="M390 415l36 187q3 17 3 28q0 16 -11.5 24.5t-25 10.5t-25 6.5t-11.5 12.5q0 4 3 17l159 23l4 -4l-53 -272q-5 -27 -23.5 -117t-32 -161t-19.5 -120l86 53l13 -17q-39 -42 -75 -68.5t-54 -26.5q-45 0 -45 45q0 49 20 117h-4q-76 -164 -183 -164q-118 0 -118 153 q0 71 26 140t81.5 118t127.5 49q74 0 121 -34zM284 414q-71 -1 -119.5 -81.5t-48.5 -194.5q0 -101 64 -101q49 0 106.5 85.5t82.5 203.5l11 53q-39 35 -96 35z"/>
<glyph glyph-name="e" horiz-adv-x="421" unicode="e" d="M121 217q79 8 138.5 48.5t59.5 93.5q0 27 -13.5 41.5t-34.5 14.5q-46 0 -91 -55.5t-59 -142.5zM181 -11q-69 0 -108 41t-39 115q0 53 15.5 104.5t45 97t80 74t114.5 28.5q52 0 81.5 -24.5t29.5 -69.5q0 -63 -80.5 -108t-202.5 -65q-2 -10 -2 -29q0 -57 26.5 -86t73.5 -29 q65 0 145 69l16 -15q-87 -103 -195 -103z"/>
<glyph glyph-name="f" horiz-adv-x="270" unicode="f" d="M-72 -212q-28 0 -46.5 14.5t-18.5 35.5q0 20 13 31.5t32 11.5q22 0 40 -16t22 -47q48 21 72 156q55 314 79 431h-90l5 21l91 9q31 138 93 223t131 85q26 0 43 -12.5t17 -31.5q0 -20 -14.5 -31.5t-35.5 -11.5q-19 0 -37 12.5t-26 36.5q-52 -45 -82 -211l-11 -59h107 l-6 -30h-107q-46 -270 -81 -385.5t-76 -167.5q-51 -64 -114 -64z"/>
<glyph glyph-name="g" horiz-adv-x="436" unicode="g" d="M253 419q-52 0 -87 -54.5t-35 -125.5q0 -40 17.5 -64t52.5 -24q50 0 84 57.5t34 123.5q0 87 -66 87zM436 492q21 0 33.5 -10t12.5 -27t-11.5 -27t-28.5 -10q-36 0 -45 34q-23 -7 -51 -28q49 -37 49 -108q0 -82 -57 -138t-146 -56q-40 0 -75 14q-40 -25 -40 -48 q0 -14 31 -18.5t75 -5.5t88.5 -7t75.5 -29t31 -64q0 -64 -68 -120.5t-182 -56.5q-50 0 -86.5 12t-54 31.5t-25 38t-7.5 36.5q0 39 20 57t40 18q35 0 35 -36q0 -20 -14.5 -39t-39.5 -25q30 -62 131 -62q61 0 114.5 36.5t53.5 92.5q0 30 -29.5 47t-71.5 22t-84.5 8.5t-72 13 t-29.5 28.5q0 18 24.5 40.5t67.5 39.5q-22 14 -34.5 41.5t-12.5 56.5q0 91 56.5 148t138.5 57q42 0 83 -16q58 59 105 59z"/>
<glyph glyph-name="h" horiz-adv-x="476" unicode="h" d="M17 0l115 602q3 16 3 28q0 16 -11.5 24.5t-25 10.5t-25 6.5t-11.5 12.5q0 4 3 17l159 23l4 -4l-57 -294q-19 -94 -43 -176h4q33 91 90.5 145t111.5 54q106 0 106 -142q0 -111 -65 -215t-149 -104q-33 0 -50.5 15.5t-17.5 39.5q0 18 11 30t29 12q48 0 48 -60 q0 -2 -0.5 -6.5t-0.5 -7.5q39 18 67.5 79.5t39 121.5t10.5 108q0 77 -52 77q-59 0 -115.5 -81.5t-78.5 -197.5l-22 -118h-77z"/>
<glyph glyph-name="i" horiz-adv-x="272" unicode="i" d="M151 618q0 21 15 36t36 15t35.5 -14.5t14.5 -34.5q0 -21 -15.5 -36t-36.5 -15q-20 0 -34.5 14.5t-14.5 34.5zM106 -11q-21 0 -30.5 8t-9.5 31q0 19 4 40l63 324l-89 -62l-16 17q89 103 133 103q46 0 46 -49q0 -13 -6 -49q-10 -53 -31 -155t-30 -147l85 53l13 -17 q-39 -42 -76.5 -69.5t-55.5 -27.5z"/>
<glyph glyph-name="j" horiz-adv-x="229" unicode="j" d="M143 618q0 21 15 36t36 15t35.5 -14.5t14.5 -34.5q0 -21 -15 -36t-36 -15t-35 14t-15 35zM193 351l-59 -296q-8 -40 -21.5 -81t-36 -85.5t-56 -72.5t-72.5 -28q-23 0 -42.5 11.5t-19.5 32.5t13 33t32 12q21 0 37.5 -14.5t19.5 -41.5q33 18 52 120l85 451l-89 -62l-15 17 q88 102 133 102q46 0 46 -48q0 -8 -7 -50z"/>
<glyph glyph-name="k" horiz-adv-x="446" unicode="k" d="M17 0l115 602q3 16 3 28q0 16 -11.5 24.5t-25 10.5t-25 6.5t-11.5 12.5q0 4 3 17l159 23l4 -4l-52 -275q-25 -143 -52 -212h4q32 89 96.5 152.5t129.5 63.5q31 0 51 -21t20 -53q0 -84 -176 -160q12 -101 74 -174l86 61l14 -16q-81 -97 -126 -97q-46 0 -78.5 73t-39.5 145 q98 49 134.5 79t36.5 61q0 17 -11 29t-31 12q-60 0 -118 -88.5t-79 -202.5l-18 -97h-76z"/>
<glyph glyph-name="l" horiz-adv-x="220" unicode="l" d="M228 720l-129 -670q8 5 39 24t46 29q1 -1 14 -17q-40 -42 -77.5 -69.5t-55.5 -27.5q-21 0 -30.5 8t-9.5 31q0 14 5 43l102 531q3 16 3 28q0 16 -11.5 24.5t-25 10.5t-25 6.5t-11.5 12.5q0 4 3 17l159 23z"/>
<glyph glyph-name="m" horiz-adv-x="737" unicode="m" d="M363 449q37 0 56 -19.5t19 -53.5q0 -37 -29 -137h4q42 106 94.5 158t89.5 52t56 -20t19 -56q0 -27 -7 -56l-57 -267q22 10 87 53l13 -17q-39 -42 -76.5 -69.5t-55.5 -27.5q-44 0 -44 38q0 14 4 30l48 215q11 46 11 71q0 48 -39 48q-45 0 -101 -107.5t-79 -229.5l-10 -54 h-74l58 272q10 42 10 71q0 48 -38 48q-45 0 -100.5 -107.5t-79.5 -229.5l-10 -54h-74l75 392q-73 -49 -89 -62l-15 18q88 102 133 102t45 -48q0 -58 -39 -182h4q49 124 99.5 176.5t91.5 52.5z"/>
<glyph glyph-name="n" horiz-adv-x="520" unicode="n" d="M160 451q48 0 48 -48q0 -59 -40 -183h4q48 122 106 175.5t101 53.5q76 0 76 -74q0 -28 -7 -59l-58 -266q3 1 44.5 27t42.5 27l14 -18q-40 -42 -77.5 -69.5t-55.5 -27.5q-44 0 -44 38q0 11 5 31l47 215q11 55 11 70q0 48 -38 48q-46 0 -109.5 -109.5t-86.5 -227.5l-11 -54 h-74l75 393q-12 -7 -49.5 -34t-39.5 -29l-15 18q89 103 131 103z"/>
<glyph glyph-name="o" horiz-adv-x="480" unicode="o" d="M272 418q-37 0 -68.5 -27.5t-50 -70t-29 -90t-10.5 -90.5q0 -121 82 -121q53 0 94 50t58.5 111t17.5 115q0 123 -94 123zM278 449q79 0 123 -48t44 -125q0 -113 -77 -200t-180 -87q-153 0 -153 174q0 115 70.5 200.5t172.5 85.5z"/>
<glyph glyph-name="p" horiz-adv-x="510" unicode="p" d="M225 22q70 0 119 82.5t49 196.5q0 100 -64 100q-50 0 -107.5 -82.5t-81.5 -205.5l-11 -55q37 -36 96 -36zM193 403q0 -37 -23 -119h4q77 165 183 165q118 0 118 -154q0 -53 -15.5 -106t-44.5 -98t-75 -73.5t-102 -28.5q-73 0 -119 33l-25 -131q-2 -10 -2 -15 q0 -18 13.5 -28.5t29.5 -13t29.5 -7t13.5 -13.5q0 -1 -2 -16h-249l2 14q2 12 22 16t42.5 17.5t28.5 47.5l97 499l-89 -62l-15 17q87 104 133 104q45 0 45 -48z"/>
<glyph glyph-name="q" horiz-adv-x="495" unicode="q" d="M293 -107l27 134q18 96 40 149h-4q-43 -102 -98.5 -144.5t-101.5 -42.5q-55 0 -88.5 39t-33.5 114q0 70 27 139t83 118.5t127 49.5q74 0 128 -50l61 47h15l-111 -557q-2 -10 -2 -14q0 -26 31 -37q6 -2 17 -5t17.5 -4.5t11.5 -5.5t5 -10l-2 -15h-255l2 14q1 10 15.5 15.5 t32 8t34.5 17t22 40.5zM285 411q-70 0 -120 -83.5t-50 -191.5q0 -98 67 -98q50 0 105 73t84 194l15 64q-41 42 -101 42z"/>
<glyph glyph-name="r" horiz-adv-x="378" unicode="r" d="M312 397q-37 -18 -93 -133t-79 -228l-7 -36h-75l75 393q-1 -1 -22.5 -16t-43.5 -30.5t-23 -16.5l-15 18q89 103 132 103q46 0 46 -48q0 -23 -15.5 -89.5t-32.5 -121.5h4q28 82 57 136.5t55 78t45 31.5t39 8q23 0 40 -12t17 -32q0 -21 -15.5 -33.5t-35.5 -12.5 q-45 0 -53 41z"/>
<glyph glyph-name="s" horiz-adv-x="371" unicode="s" d="M225 449q52 0 89 -23.5t37 -62.5q0 -21 -12.5 -32.5t-27.5 -11.5q-21 0 -32.5 13t-11.5 30q0 27 17 49q-23 10 -52 10q-38 0 -65 -21t-27 -60q0 -26 29 -51t63 -42.5t63 -48.5t29 -68q0 -57 -52.5 -99t-131.5 -42q-61 0 -98 23t-37 61q0 24 13 35.5t28 11.5q41 0 41 -45 q0 -29 -16 -47q28 -13 71 -13q48 0 78 26t30 62q0 24 -19 45t-46.5 37.5t-55 33.5t-46.5 41.5t-19 53.5q0 62 46.5 98.5t114.5 36.5z"/>
<glyph glyph-name="t" horiz-adv-x="257" unicode="t" d="M41 78q59 305 63 326h-70l5 25q60 7 91.5 37.5t57.5 97.5h21q-6 -34 -26 -128h108l-6 -32h-108q-22 -118 -68 -354q13 8 47 30.5t53 34.5l13 -17q-39 -44 -84 -76.5t-64 -32.5q-20 0 -29.5 8t-9.5 30q0 21 6 51z"/>
<glyph glyph-name="u" horiz-adv-x="514" unicode="u" d="M451 440l7 -6l-73 -384l86 53l13 -17q-40 -43 -76 -69t-55 -26q-43 0 -43 44q0 33 36 173h-4q-48 -123 -100.5 -172t-96.5 -49q-75 0 -75 75q0 20 7 58l56 272l-89 -62l-16 17q90 104 136 104q44 0 44 -41q0 -20 -7 -52l-42 -195q-11 -55 -11 -71q0 -47 38 -47 q43 0 103.5 112.5t83.5 224.5l11 53q24 1 67 5z"/>
<glyph glyph-name="v" horiz-adv-x="432" unicode="v" d="M126 449q15 0 25.5 -5t15.5 -16t7 -19t4 -22q19 -147 25 -314h4q49 54 98 132.5t71 145.5q-24 5 -37.5 23.5t-13.5 39.5q0 18 11 31.5t31 13.5q22 0 36 -17t14 -44q0 -77 -79.5 -199.5t-169.5 -207.5h-33q-5 213 -32 401q-6 -6 -40 -43.5t-35 -38.5l-19 13 q72 126 117 126z"/>
<glyph glyph-name="w" horiz-adv-x="662" unicode="w" d="M366 449q19 0 31 -10.5t16 -22.5t7 -31q17 -114 23 -308h4q47 51 91.5 127.5t66.5 146.5q-23 4 -37 22.5t-14 39.5q0 19 11 32t31 13q23 0 37 -16.5t14 -43.5q0 -78 -75.5 -201t-163.5 -206h-33q-1 88 -15 254q-78 -143 -192 -254h-33q-5 215 -32 400l-75 -82l-19 14 q74 126 116 126q19 0 31 -10.5t15.5 -22t6.5 -30.5q18 -122 24 -314h4q31 32 76 100.5t72 129.5q-1 16 -10 90l-74 -81l-19 14q72 124 115 124z"/>
<glyph glyph-name="x" horiz-adv-x="458" unicode="x" d="M164 446q22 0 34 -12t23 -45q12 -36 36 -116q56 103 91 141t70 38q24 0 41.5 -12.5t17.5 -32.5t-13 -31.5t-32 -11.5q-21 0 -35 13.5t-17 32.5q-39 -30 -111 -176q48 -162 57 -188l78 69l18 -14q-23 -38 -58.5 -75t-64.5 -37q-22 0 -34 13t-24 46q-9 25 -39 130 q-61 -115 -98 -156t-74 -41q-25 0 -42 13t-17 33t13.5 31.5t32.5 11.5q21 0 34.5 -13.5t17.5 -32.5q41 32 121 195q-8 25 -24 82t-26 87l-78 -72l-18 15q27 43 61 79t59 36z"/>
<glyph glyph-name="y" horiz-adv-x="428" unicode="y" d="M362 456q20 0 35.5 -15t15.5 -46q0 -72 -47 -177t-116.5 -201t-160 -164t-168.5 -68q-30 0 -56.5 16t-26.5 44q0 22 15 35t34 13q24 0 41.5 -23t17.5 -52q76 7 193 119q-8 111 -26 252t-31 203q-1 -1 -19.5 -21.5t-36.5 -40t-19 -20.5q-14 14 -19 14q68 125 120 125 q37 0 47 -37q10 -36 25.5 -166.5t23.5 -235.5q67 80 110.5 170.5t59.5 161.5q-26 4 -41.5 23.5t-15.5 45.5q0 15 10.5 30t34.5 15z"/>
<glyph glyph-name="z" horiz-adv-x="433" unicode="z" d="M131 449q41 0 120 -19.5t96 -19.5q31 0 68 48l23 -12q-29 -53 -84 -110.5t-106.5 -98.5t-106 -88.5t-78.5 -80.5l4 -4q46 17 108 17q64 0 153 -19q4 8 15 31.5t21.5 45t10.5 22.5l23 -6q-29 -170 -83 -170q-41 0 -127.5 24.5t-104.5 24.5q-32 0 -68 -48q-1 0 -13 6t-13 6 q24 56 69.5 109t91 89t105.5 87t99 95l-2 3q-52 -24 -114 -24q-38 0 -116 13q-5 -9 -23.5 -50t-18.5 -42l-23 6q24 165 74 165z"/>
<glyph glyph-name="braceleft" horiz-adv-x="316" unicode="{" d="M187 171l-40 -224q-3 -14 -3 -34q0 -29 16.5 -46.5t57.5 -23.5l-5 -29q-72 0 -104.5 25.5t-32.5 79.5q0 20 5 45l34 192q7 47 7 57q0 61 -61 80l5 25q51 14 71.5 47.5t30.5 91.5q22 130 36 169q32 86 111 100q19 3 40 3q3 0 8.5 -0.5t8.5 -0.5l-3 -28q-45 0 -71.5 -26.5 t-34 -66.5t-16 -88.5t-16.5 -91t-36 -76t-75 -43.5v-2l-1 -2q72 -19 72 -88q0 -24 -4 -45z"/>
<glyph glyph-name="bar" horiz-adv-x="347" unicode="|" d="M199 -141h-49v885h49v-885z"/>
<glyph glyph-name="braceright" horiz-adv-x="316" unicode="}" d="M158 440q19 117 28 162q2 8 2 23q0 65 -73 75l5 30q72 -1 104.5 -27t32.5 -79q0 -20 -4 -40l-23 -132q-6 -36 -6 -53q0 -61 60 -81l-5 -25q-41 -11 -62.5 -36.5t-31.5 -65.5q-9 -36 -17.5 -88t-14 -88t-18 -77t-30 -66t-49.5 -41.5t-77 -16.5q-11 0 -17 1l3 29 q25 0 43.5 8t29 17.5t18 28t10.5 29.5t7 32q6 33 18.5 106t19.5 110q11 54 36.5 85.5t77.5 42.5q0 1 0.5 2t0.5 2q-73 18 -73 88q0 18 5 45z"/>
<glyph glyph-name="asciitilde" horiz-adv-x="485" unicode="~" d="M448 332l19 -11q-48 -100 -133 -100q-40 0 -91 22.5t-77 22.5q-68 0 -106 -49l-22 10q16 42 52 76.5t91 34.5q28 0 86 -23.5t85 -23.5q30 0 51 7.5t45 33.5z"/>
<glyph glyph-name="exclamdown" horiz-adv-x="252" unicode="¡" d="M164 448q17 0 28.5 -12t11.5 -30q0 -25 -17.5 -44t-40.5 -19q-16 0 -27 12t-11 30q0 25 17.5 44t38.5 19zM39 -261q-38 0 -38 43q0 16 4 27q3 8 58 226t56 221h23l-44 -445q-7 -72 -59 -72z"/>
<glyph glyph-name="cent" d="M169 239q0 -83 55 -108q3 10 20.5 92.5t37.5 174.5l20 93q-64 -28 -98.5 -104.5t-34.5 -147.5zM338 535q66 -1 93 -20t27 -42q0 -18 -13 -29t-30 -11q-23 0 -36.5 16.5t-13.5 36.5q0 8 1 13q-6 2 -19 2q-11 0 -16 -1l-80 -377q7 -1 23 -1q62 0 143 70l16 -16 q-35 -41 -85 -71t-108 -30q-8 -54 -20 -91l-26 3l18 90q-57 8 -90 50t-33 108q0 110 61 195t161 102q1 5 11.5 55t12.5 55l25 -3z" unicode="¢"/>
<glyph glyph-name="sterling" d="M121 67l2 -3q99 6 297 20q6 -9 7 -10l-30 -74h-392l5 29q139 55 139 189q0 40 -10 97h-89l6 32h76q-6 26 -6 56q0 62 23.5 120t79.5 101t134 43q56 0 87.5 -23.5t31.5 -59.5q0 -22 -12.5 -38.5t-32.5 -16.5q-24 0 -35 14.5t-11 33.5q0 26 18 53q-24 6 -45 6 q-72 0 -113.5 -59t-41.5 -146q0 -42 9 -84h197l-7 -32h-184q3 -19 3 -38q0 -53 -26.5 -115.5t-79.5 -94.5z" unicode="£"/>
<glyph glyph-name="currency" horiz-adv-x="528" unicode="¤" d="M265 403q-50 0 -85.5 -34.5t-35.5 -84.5t35.5 -86t85.5 -36t85.5 36t35.5 86q0 49 -35.5 84t-85.5 35zM265 108q-54 0 -107 34l-58 -58l-35 35q53 53 59 57q-36 49 -36 108q0 54 35 101l-9 9q-10 9 -20 19l-19 19l-10 10l37 37l57 -56q53 33 106 33q61 0 104 -29l56 52 l36 -36l-53 -53q34 -53 34 -106q0 -54 -35 -106l55 -56l-36 -37l-57 58q-52 -35 -104 -35z"/>
<glyph glyph-name="yen" d="M43 256h421l-5 -28h-178l-25 -142q-1 -4 -1 -12q0 -17 12 -26.5t26 -11t24.5 -7t8.5 -17.5l-2 -12h-244l2 12q2 12 15.5 18t28.5 8t29.5 14t18.5 35l25 141h-161zM475 316h-421l5 29h140l-58 209q-8 29 -23 46t-27.5 21.5t-21 11t-6.5 18.5l3 9h218l-2 -12 q-2 -14 -31 -24t-32 -28q0 -1 -0.5 -3t-0.5 -4q0 -7 5 -27l39 -132q10 -34 22 -88h5l108 179q28 49 31 66q0 2 0.5 4.5t0.5 3.5q0 13 -8.5 21t-19 10.5t-18 7.5t-6.5 13l2 13h200l-2 -12q-2 -12 -15 -17.5t-30.5 -9t-43.5 -25t-49 -60.5l-114 -191h155z" unicode="¥"/>
<glyph glyph-name="brokenbar" horiz-adv-x="347" unicode="¦" d="M150 255h49v-396h-49v396zM199 389h-49v355h49v-355z"/>
<glyph glyph-name="section" horiz-adv-x="479" unicode="§" d="M360 692q50 0 82 -21.5t32 -59.5q0 -25 -15 -39t-31 -14q-25 0 -37 16t-12 41q0 26 10 42q-15 3 -28 3q-44 0 -70 -27.5t-26 -76.5q0 -34 25.5 -75.5t56 -77.5t56 -91t25.5 -112q0 -122 -78 -211t-216 -89q-42 0 -71 18.5t-29 55.5q0 29 15 46.5t35 17.5q24 0 37 -16 t13 -39q0 -27 -13 -49q12 -3 24 -3q39 0 68.5 26.5t29.5 67.5q0 31 -23.5 75t-51.5 83.5t-51.5 95t-23.5 107.5q0 72 32 141t95 117t140 48zM238 607l-3 2q-68 -75 -68 -182q0 -48 20 -97.5t43.5 -85t43.5 -81.5t20 -87q0 -60 -39 -117l5 -2q95 67 95 190q0 74 -40 144 q-6 10 -39.5 59.5t-50 87t-16.5 77.5q0 48 29 92z"/>
<glyph glyph-name="dieresis" horiz-adv-x="452" unicode="¨" d="M378 636q16 0 27 -12t11 -29q0 -22 -17 -39t-38 -17q-17 0 -28 11t-11 28q0 23 17 40.5t39 17.5zM211 636q16 0 27 -12t11 -29q0 -21 -17.5 -38.5t-37.5 -17.5q-16 0 -27.5 11.5t-11.5 27.5q0 23 17 40.5t39 17.5z"/>
<glyph glyph-name="copyright" horiz-adv-x="827" unicode="©" d="M414 7q-151 0 -242.5 94t-91.5 234q0 138 95.5 233t238.5 95q142 0 238 -95.5t96 -232.5t-96 -232.5t-238 -95.5zM414 34q132 0 216 86.5t84 214.5q0 127 -85.5 214t-214.5 87q-132 0 -216.5 -86.5t-84.5 -214.5t84 -214.5t217 -86.5zM412 558q65 0 123 -32l15 32h15 v-146h-7q-2 0 -4 0.5t-3.5 1t-3 2.5t-2 3t-2 4.5t-2.5 5t-3 6t-3 7.5q-7 18 -14 30t-21 29t-36 26t-52 9q-143 0 -143 -212q0 -91 35.5 -145.5t108.5 -54.5q98 0 130 88q17 51 24 56q3 2 7 2h8v-165h-17l-19 36q-64 -39 -136 -39q-103 0 -163.5 62.5t-60.5 161.5 q0 98 62 165t164 67z"/>
<glyph glyph-name="ordfeminine" horiz-adv-x="349" unicode="ª" d="M226 566q-47 0 -79 -52t-32 -123q0 -63 39 -63q33 0 70.5 55.5t53.5 128.5l7 30q-29 24 -59 24zM215 595q49 0 87 -30q6 5 19 15t17 14h22q-29 -88 -56 -251q49 29 55 32l13 -16q-66 -66 -93 -66q-34 0 -34 33q0 14 5 42h-4q-52 -75 -110 -75q-85 0 -85 102 q0 75 44.5 137.5t119.5 62.5z"/>
<glyph glyph-name="guillemotleft" horiz-adv-x="426" unicode="«" d="M397 410l14 -13l-142 -190l71 -190l-20 -15l-122 166q-17 23 -17 33q0 16 29 42zM257 410l14 -13l-141 -190l71 -190q-1 -1 -10.5 -8t-10.5 -7l-121 166q-17 23 -17 33q0 17 29 42z"/>
<glyph glyph-name="logicalnot" horiz-adv-x="485" unicode="¬" d="M452 317l-41 -230h-46l32 183h-331l8 47h378z"/>
<glyph glyph-name="sfthyphen" horiz-adv-x="294" unicode="­" d="M253 208h-220l10 56h221z"/>
<glyph glyph-name="registered" horiz-adv-x="569" unicode="®" d="M285 231q98 0 158 61.5t60 153.5t-60.5 154t-157.5 62q-95 0 -156.5 -62t-61.5 -154t60 -153.5t158 -61.5zM285 207q-110 0 -177 68.5t-67 170.5q0 101 69.5 171t174.5 70q106 0 176 -70t70 -171q0 -100 -70.5 -169.5t-175.5 -69.5zM255 444h-4v-91q0 -15 20 -20t20 -13 v-6h-122v7q0 6 18.5 12.5t18.5 20.5v203q0 14 -18.5 19t-18.5 15v6h115q55 0 84 -19.5t29 -55.5q0 -33 -28 -55.5t-85 -22.5h-8q11 -16 47 -16l62 -78q8 -11 21 -15t21 -6t8 -8v-7h-78q-26 34 -102 130zM251 580v-119h26q32 0 52 17t20 43q0 59 -74 59h-24z"/>
<glyph glyph-name="macron" horiz-adv-x="457" unicode="¯" d="M424 617l-19 -57q-40 4 -112 4q-82 0 -138 -4l14 42q57 9 255 15z"/>
<glyph glyph-name="degree" horiz-adv-x="396" unicode="°" d="M93 574q0 52 36.5 89t88.5 37t89 -37t37 -89t-36.5 -88t-89.5 -36q-52 0 -88.5 36t-36.5 88zM129 574q0 -38 26 -65t63 -27t64 27t27 65t-27 65.5t-64 27.5t-63 -27.5t-26 -65.5z"/>
<glyph glyph-name="plusminus" horiz-adv-x="485" unicode="±" d="M396 1h-377l7 45h378q0 -1 -3.5 -22.5t-4.5 -22.5zM443 270h-164l-32 -181h-46l32 181h-167q0 2 4 24.5t4 23.5h167l32 180h46l-32 -180h165q-1 -1 -5 -24t-4 -24z"/>
<glyph glyph-name="twosuperior" horiz-adv-x="324" unicode="²" d="M239 687q55 0 81 -23.5t26 -60.5q0 -61 -66 -130t-166 -122q25 2 101 6.5t102 6.5l6 -8q-1 -3 -11.5 -28.5t-10.5 -27.5h-268l-2 19q118 83 182 149t64 131q0 28 -17 42t-43 14q-31 0 -56 -17q9 -13 9 -29t-10 -28.5t-26 -12.5q-14 0 -22 9t-8 22q0 32 37.5 60t97.5 28z "/>
<glyph glyph-name="threesuperior" horiz-adv-x="324" unicode="³" d="M240 514v-2l-1 -2q42 -6 63 -28.5t21 -55.5q0 -58 -49 -95.5t-112 -37.5q-49 0 -80 19.5t-31 51.5q0 49 58 71l12 -11q-16 -20 -16 -47q0 -24 15 -39.5t45 -15.5q43 0 66 30t23 73q0 33 -19 50.5t-52 17.5q-19 0 -43 -7l-2 24q68 15 101.5 37.5t33.5 67.5 q0 22 -15.5 33.5t-39.5 11.5q-28 0 -52 -14q9 -12 9 -27t-11 -26.5t-27 -11.5q-12 0 -19 8t-7 20q0 29 34 53t90 24q55 0 78.5 -22t23.5 -50q0 -31 -25.5 -59t-71.5 -41z"/>
<glyph glyph-name="acute" horiz-adv-x="452" unicode="´" d="M223 513l-8 20q38 25 66.5 54t40.5 46.5t27 29.5t34 12q13 0 21 -10t8 -22q0 -14 -17.5 -35.5t-63 -49t-108.5 -45.5z"/>
<glyph glyph-name="mu" horiz-adv-x="514" unicode="µ" d="M385 50l86 53l13 -17q-40 -43 -76 -69t-55 -26q-43 0 -43 45q0 44 19 112l17 60h-4q-46 -119 -97 -168t-95 -51q-18 0 -25 2l-20 -100q-2 -10 -2 -15q0 -18 13.5 -28.5t29.5 -13t29.5 -7t13.5 -13.5q0 -1 -2 -16h-248l2 14q2 12 22 16t42.5 17.5t28.5 47.5l97 499 l-89 -62l-15 17q87 103 132 103q46 0 46 -48q0 -19 -12 -77l-36 -172q-9 -47 -9 -62q0 -46 38 -46q42 0 103 112.5t84 224.5l11 53q24 1 67 5l7 -6z"/>
<glyph glyph-name="mu" horiz-adv-x="514" unicode="μ" d="M385 50l86 53l13 -17q-40 -43 -76 -69t-55 -26q-43 0 -43 45q0 44 19 112l17 60h-4q-46 -119 -97 -168t-95 -51q-18 0 -25 2l-20 -100q-2 -10 -2 -15q0 -18 13.5 -28.5t29.5 -13t29.5 -7t13.5 -13.5q0 -1 -2 -16h-248l2 14q2 12 22 16t42.5 17.5t28.5 47.5l97 499 l-89 -62l-15 17q87 103 132 103q46 0 46 -48q0 -19 -12 -77l-36 -172q-9 -47 -9 -62q0 -46 38 -46q42 0 103 112.5t84 224.5l11 53q24 1 67 5l7 -6z"/>
<glyph glyph-name="paragraph" horiz-adv-x="558" unicode="¶" d="M394 643l-105 -599q-23 -129 -77 -176l2 -3q116 46 139 183l104 595h-63zM301 674h310l-3 -14q-2 -11 -16.5 -16.5t-31 -8t-32.5 -15.5t-20 -37l-87 -490q-22 -127 -103 -205t-213 -78q-46 0 -75.5 18.5t-29.5 55.5q0 30 16.5 49t37.5 19q24 0 37.5 -16.5t13.5 -41.5 q0 -22 -11 -47q27 1 48 13.5t34 30t23.5 46t16 52t11.5 57.5l46 257h-37q-68 0 -108 41.5t-40 109.5q0 91 62 155.5t151 64.5z"/>
<glyph glyph-name="periodcentered" horiz-adv-x="193" unicode="·" d="M108 300q19 0 31 -12.5t12 -32.5q0 -26 -19.5 -45t-43.5 -19q-19 0 -29.5 12t-10.5 32q0 26 18.5 45.5t41.5 19.5z"/>
<glyph glyph-name="cedilla" horiz-adv-x="420" unicode="¸" d="M205 7l-38 -66q57 -2 86.5 -24t29.5 -55q0 -42 -44.5 -74t-123.5 -32q-26 0 -40 2l2 13q2 13 2 14q65 0 99.5 19.5t34.5 45.5q0 21 -23.5 34t-58.5 14l-9 18q2 2 28.5 47.5t27.5 47.5z"/>
<glyph glyph-name="onesuperior" horiz-adv-x="278" unicode="¹" d="M136 361l44 249v6q0 15 -13 21t-25.5 9t-12.5 10q0 1 2 14l120 17l4 -3l-57 -325q0 -1 -0.5 -2.5t-0.5 -2.5q0 -15 27 -21t27 -20q0 -2 -2 -13h-176l3 13q3 13 29.5 20.5t30.5 27.5z"/>
<glyph glyph-name="ordmasculine" horiz-adv-x="360" unicode="º" d="M231 568q-48 0 -76.5 -57.5t-28.5 -118.5q0 -74 52 -74q35 0 62.5 31.5t39 70t11.5 72.5q0 76 -60 76zM235 594q56 0 86.5 -31.5t30.5 -82.5q0 -73 -53.5 -130t-125.5 -57q-107 0 -107 115q0 75 48.5 130.5t120.5 55.5z"/>
<glyph glyph-name="guillemotright" horiz-adv-x="462" unicode="»" d="M202 397l18 13l167 -167q25 -24 25 -38q0 -9 -26 -37l-165 -166l-20 15q3 5 57 94t58 96zM51 397l18 13l168 -167q24 -24 24 -38q0 -9 -26 -37l-164 -166q-1 0 -10.5 7t-9.5 8l114 190q-1 3 -56.5 95t-57.5 95z"/>
<glyph glyph-name="onequarter" horiz-adv-x="760" unicode="¼" d="M650 720l-482 -759h-32l482 759h32zM146 361l44 249v6q0 15 -13 21t-25.5 9t-12.5 10q0 1 2 14l120 17l4 -3l-57 -325q0 -1 -0.5 -2.5t-0.5 -2.5q0 -15 27 -21t27 -20q0 -2 -2 -13h-176l3 13q3 13 29.5 20.5t30.5 27.5zM652 249l2 -1h2l-21 -122h62l-5 -25h-62 q0 -2 -3.5 -21.5t-3.5 -20.5v-5q0 -16 25 -22t25 -17q0 -1 -1 -7t-1 -8h-174l2 12q2 11 16 15t28 10.5t17 23.5l7 40h-177l4 20q186 218 221 263h67l4 -9q-41 -43 -94 -94t-108 -101.5t-58 -53.5h146l17 102z"/>
<glyph glyph-name="onehalf" horiz-adv-x="760" unicode="½" d="M626 720l-482 -759h-32l482 759h32zM146 361l44 249v6q0 15 -13 21t-25.5 9t-12.5 10q0 1 2 14l120 17l4 -3l-57 -325q0 -1 -0.5 -2.5t-0.5 -2.5q0 -15 27 -21t27 -20q0 -2 -2 -13h-176l3 13q3 13 29.5 20.5t30.5 27.5zM578 387q55 0 81 -23.5t26 -60.5q0 -61 -66 -130 t-166 -122q25 2 101 6.5t102 6.5l6 -8q-1 -3 -11.5 -28.5t-10.5 -27.5h-268l-1 19q117 83 181 149t64 131q0 28 -17 42t-43 14q-30 0 -56 -17q9 -13 9 -29t-10 -28.5t-26 -12.5q-14 0 -22 9t-8 22q0 32 37.5 60t97.5 28z"/>
<glyph glyph-name="threequarters" horiz-adv-x="761" unicode="¾" d="M658 249l2 -1h2l-21 -122h62l-5 -25h-62q0 -2 -3.5 -21.5t-3.5 -20.5v-5q0 -16 25 -22t25 -17q0 -1 -1 -7t-1 -8h-174l2 12q2 11 16 15t28 10.5t17 23.5l7 40h-177l4 20q186 218 221 263h67l4 -9q-41 -43 -94 -94t-108 -101.5t-58 -53.5h146l17 102zM258 514v-2l-1 -2 q42 -6 63 -28.5t21 -55.5q0 -58 -49 -95.5t-112 -37.5q-49 0 -80 19.5t-31 51.5q0 49 58 71l12 -11q-16 -20 -16 -47q0 -24 15 -39.5t45 -15.5q43 0 66 30t23 73q0 33 -19 50.5t-52 17.5q-19 0 -43 -7l-2 24q68 15 101.5 37.5t33.5 67.5q0 22 -15.5 33.5t-39.5 11.5 q-28 0 -52 -14q9 -12 9 -27t-11 -26.5t-27 -11.5q-12 0 -19 8t-7 20q0 29 34 53t90 24q55 0 78.5 -22t23.5 -50q0 -31 -25.5 -59t-71.5 -41zM673 720l-482 -759h-32l482 759h32z"/>
<glyph glyph-name="questiondown" horiz-adv-x="422" unicode="¿" d="M253 343q-18 0 -28.5 12t-10.5 30q0 25 17.5 44t40.5 19q16 0 26.5 -12t10.5 -29q0 -26 -17.5 -45t-38.5 -19zM-30 -153q0 39 27.5 77t67 67.5t79 57.5t67 59.5t27.5 62.5q0 40 -33 81q18 18 18 21q41 -19 66.5 -50t25.5 -67q0 -31 -26.5 -64t-64 -62l-75 -58t-64 -61 t-26.5 -61q0 -36 24.5 -52.5t61.5 -16.5q32 0 65 10q-6 17 -6 33q0 31 17.5 54.5t49.5 23.5q17 0 29 -12t12 -31q0 -57 -54 -86.5t-133 -29.5q-66 0 -110.5 24.5t-44.5 79.5z"/>
<glyph glyph-name="Agrave" horiz-adv-x="632" unicode="À" d="M467 759l-9 -22q-79 11 -129 45t-50 60q0 12 9.5 21.5t26.5 9.5q16 0 30 -15t45 -44.5t77 -54.5zM355 569h-4q-20 -37 -79 -150t-92 -175h230l-27 135q-20 104 -28 190zM164 214q-64 -116 -64 -143q0 -15 9.5 -24t21.5 -11.5t21.5 -7.5t9.5 -12q0 -8 -2 -16h-199l2 13 q2 11 13.5 16.5t26.5 9.5t36.5 23.5t39.5 52.5q133 254 299 563q11 1 32 1l110 -568q6 -34 19.5 -53t25.5 -23t21 -9t9 -14q0 -3 -0.5 -7t-0.5 -5h-221l1 8q2 13 12.5 19.5t22.5 8t21.5 12.5t9.5 33q0 5 -2 21l-21 112h-253z"/>
<glyph glyph-name="Aacute" horiz-adv-x="632" unicode="Á" d="M348 737l-5 22q50 24 84.5 54t52 45.5t39.5 15.5q14 0 20.5 -9.5t6.5 -21.5q0 -14 -15.5 -33t-63.5 -41.5t-119 -31.5zM355 569h-4q-20 -37 -79 -150t-92 -175h230l-27 135q-20 104 -28 190zM164 214q-64 -116 -64 -143q0 -15 9.5 -24t21.5 -11.5t21.5 -7.5t9.5 -12 q0 -8 -2 -16h-199l2 13q2 11 13.5 16.5t26.5 9.5t36.5 23.5t39.5 52.5q133 254 299 563q11 1 32 1l110 -568q6 -34 19.5 -53t25.5 -23t21 -9t9 -14q0 -3 -0.5 -7t-0.5 -5h-221l1 8q2 13 12.5 19.5t22.5 8t21.5 12.5t9.5 33q0 5 -2 21l-21 112h-253z"/>
<glyph glyph-name="Acircumflex" horiz-adv-x="632" unicode="Â" d="M535 715l-127 82l-155 -83l-12 22l129 103q43 34 52 34q11 0 40 -32l94 -104zM355 569h-4q-20 -37 -79 -150t-92 -175h230l-27 135q-20 104 -28 190zM164 214q-64 -116 -64 -143q0 -15 9.5 -24t21.5 -11.5t21.5 -7.5t9.5 -12q0 -8 -2 -16h-199l2 13q2 11 13.5 16.5 t26.5 9.5t36.5 23.5t39.5 52.5q133 254 299 563q11 1 32 1l110 -568q6 -34 19.5 -53t25.5 -23t21 -9t9 -14q0 -3 -0.5 -7t-0.5 -5h-221l1 8q2 13 12.5 19.5t22.5 8t21.5 12.5t9.5 33q0 5 -2 21l-21 112h-253z"/>
<glyph glyph-name="Atilde" horiz-adv-x="632" unicode="Ã" d="M543 831l13 -6q-14 -38 -39.5 -63.5t-58.5 -25.5q-21 0 -61.5 16.5t-59.5 16.5q-37 0 -67 -41l-16 7q14 36 39 64.5t60 28.5q19 0 61.5 -17.5t65.5 -17.5q33 0 63 38zM355 569h-4q-20 -37 -79 -150t-92 -175h230l-27 135q-20 104 -28 190zM164 214q-64 -116 -64 -143 q0 -15 9.5 -24t21.5 -11.5t21.5 -7.5t9.5 -12q0 -8 -2 -16h-199l2 13q2 11 13.5 16.5t26.5 9.5t36.5 23.5t39.5 52.5q133 254 299 563q11 1 32 1l110 -568q6 -34 19.5 -53t25.5 -23t21 -9t9 -14q0 -3 -0.5 -7t-0.5 -5h-221l1 8q2 13 12.5 19.5t22.5 8t21.5 12.5t9.5 33 q0 5 -2 21l-21 112h-253z"/>
<glyph glyph-name="Adieresis" horiz-adv-x="632" unicode="Ä" d="M510 839q16 0 27 -11t11 -28q0 -23 -17 -40.5t-39 -17.5q-17 0 -28 11.5t-11 28.5q0 22 18 39.5t39 17.5zM342 839q16 0 26.5 -11t10.5 -28q0 -23 -16.5 -40.5t-37.5 -17.5q-18 0 -28.5 11t-10.5 29q0 22 17.5 39.5t38.5 17.5zM355 569h-4q-20 -37 -79 -150t-92 -175h230 l-27 135q-20 104 -28 190zM164 214q-64 -116 -64 -143q0 -15 9.5 -24t21.5 -11.5t21.5 -7.5t9.5 -12q0 -8 -2 -16h-199l2 13q2 11 13.5 16.5t26.5 9.5t36.5 23.5t39.5 52.5q133 254 299 563q11 1 32 1l110 -568q6 -34 19.5 -53t25.5 -23t21 -9t9 -14q0 -3 -0.5 -7t-0.5 -5 h-221l1 8q2 13 12.5 19.5t22.5 8t21.5 12.5t9.5 33q0 5 -2 21l-21 112h-253z"/>
<glyph glyph-name="Aring" horiz-adv-x="632" unicode="Å" d="M419 828q-34 0 -57 -26t-23 -59q0 -25 14.5 -41.5t40.5 -16.5q31 0 54.5 24t23.5 57q0 27 -14 44.5t-39 17.5zM355 569h-4q-20 -37 -79 -150t-92 -175h230l-27 135q-20 104 -28 190zM164 214q-64 -116 -64 -143q0 -15 9.5 -24t21.5 -11.5t21.5 -7.5t9.5 -12q0 -8 -2 -16 h-199l2 13q2 11 13.5 16.5t26.5 9.5t36.5 23.5t39.5 52.5q95 182 289 544q-28 7 -44.5 28.5t-16.5 50.5q0 46 34 81.5t83 35.5q35 0 56.5 -23t21.5 -58q0 -42 -25 -74t-64 -40l107 -549q6 -34 19.5 -53t25.5 -23t21 -9t9 -14q0 -3 -0.5 -7t-0.5 -5h-221l1 8q2 13 12.5 19.5 t22.5 8t21.5 12.5t9.5 33q0 5 -2 21l-21 112h-253z"/>
<glyph glyph-name="AE" horiz-adv-x="960" unicode="Æ" d="M500 277q34 196 52 295q1 6 1 17q0 18 -12 32q-246 -318 -266 -344h225zM611 32h85q73 0 116.5 39.5t102.5 140.5q10 20 23 20q3 0 16 -3l-86 -226q-2 -3 -8 -7q-200 4 -242 4h-240l2 15q2 11 14 16t26.5 7t29 17t19.5 44l26 147h-243q-5 -6 -28 -35t-34 -43.5t-27 -37 t-23.5 -37.5t-7.5 -24q0 -13 11 -21t23.5 -10.5t23.5 -7.5t11 -12q0 -3 -5 -18h-226l3 13q5 14 17.5 19t27.5 7t41.5 21t54.5 55l400 521q-2 1 -5 2t-5 1.5t-4.5 1.5t-4.5 1.5t-4 2t-3 2.5t-1.5 3t-0.5 4q0 6 2 20h220q51 0 94 1.5t83 3.5t59 3l4 -5l-13 -177q-1 0 -4 -0.5 t-5 -0.5q-10 0 -15 4t-8 16q-20 85 -41 103.5t-91 18.5h-125l-48 -271h87q35 0 57 17.5t28.5 38t15 38t19.5 17.5h10l-46 -266h-8q-14 0 -18 19t-3 42t-13 42t-46 19h-89l-38 -215q-6 -30 -6 -43q0 -24 14 -35.5t49 -11.5z"/>
<glyph glyph-name="Ccedilla" horiz-adv-x="624" unicode="Ç" d="M427 683q94 0 168 -54l32 54h17l-38 -217h-5q-13 0 -18 19t-9.5 46t-15 54t-43 46t-85.5 19q-128 0 -203.5 -120t-75.5 -287q0 -102 42 -162t126 -60q52 0 92 16t61.5 40.5t38.5 52.5t25.5 52.5t19 40.5t23.5 16h9l-43 -245h-18l-17 58q-91 -62 -201 -62h-3l-28 -49 q57 -2 86.5 -24t29.5 -55q0 -42 -44.5 -74t-123.5 -32q-26 0 -40 2l2 13q2 13 2 14q65 0 99.5 19.5t34.5 45.5q0 21 -23.5 34t-58.5 14l-9 18q1 1 8 13.5t18.5 32t17.5 30.5q-105 10 -164 84.5t-59 186.5q0 177 107 298.5t266 121.5z"/>
<glyph glyph-name="Egrave" horiz-adv-x="590" unicode="È" d="M449 759l-9 -22q-79 11 -129 45t-50 60q0 12 9.5 21.5t26.5 9.5q16 0 30 -15t45 -44.5t77 -54.5zM228 32h85q72 0 119.5 40.5t103.5 138.5q10 21 25 21h4l12 -3l-87 -226q-1 -1 -2 -2.5t-2.5 -2.5t-2.5 -2q-176 4 -193 4h-295l2 15q2 11 14 16t26 7t28.5 17t19.5 44 l84 478q1 5 1 14q0 20 -10.5 30.5t-23 12.5t-23 7t-10.5 14t2 19h208q96 0 267 8l4 -5l-13 -177q-4 -1 -10 -1q-17 0 -21 17q-21 87 -42 106t-92 19h-143l-48 -271h100q35 0 57 17.5t28.5 38t15 38t19.5 17.5h10l-46 -266h-8q-12 0 -16 19t-4 42t-14.5 42t-46.5 19h-101 l-42 -242q-2 -14 -2 -19q0 -44 63 -44z"/>
<glyph glyph-name="Eacute" horiz-adv-x="590" unicode="É" d="M288 737l-5 22q50 24 84.5 54t52 45.5t39.5 15.5q14 0 20.5 -9.5t6.5 -21.5q0 -14 -15.5 -33t-63.5 -41.5t-119 -31.5zM228 32h85q72 0 119.5 40.5t103.5 138.5q10 21 25 21h4l12 -3l-87 -226q-1 -1 -2 -2.5t-2.5 -2.5t-2.5 -2q-176 4 -193 4h-295l2 15q2 11 14 16t26 7 t28.5 17t19.5 44l84 478q1 5 1 14q0 20 -10.5 30.5t-23 12.5t-23 7t-10.5 14t2 19h208q96 0 267 8l4 -5l-13 -177q-4 -1 -10 -1q-17 0 -21 17q-21 87 -42 106t-92 19h-143l-48 -271h100q35 0 57 17.5t28.5 38t15 38t19.5 17.5h10l-46 -266h-8q-12 0 -16 19t-4 42t-14.5 42 t-46.5 19h-101l-42 -242q-2 -14 -2 -19q0 -44 63 -44z"/>
<glyph glyph-name="Ecircumflex" horiz-adv-x="590" unicode="Ê" d="M512 725l-127 82l-155 -83l-12 22l129 103q43 34 52 34q11 0 40 -32l94 -104zM228 32h85q72 0 119.5 40.5t103.5 138.5q10 21 25 21h4l12 -3l-87 -226q-1 -1 -2 -2.5t-2.5 -2.5t-2.5 -2q-176 4 -193 4h-295l2 15q2 11 14 16t26 7t28.5 17t19.5 44l84 478q1 5 1 14 q0 20 -10.5 30.5t-23 12.5t-23 7t-10.5 14t2 19h208q96 0 267 8l4 -5l-13 -177q-4 -1 -10 -1q-17 0 -21 17q-21 87 -42 106t-92 19h-143l-48 -271h100q35 0 57 17.5t28.5 38t15 38t19.5 17.5h10l-46 -266h-8q-12 0 -16 19t-4 42t-14.5 42t-46.5 19h-101l-42 -242 q-2 -14 -2 -19q0 -44 63 -44z"/>
<glyph glyph-name="Edieresis" horiz-adv-x="590" unicode="Ë" d="M477 839q16 0 27 -11t11 -28q0 -23 -17 -40.5t-39 -17.5q-17 0 -28 11.5t-11 28.5q0 22 18 39.5t39 17.5zM309 839q16 0 26.5 -11t10.5 -28q0 -23 -16.5 -40.5t-37.5 -17.5q-18 0 -28.5 11t-10.5 29q0 22 17.5 39.5t38.5 17.5zM228 32h85q72 0 119.5 40.5t103.5 138.5 q10 21 25 21h4l12 -3l-87 -226q-1 -1 -2 -2.5t-2.5 -2.5t-2.5 -2q-176 4 -193 4h-295l2 15q2 11 14 16t26 7t28.5 17t19.5 44l84 478q1 5 1 14q0 20 -10.5 30.5t-23 12.5t-23 7t-10.5 14t2 19h208q96 0 267 8l4 -5l-13 -177q-4 -1 -10 -1q-17 0 -21 17q-21 87 -42 106 t-92 19h-143l-48 -271h100q35 0 57 17.5t28.5 38t15 38t19.5 17.5h10l-46 -266h-8q-12 0 -16 19t-4 42t-14.5 42t-46.5 19h-101l-42 -242q-2 -14 -2 -19q0 -44 63 -44z"/>
<glyph glyph-name="Igrave" horiz-adv-x="334" unicode="Ì" d="M344 759l-9 -22q-79 11 -129 45t-50 60q0 12 9.5 21.5t26.5 9.5q16 0 30 -15t45 -44.5t77 -54.5zM268 584l-87 -496q-1 -4 -1 -12q0 -18 12.5 -27.5t27 -11t25.5 -7.5t9 -18l-2 -12h-247l2 12q2 12 15 18.5t28 8.5t29.5 14.5t18.5 36.5l87 492q1 5 1 14q0 18 -11 27.5 t-24.5 11.5t-23 8t-7.5 18l2 12h248l-2 -12q-2 -12 -16.5 -18t-31 -8t-32.5 -14.5t-20 -36.5z"/>
<glyph glyph-name="Iacute" horiz-adv-x="334" unicode="Í" d="M168 737l-5 22q50 24 84.5 54t52 45.5t39.5 15.5q14 0 20.5 -9.5t6.5 -21.5q0 -14 -15.5 -33t-63.5 -41.5t-119 -31.5zM268 584l-87 -496q-1 -4 -1 -12q0 -18 12.5 -27.5t27 -11t25.5 -7.5t9 -18l-2 -12h-247l2 12q2 12 15 18.5t28 8.5t29.5 14.5t18.5 36.5l87 492 q1 5 1 14q0 18 -11 27.5t-24.5 11.5t-23 8t-7.5 18l2 12h248l-2 -12q-2 -12 -16.5 -18t-31 -8t-32.5 -14.5t-20 -36.5z"/>
<glyph glyph-name="Icircumflex" horiz-adv-x="334" unicode="Î" d="M388 725l-127 82l-155 -83l-12 22l129 103q43 34 52 34q11 0 40 -32l94 -104zM268 584l-87 -496q-1 -4 -1 -12q0 -18 12.5 -27.5t27 -11t25.5 -7.5t9 -18l-2 -12h-247l2 12q2 12 15 18.5t28 8.5t29.5 14.5t18.5 36.5l87 492q1 5 1 14q0 18 -11 27.5t-24.5 11.5t-23 8 t-7.5 18l2 12h248l-2 -12q-2 -12 -16.5 -18t-31 -8t-32.5 -14.5t-20 -36.5z"/>
<glyph glyph-name="Idieresis" horiz-adv-x="334" unicode="Ï" d="M353 839q16 0 27 -11t11 -28q0 -23 -17 -40.5t-39 -17.5q-17 0 -28 11.5t-11 28.5q0 22 18 39.5t39 17.5zM185 839q16 0 26.5 -11t10.5 -28q0 -23 -16.5 -40.5t-37.5 -17.5q-18 0 -28.5 11t-10.5 29q0 22 17.5 39.5t38.5 17.5zM268 584l-87 -496q-1 -4 -1 -12 q0 -18 12.5 -27.5t27 -11t25.5 -7.5t9 -18l-2 -12h-247l2 12q2 12 15 18.5t28 8.5t29.5 14.5t18.5 36.5l87 492q1 5 1 14q0 18 -11 27.5t-24.5 11.5t-23 8t-7.5 18l2 12h248l-2 -12q-2 -12 -16.5 -18t-31 -8t-32.5 -14.5t-20 -36.5z"/>
<glyph glyph-name="Eth" horiz-adv-x="662" unicode="Ð" d="M258 641l-49 -273h165l-5 -33h-166l-42 -239q-1 -6 -1 -18q0 -46 61 -46h16q35 0 73.5 9.5t83.5 37t80 68.5t58.5 111.5t23.5 159.5q0 108 -63.5 165.5t-181.5 57.5h-53zM240 0h-250l2 15q2 11 14 16t26 7t28.5 17t19.5 44l41 236h-61l5 33h62l38 209q2 10 2 14 q0 26 -17.5 36t-35 13.5t-17.5 14.5q0 3 2 19h228q151 0 235.5 -67.5t84.5 -206.5q0 -40 -10 -86.5t-38.5 -104t-72 -102.5t-118 -76t-168.5 -31z"/>
<glyph glyph-name="Ntilde" horiz-adv-x="700" unicode="Ñ" d="M596 847l13 -6q-14 -38 -39.5 -63.5t-58.5 -25.5q-21 0 -61.5 16.5t-59.5 16.5q-37 0 -67 -41l-16 7q14 36 39 64.5t60 28.5q19 0 61.5 -17.5t65.5 -17.5q33 0 63 38zM275 674l231 -454q21 -43 33 -82q1 1 4 1l77 437q1 4 1 12q0 19 -13.5 30t-30 13.5t-28.5 9t-10 18.5 l2 14h215l-2 -13q-2 -13 -11 -19t-28.5 -11.5t-26.5 -8.5t-13.5 -8.5t-11 -14t-7.5 -15t-5.5 -19.5t-4 -18.5t-3.5 -20.5t-3 -18l-91 -514q-5 -1 -14 -4t-14 -4l-272 527q-27 49 -36 80h-4l-75 -424q-1 -8 -4 -24t-5 -28.5t-3 -22.5q0 -1 -0.5 -5t-0.5 -5q0 -20 13.5 -30.5 t29.5 -13t28 -9t10 -17.5l-2 -13h-212l2 13q1 5 3.5 9.5t8.5 7.5t10 4.5t13.5 4t12.5 3.5q30 9 41.5 33t22.5 90l69 394q2 16 2 21q0 23 -11.5 35.5t-25 15t-24 8.5t-8.5 18l3 17h168z"/>
<glyph glyph-name="Ograve" horiz-adv-x="692" unicode="Ò" d="M539 762l-9 -22q-79 11 -129 45t-50 60q0 12 9.5 21.5t26.5 9.5q16 0 30 -15t45 -44.5t77 -54.5zM420 650q-68 0 -123 -42t-87 -107.5t-48.5 -135.5t-16.5 -134q0 -95 39.5 -153t128.5 -58q68 0 122.5 41t86 105t48 134t16.5 136q0 96 -39 155t-127 59zM426 682 q120 0 186 -75t66 -194q0 -169 -110.5 -296.5t-264.5 -127.5q-121 0 -184.5 72t-63.5 191q0 112 49 211t135 159t187 60z"/>
<glyph glyph-name="Oacute" horiz-adv-x="692" unicode="Ó" d="M389 741l-5 22q50 24 84.5 54t52 45.5t39.5 15.5q14 0 20.5 -9.5t6.5 -21.5q0 -14 -15.5 -33t-63.5 -41.5t-119 -31.5zM420 650q-68 0 -123 -42t-87 -107.5t-48.5 -135.5t-16.5 -134q0 -95 39.5 -153t128.5 -58q68 0 122.5 41t86 105t48 134t16.5 136q0 96 -39 155 t-127 59zM426 682q120 0 186 -75t66 -194q0 -169 -110.5 -296.5t-264.5 -127.5q-121 0 -184.5 72t-63.5 191q0 112 49 211t135 159t187 60z"/>
<glyph glyph-name="Ocircumflex" horiz-adv-x="692" unicode="Ô" d="M598 725l-127 82l-155 -83l-12 22l129 103q43 34 52 34q11 0 40 -32l94 -104zM420 650q-68 0 -123 -42t-87 -107.5t-48.5 -135.5t-16.5 -134q0 -95 39.5 -153t128.5 -58q68 0 122.5 41t86 105t48 134t16.5 136q0 96 -39 155t-127 59zM426 682q120 0 186 -75t66 -194 q0 -169 -110.5 -296.5t-264.5 -127.5q-121 0 -184.5 72t-63.5 191q0 112 49 211t135 159t187 60z"/>
<glyph glyph-name="Otilde" horiz-adv-x="692" unicode="Õ" d="M611 858l13 -6q-14 -38 -39.5 -63.5t-58.5 -25.5q-21 0 -61.5 16.5t-59.5 16.5q-37 0 -67 -41l-16 7q14 36 39 64.5t60 28.5q19 0 61.5 -17.5t65.5 -17.5q33 0 63 38zM420 650q-68 0 -123 -42t-87 -107.5t-48.5 -135.5t-16.5 -134q0 -95 39.5 -153t128.5 -58 q68 0 122.5 41t86 105t48 134t16.5 136q0 96 -39 155t-127 59zM426 682q120 0 186 -75t66 -194q0 -169 -110.5 -296.5t-264.5 -127.5q-121 0 -184.5 72t-63.5 191q0 112 49 211t135 159t187 60z"/>
<glyph glyph-name="Odieresis" horiz-adv-x="692" unicode="Ö" d="M557 839q16 0 27 -11t11 -28q0 -23 -17 -40.5t-39 -17.5q-17 0 -28 11.5t-11 28.5q0 22 18 39.5t39 17.5zM389 839q16 0 26.5 -11t10.5 -28q0 -23 -16.5 -40.5t-37.5 -17.5q-18 0 -28.5 11t-10.5 29q0 22 17.5 39.5t38.5 17.5zM420 650q-68 0 -123 -42t-87 -107.5 t-48.5 -135.5t-16.5 -134q0 -95 39.5 -153t128.5 -58q68 0 122.5 41t86 105t48 134t16.5 136q0 96 -39 155t-127 59zM426 682q120 0 186 -75t66 -194q0 -169 -110.5 -296.5t-264.5 -127.5q-121 0 -184.5 72t-63.5 191q0 112 49 211t135 159t187 60z"/>
<glyph glyph-name="multiply" horiz-adv-x="485" unicode="×" d="M332 119q-2 3 -45.5 63t-47.5 64l-142 -129l-27 36l143 129l-95 128l36 33l96 -128l140 128l25 -35l-139 -128l94 -127z"/>
<glyph glyph-name="Oslash" horiz-adv-x="692" unicode="Ø" d="M566 551l-385 -467q42 -64 132 -64q68 0 122.5 41t86 105t48 134t16.5 136q0 71 -20 115zM420 650q-68 0 -123 -42t-87 -107.5t-48.5 -135.5t-16.5 -134q0 -73 23 -123l387 468q-41 74 -135 74zM426 682q104 0 168 -58l59 71l19 -16l-60 -72q66 -75 66 -194 q0 -169 -110.5 -296.5t-264.5 -127.5q-97 0 -160 49l-60 -73l-19 17l61 73q-70 69 -70 197q0 112 49 211t135 159t187 60z"/>
<glyph glyph-name="Ugrave" horiz-adv-x="695" unicode="Ù" d="M524 759l-9 -22q-79 11 -129 45t-50 60q0 12 9.5 21.5t26.5 9.5q16 0 30 -15t45 -44.5t77 -54.5zM655 579l-54 -302q-25 -141 -99 -214.5t-188 -73.5q-215 0 -215 184q0 24 7 68l60 341q1 5 1 14q0 18 -11 27.5t-24 11.5t-22.5 8t-7.5 18l2 12h247l-2 -12 q-2 -13 -16.5 -19t-30.5 -8t-32 -14.5t-20 -36.5l-58 -324q-8 -45 -8 -79q0 -154 156 -154q87 0 147.5 64.5t82.5 188.5l53 299q1 5 1 13q0 19 -13 30t-28 13t-26.5 8.5t-9.5 18.5l2 12h207l-2 -12q-2 -13 -16.5 -19t-31 -8t-32 -15.5t-19.5 -39.5z"/>
<glyph glyph-name="Uacute" horiz-adv-x="695" unicode="Ú" d="M374 737l-5 22q50 24 84.5 54t52 45.5t39.5 15.5q14 0 20.5 -9.5t6.5 -21.5q0 -14 -15.5 -33t-63.5 -41.5t-119 -31.5zM655 579l-54 -302q-25 -141 -99 -214.5t-188 -73.5q-215 0 -215 184q0 24 7 68l60 341q1 5 1 14q0 18 -11 27.5t-24 11.5t-22.5 8t-7.5 18l2 12h247 l-2 -12q-2 -13 -16.5 -19t-30.5 -8t-32 -14.5t-20 -36.5l-58 -324q-8 -45 -8 -79q0 -154 156 -154q87 0 147.5 64.5t82.5 188.5l53 299q1 5 1 13q0 19 -13 30t-28 13t-26.5 8.5t-9.5 18.5l2 12h207l-2 -12q-2 -13 -16.5 -19t-31 -8t-32 -15.5t-19.5 -39.5z"/>
<glyph glyph-name="Ucircumflex" horiz-adv-x="695" unicode="Û" d="M579 725l-127 82l-155 -83l-12 22l129 103q43 34 52 34q11 0 40 -32l94 -104zM655 579l-54 -302q-25 -141 -99 -214.5t-188 -73.5q-215 0 -215 184q0 24 7 68l60 341q1 5 1 14q0 18 -11 27.5t-24 11.5t-22.5 8t-7.5 18l2 12h247l-2 -12q-2 -13 -16.5 -19t-30.5 -8 t-32 -14.5t-20 -36.5l-58 -324q-8 -45 -8 -79q0 -154 156 -154q87 0 147.5 64.5t82.5 188.5l53 299q1 5 1 13q0 19 -13 30t-28 13t-26.5 8.5t-9.5 18.5l2 12h207l-2 -12q-2 -13 -16.5 -19t-31 -8t-32 -15.5t-19.5 -39.5z"/>
<glyph glyph-name="Udieresis" horiz-adv-x="695" unicode="Ü" d="M540 839q16 0 27 -11t11 -28q0 -23 -17 -40.5t-39 -17.5q-17 0 -28 11.5t-11 28.5q0 22 18 39.5t39 17.5zM372 839q16 0 26.5 -11t10.5 -28q0 -23 -16.5 -40.5t-37.5 -17.5q-18 0 -28.5 11t-10.5 29q0 22 17.5 39.5t38.5 17.5zM655 579l-54 -302q-25 -141 -99 -214.5 t-188 -73.5q-215 0 -215 184q0 24 7 68l60 341q1 5 1 14q0 18 -11 27.5t-24 11.5t-22.5 8t-7.5 18l2 12h247l-2 -12q-2 -13 -16.5 -19t-30.5 -8t-32 -14.5t-20 -36.5l-58 -324q-8 -45 -8 -79q0 -154 156 -154q87 0 147.5 64.5t82.5 188.5l53 299q1 5 1 13q0 19 -13 30 t-28 13t-26.5 8.5t-9.5 18.5l2 12h207l-2 -12q-2 -13 -16.5 -19t-31 -8t-32 -15.5t-19.5 -39.5z"/>
<glyph glyph-name="Yacute" horiz-adv-x="547" unicode="Ý" d="M295 737l-5 22q50 24 84.5 54t52 45.5t39.5 15.5q14 0 20.5 -9.5t6.5 -21.5q0 -14 -15.5 -33t-63.5 -41.5t-119 -31.5zM310 340h6l127 191q30 46 33 69q0 2 0.5 4t0.5 3q0 12 -8 20t-18 11t-18 8t-8 12q0 11 2 16h199l-2 -12q-2 -13 -13.5 -19t-27.5 -10t-42.5 -26.5 t-52.5 -61.5l-163 -243l-38 -217q-1 -4 -1 -12q0 -17 12 -26t26 -10t25 -6.5t9 -17.5q-1 -10 -2 -13h-246l2 12q2 12 15 18t28 8t30 14.5t19 37.5l37 205l-91 268q-9 28 -24 45.5t-26.5 22.5t-20 11.5t-8.5 16.5q0 2 0.5 7.5t0.5 7.5h225l-2 -12q-2 -15 -30.5 -25t-31.5 -29 v-5q0 -15 6 -31l44 -136q18 -55 27 -96z"/>
<glyph glyph-name="Thorn" horiz-adv-x="543" unicode="Þ" d="M246 529l-58 -325q34 -8 77 -8q80 0 139.5 53t59.5 143q0 68 -43 104.5t-123 36.5q-28 0 -52 -4zM183 175l-16 -87q-1 -5 -1 -13q0 -18 12 -27.5t26 -11t26 -6.5t12 -15v-3l-2 -12h-249l2 12q2 12 15 17.5t27.5 7.5t29 15t19.5 38l87 487q1 6 1 15q0 19 -10.5 29.5 t-23 13t-23 8t-10.5 14.5q0 3 2 16h249l-2 -12q-2 -12 -16.5 -18t-30.5 -8t-31.5 -14.5t-19.5 -36.5l-4 -23q33 3 61 3q116 0 178.5 -49t62.5 -124q0 -58 -27 -103.5t-70.5 -70.5t-90.5 -37.5t-94 -12.5q-44 0 -89 8z"/>
<glyph glyph-name="germandbls" horiz-adv-x="516" unicode="ß" d="M389 697q-24 0 -50 -10.5t-55 -34t-52.5 -69.5t-34.5 -108q-40 -231 -71 -363t-50.5 -178t-47.5 -81q-53 -65 -115 -65q-28 0 -46.5 14.5t-18.5 35.5q0 20 13 31.5t32 11.5q22 0 40 -16.5t22 -47.5q48 23 72 158q48 286 82 451q26 132 121.5 219.5t190.5 87.5 q64 0 100 -30t36 -72q0 -36 -15.5 -67t-38 -51t-49.5 -38.5t-49.5 -32t-38 -30.5t-15.5 -34q0 -26 19 -60t41.5 -62.5t41.5 -64t19 -63.5q0 -61 -48 -104t-118 -43q-56 0 -94 22.5t-38 58.5q0 22 13 34t29 12q21 0 32 -14.5t11 -35.5q0 -19 -8 -37q25 -12 52 -12 q44 0 71 21.5t27 56.5q0 30 -17 64t-37.5 58.5t-37.5 55t-17 55.5q0 70 62 118q71 57 99 96t28 82q0 81 -92 81z"/>
<glyph glyph-name="agrave" horiz-adv-x="523" unicode="à" d="M395 538l-7 -21q-77 17 -126.5 53t-49.5 61q0 14 9.5 26.5t25.5 12.5q17 0 33 -18t46 -52.5t69 -61.5zM153 -11q-118 0 -118 153q0 72 26 140.5t82 117.5t129 49q72 0 125 -49l57 47h21q-45 -153 -81 -398q1 0 22 13.5t42 26.5t22 14l14 -17q-40 -43 -76 -69.5t-54 -26.5 q-45 0 -45 45q0 50 20 118h-4q-76 -164 -182 -164zM181 37q48 0 107 87t81 200l9 47q-45 42 -94 42q-71 0 -119 -80.5t-48 -194.5q0 -101 64 -101z"/>
<glyph glyph-name="aacute" horiz-adv-x="523" unicode="á" d="M240 513l-8 20q38 25 66.5 54t40.5 46.5t27 29.5t34 12q13 0 21 -10t8 -22q0 -14 -17.5 -35.5t-63 -49t-108.5 -45.5zM153 -11q-118 0 -118 153q0 72 26 140.5t82 117.5t129 49q72 0 125 -49l57 47h21q-45 -153 -81 -398q1 0 22 13.5t42 26.5t22 14l14 -17 q-40 -43 -76 -69.5t-54 -26.5q-45 0 -45 45q0 50 20 118h-4q-76 -164 -182 -164zM181 37q48 0 107 87t81 200l9 47q-45 42 -94 42q-71 0 -119 -80.5t-48 -194.5q0 -101 64 -101z"/>
<glyph glyph-name="acircumflex" horiz-adv-x="523" unicode="â" d="M435 499l-116 100l-151 -101l-14 21l128 120q38 35 51 35q14 0 38 -34l86 -122zM153 -11q-118 0 -118 153q0 72 26 140.5t82 117.5t129 49q72 0 125 -49l57 47h21q-45 -153 -81 -398q1 0 22 13.5t42 26.5t22 14l14 -17q-40 -43 -76 -69.5t-54 -26.5q-45 0 -45 45 q0 50 20 118h-4q-76 -164 -182 -164zM181 37q48 0 107 87t81 200l9 47q-45 42 -94 42q-71 0 -119 -80.5t-48 -194.5q0 -101 64 -101z"/>
<glyph glyph-name="atilde" horiz-adv-x="523" unicode="ã" d="M454 634l13 -6q-14 -38 -39.5 -63.5t-58.5 -25.5q-21 0 -61.5 16.5t-59.5 16.5q-37 0 -67 -41l-16 7q14 36 39 64.5t60 28.5q19 0 61.5 -17.5t65.5 -17.5q33 0 63 38zM153 -11q-118 0 -118 153q0 72 26 140.5t82 117.5t129 49q72 0 125 -49l57 47h21q-45 -153 -81 -398 q1 0 22 13.5t42 26.5t22 14l14 -17q-40 -43 -76 -69.5t-54 -26.5q-45 0 -45 45q0 50 20 118h-4q-76 -164 -182 -164zM181 37q48 0 107 87t81 200l9 47q-45 42 -94 42q-71 0 -119 -80.5t-48 -194.5q0 -101 64 -101z"/>
<glyph glyph-name="adieresis" horiz-adv-x="523" unicode="ä" d="M418 636q16 0 27 -12t11 -29q0 -22 -17 -39t-38 -17q-17 0 -28 11t-11 28q0 23 17 40.5t39 17.5zM251 636q16 0 27 -12t11 -29q0 -21 -17.5 -38.5t-37.5 -17.5q-16 0 -27.5 11.5t-11.5 27.5q0 23 17 40.5t39 17.5zM153 -11q-118 0 -118 153q0 72 26 140.5t82 117.5 t129 49q72 0 125 -49l57 47h21q-45 -153 -81 -398q1 0 22 13.5t42 26.5t22 14l14 -17q-40 -43 -76 -69.5t-54 -26.5q-45 0 -45 45q0 50 20 118h-4q-76 -164 -182 -164zM181 37q48 0 107 87t81 200l9 47q-45 42 -94 42q-71 0 -119 -80.5t-48 -194.5q0 -101 64 -101z"/>
<glyph glyph-name="aring" horiz-adv-x="523" unicode="å" d="M328 668q-34 0 -57 -26t-23 -59q0 -25 14.5 -41.5t40.5 -16.5q31 0 54.5 24t23.5 57q0 27 -14 44.5t-39 17.5zM298 497q-36 0 -59 23t-23 58q0 46 34 81.5t83 35.5q35 0 56.5 -23t21.5 -58q0 -48 -33 -82.5t-80 -34.5zM153 -11q-118 0 -118 153q0 72 26 140.5t82 117.5 t129 49q72 0 125 -49l57 47h21q-45 -153 -81 -398q1 0 22 13.5t42 26.5t22 14l14 -17q-40 -43 -76 -69.5t-54 -26.5q-45 0 -45 45q0 50 20 118h-4q-76 -164 -182 -164zM181 37q48 0 107 87t81 200l9 47q-45 42 -94 42q-71 0 -119 -80.5t-48 -194.5q0 -101 64 -101z"/>
<glyph glyph-name="ae" horiz-adv-x="680" unicode="æ" d="M384 235q8 -1 23 -1q83 0 127.5 35.5t44.5 90.5q0 27 -14.5 41t-37.5 14q-47 0 -87.5 -46.5t-55.5 -133.5zM149 33q34 0 80 18t70 43q-5 20 -5 51q0 34 6 70q-8 1 -38 1q-84 0 -128.5 -36t-44.5 -97q0 -50 60 -50zM440 -11q-99 0 -131 78q-97 -79 -197 -79 q-51 0 -77.5 24t-26.5 66q0 50 23.5 85.5t62 52.5t77 24.5t79.5 7.5q29 0 56 -4l13 71q4 20 4 30q0 38 -23 55t-58 17q-46 0 -75 -19q16 -17 16 -42q0 -22 -14 -39.5t-39 -17.5q-15 0 -26 12t-11 29q0 37 43 72.5t126 35.5q97 0 122 -66q65 67 165 67q52 0 81.5 -24.5 t29.5 -69.5q0 -65 -67.5 -107.5t-182.5 -42.5q-19 0 -29 1q-2 -26 -2 -36q0 -58 25.5 -95t70.5 -37q66 0 144 69l16 -15q-34 -41 -85 -72t-110 -31z"/>
<glyph glyph-name="ccedilla" horiz-adv-x="411" unicode="ç" d="M294 450q55 0 82 -20t27 -50q0 -18 -13 -29t-29 -11q-28 0 -43 18.5t-15 44.5q0 4 2 16q-48 0 -86 -27.5t-59.5 -69.5t-32.5 -86t-11 -84q0 -117 98 -117q63 0 143 71l16 -16q-33 -38 -80 -67.5t-101 -32.5l-27 -49q56 -2 85.5 -24t29.5 -55q0 -42 -44.5 -74t-123.5 -32 q-26 0 -40 2l2 13q2 13 3 14q65 0 99 19.5t34 45.5q0 21 -23.5 34t-58.5 14l-8 18l43 74q-60 5 -94 48t-34 113q0 123 70.5 211t188.5 88z"/>
<glyph glyph-name="egrave" horiz-adv-x="421" unicode="è" d="M359 538l-7 -21q-77 17 -126.5 53t-49.5 61q0 14 9.5 26.5t25.5 12.5q17 0 33 -18t46 -52.5t69 -61.5zM121 217q79 8 138.5 48.5t59.5 93.5q0 27 -13.5 41.5t-34.5 14.5q-46 0 -91 -55.5t-59 -142.5zM181 -11q-69 0 -108 41t-39 115q0 53 15.5 104.5t45 97t80 74 t114.5 28.5q52 0 81.5 -24.5t29.5 -69.5q0 -63 -80.5 -108t-202.5 -65q-2 -10 -2 -29q0 -57 26.5 -86t73.5 -29q65 0 145 69l16 -15q-87 -103 -195 -103z"/>
<glyph glyph-name="eacute" horiz-adv-x="421" unicode="é" d="M222 513l-8 20q38 25 66.5 54t40.5 46.5t27 29.5t34 12q13 0 21 -10t8 -22q0 -14 -17.5 -35.5t-63 -49t-108.5 -45.5zM121 217q79 8 138.5 48.5t59.5 93.5q0 27 -13.5 41.5t-34.5 14.5q-46 0 -91 -55.5t-59 -142.5zM181 -11q-69 0 -108 41t-39 115q0 53 15.5 104.5t45 97 t80 74t114.5 28.5q52 0 81.5 -24.5t29.5 -69.5q0 -63 -80.5 -108t-202.5 -65q-2 -10 -2 -29q0 -57 26.5 -86t73.5 -29q65 0 145 69l16 -15q-87 -103 -195 -103z"/>
<glyph glyph-name="ecircumflex" horiz-adv-x="421" unicode="ê" d="M408 499l-116 100l-151 -101l-14 21l128 120q38 35 51 35q14 0 38 -34l86 -122zM121 217q79 8 138.5 48.5t59.5 93.5q0 27 -13.5 41.5t-34.5 14.5q-46 0 -91 -55.5t-59 -142.5zM181 -11q-69 0 -108 41t-39 115q0 53 15.5 104.5t45 97t80 74t114.5 28.5q52 0 81.5 -24.5 t29.5 -69.5q0 -63 -80.5 -108t-202.5 -65q-2 -10 -2 -29q0 -57 26.5 -86t73.5 -29q65 0 145 69l16 -15q-87 -103 -195 -103z"/>
<glyph glyph-name="edieresis" horiz-adv-x="421" unicode="ë" d="M390 636q16 0 27 -12t11 -29q0 -22 -17 -39t-38 -17q-17 0 -28 11t-11 28q0 23 17 40.5t39 17.5zM223 636q16 0 27 -12t11 -29q0 -21 -17.5 -38.5t-37.5 -17.5q-16 0 -27.5 11.5t-11.5 27.5q0 23 17 40.5t39 17.5zM121 217q79 8 138.5 48.5t59.5 93.5q0 27 -13.5 41.5 t-34.5 14.5q-46 0 -91 -55.5t-59 -142.5zM181 -11q-69 0 -108 41t-39 115q0 53 15.5 104.5t45 97t80 74t114.5 28.5q52 0 81.5 -24.5t29.5 -69.5q0 -63 -80.5 -108t-202.5 -65q-2 -10 -2 -29q0 -57 26.5 -86t73.5 -29q65 0 145 69l16 -15q-87 -103 -195 -103z"/>
<glyph glyph-name="igrave" horiz-adv-x="272" unicode="ì" d="M230 538l-7 -21q-77 17 -126.5 53t-49.5 61q0 14 9.5 26.5t25.5 12.5q17 0 33 -18t46 -52.5t69 -61.5zM106 -11q-21 0 -30.5 8t-9.5 31q0 18 7 53l60 311q-4 -2 -44 -30t-45 -32q0 1 -7 9t-8 9q89 103 131 103q48 0 48 -49q0 -18 -7 -49q-57 -285 -61 -303l85 53l14 -17 q-40 -42 -77.5 -69.5t-55.5 -27.5z"/>
<glyph glyph-name="iacute" horiz-adv-x="272" unicode="í" d="M100 513l-8 20q38 25 66.5 54t40.5 46.5t27 29.5t34 12q13 0 21 -10t8 -22q0 -14 -17.5 -35.5t-63 -49t-108.5 -45.5zM106 -11q-21 0 -30.5 8t-9.5 31q0 18 7 53l60 311q-4 -2 -44 -30t-45 -32q0 1 -7 9t-8 9q89 103 131 103q48 0 48 -49q0 -18 -7 -49q-57 -285 -61 -303 l85 53l14 -17q-40 -42 -77.5 -69.5t-55.5 -27.5z"/>
<glyph glyph-name="icircumflex" horiz-adv-x="272" unicode="î" d="M292 499l-116 100l-151 -101l-14 21l128 120q38 35 51 35q14 0 38 -34l86 -122zM106 -11q-21 0 -30.5 8t-9.5 31q0 18 7 53l60 311q-4 -2 -44 -30t-45 -32q0 1 -7 9t-8 9q89 103 131 103q48 0 48 -49q0 -18 -7 -49q-57 -285 -61 -303l85 53l14 -17q-40 -42 -77.5 -69.5 t-55.5 -27.5z"/>
<glyph glyph-name="idieresis" horiz-adv-x="272" unicode="ï" d="M106 636q16 0 27 -12t11 -29q0 -21 -17 -38.5t-38 -17.5q-17 0 -28 11.5t-11 27.5q0 23 17 40.5t39 17.5zM273 636q16 0 27 -12t11 -29q0 -22 -17 -39t-38 -17q-17 0 -28 11t-11 28q0 23 17 40.5t39 17.5zM106 -11q-21 0 -30.5 8t-9.5 31q0 18 7 53l60 311q-4 -2 -44 -30 t-45 -32q0 1 -7 9t-8 9q89 103 131 103q48 0 48 -49q0 -18 -7 -49q-57 -285 -61 -303l85 53l14 -17q-40 -42 -77.5 -69.5t-55.5 -27.5z"/>
<glyph glyph-name="eth" horiz-adv-x="480" unicode="ð" d="M271 418q-48 0 -86 -47t-55 -109t-17 -121q0 -122 89 -122q48 0 87 45t58 106.5t19 119.5q0 128 -95 128zM373 417l4 3q-12 83 -63 164l-96 -60l-17 26l95 59q-45 61 -100 99l18 26q72 -38 126 -97l108 69q1 -1 8 -14t7 -14l-102 -64q96 -118 96 -271q0 -142 -74.5 -248 t-189.5 -106q-158 0 -158 174q0 116 68.5 201t172.5 85q68 0 97 -32z"/>
<glyph glyph-name="ntilde" horiz-adv-x="520" unicode="ñ" d="M441 634l13 -6q-14 -38 -39.5 -63.5t-58.5 -25.5q-21 0 -61.5 16.5t-59.5 16.5q-37 0 -67 -41l-16 7q14 36 39 64.5t60 28.5q19 0 61.5 -17.5t65.5 -17.5q33 0 63 38zM160 451q48 0 48 -48q0 -59 -40 -183h4q48 122 106 175.5t101 53.5q76 0 76 -74q0 -28 -7 -59 l-58 -266q3 1 44.5 27t42.5 27l14 -18q-40 -42 -77.5 -69.5t-55.5 -27.5q-44 0 -44 38q0 11 5 31l47 215q11 55 11 70q0 48 -38 48q-46 0 -109.5 -109.5t-86.5 -227.5l-11 -54h-74l75 393q-12 -7 -49.5 -34t-39.5 -29l-15 18q89 103 131 103z"/>
<glyph glyph-name="ograve" horiz-adv-x="480" unicode="ò" d="M380 538l-7 -21q-77 17 -126.5 53t-49.5 61q0 14 9.5 26.5t25.5 12.5q17 0 33 -18t46 -52.5t69 -61.5zM272 418q-37 0 -68.5 -27.5t-50 -70t-29 -90t-10.5 -90.5q0 -121 82 -121q53 0 94 50t58.5 111t17.5 115q0 123 -94 123zM278 449q79 0 123 -48t44 -125 q0 -113 -77 -200t-180 -87q-153 0 -153 174q0 115 70.5 200.5t172.5 85.5z"/>
<glyph glyph-name="oacute" horiz-adv-x="480" unicode="ó" d="M247 513l-8 20q38 25 66.5 54t40.5 46.5t27 29.5t34 12q13 0 21 -10t8 -22q0 -14 -17.5 -35.5t-63 -49t-108.5 -45.5zM272 418q-37 0 -68.5 -27.5t-50 -70t-29 -90t-10.5 -90.5q0 -121 82 -121q53 0 94 50t58.5 111t17.5 115q0 123 -94 123zM278 449q79 0 123 -48 t44 -125q0 -113 -77 -200t-180 -87q-153 0 -153 174q0 115 70.5 200.5t172.5 85.5z"/>
<glyph glyph-name="ocircumflex" horiz-adv-x="480" unicode="ô" d="M436 499l-116 100l-151 -101l-14 21l128 120q38 35 51 35q14 0 38 -34l86 -122zM272 418q-37 0 -68.5 -27.5t-50 -70t-29 -90t-10.5 -90.5q0 -121 82 -121q53 0 94 50t58.5 111t17.5 115q0 123 -94 123zM278 449q79 0 123 -48t44 -125q0 -113 -77 -200t-180 -87 q-153 0 -153 174q0 115 70.5 200.5t172.5 85.5z"/>
<glyph glyph-name="otilde" horiz-adv-x="480" unicode="õ" d="M460 634l13 -6q-14 -38 -39.5 -63.5t-58.5 -25.5q-21 0 -61.5 16.5t-59.5 16.5q-37 0 -67 -41l-16 7q14 36 39 64.5t60 28.5q19 0 61.5 -17.5t65.5 -17.5q33 0 63 38zM272 418q-37 0 -68.5 -27.5t-50 -70t-29 -90t-10.5 -90.5q0 -121 82 -121q53 0 94 50t58.5 111 t17.5 115q0 123 -94 123zM278 449q79 0 123 -48t44 -125q0 -113 -77 -200t-180 -87q-153 0 -153 174q0 115 70.5 200.5t172.5 85.5z"/>
<glyph glyph-name="odieresis" horiz-adv-x="480" unicode="ö" d="M422 636q16 0 27 -12t11 -29q0 -22 -17 -39t-38 -17q-17 0 -28 11t-11 28q0 23 17 40.5t39 17.5zM255 636q16 0 27 -12t11 -29q0 -21 -17.5 -38.5t-37.5 -17.5q-16 0 -27.5 11.5t-11.5 27.5q0 23 17 40.5t39 17.5zM272 418q-37 0 -68.5 -27.5t-50 -70t-29 -90 t-10.5 -90.5q0 -121 82 -121q53 0 94 50t58.5 111t17.5 115q0 123 -94 123zM278 449q79 0 123 -48t44 -125q0 -113 -77 -200t-180 -87q-153 0 -153 174q0 115 70.5 200.5t172.5 85.5z"/>
<glyph glyph-name="divide" horiz-adv-x="485" unicode="÷" d="M441 269h-376l8 48h377zM242 195q17 0 28.5 -12.5t11.5 -30.5q0 -26 -18 -44t-41 -18q-18 0 -29 11.5t-11 30.5q0 24 18.5 43.5t40.5 19.5zM294 492q17 0 28.5 -12t11.5 -31q0 -25 -18 -43.5t-41 -18.5q-17 0 -28 12t-11 30q0 25 17.5 44t40.5 19z"/>
<glyph glyph-name="oslash" horiz-adv-x="480" unicode="ø" d="M366 295q0 24 -4 41l-234 -278q19 -39 68 -39q53 0 94 50t58.5 111t17.5 115zM272 418q-37 0 -68.5 -27.5t-50 -70t-29 -90t-10.5 -90.5q0 -32 5 -55l235 279q-22 54 -82 54zM278 449q69 0 114 -40l43 52q1 -1 9.5 -8.5t9.5 -7.5l-45 -54q36 -47 36 -115q0 -113 -77 -200 t-180 -87q-57 0 -96 26l-42 -50l-19 17l43 50q-39 43 -39 131q0 115 70.5 200.5t172.5 85.5z"/>
<glyph glyph-name="ugrave" horiz-adv-x="514" unicode="ù" d="M371 538l-7 -21q-77 17 -126.5 53t-49.5 61q0 14 9.5 26.5t25.5 12.5q17 0 33 -18t46 -52.5t69 -61.5zM451 440l7 -6l-73 -384l86 53l13 -17q-40 -43 -76 -69t-55 -26q-43 0 -43 44q0 33 36 173h-4q-48 -123 -100.5 -172t-96.5 -49q-75 0 -75 75q0 20 7 58l56 272 l-89 -62l-16 17q90 104 136 104q44 0 44 -41q0 -20 -7 -52l-42 -195q-11 -55 -11 -71q0 -47 38 -47q43 0 103.5 112.5t83.5 224.5l11 53q24 1 67 5z"/>
<glyph glyph-name="uacute" horiz-adv-x="514" unicode="ú" d="M247 513l-8 20q38 25 66.5 54t40.5 46.5t27 29.5t34 12q13 0 21 -10t8 -22q0 -14 -17.5 -35.5t-63 -49t-108.5 -45.5zM451 440l7 -6l-73 -384l86 53l13 -17q-40 -43 -76 -69t-55 -26q-43 0 -43 44q0 33 36 173h-4q-48 -123 -100.5 -172t-96.5 -49q-75 0 -75 75q0 20 7 58 l56 272l-89 -62l-16 17q90 104 136 104q44 0 44 -41q0 -20 -7 -52l-42 -195q-11 -55 -11 -71q0 -47 38 -47q43 0 103.5 112.5t83.5 224.5l11 53q24 1 67 5z"/>
<glyph glyph-name="ucircumflex" horiz-adv-x="514" unicode="û" d="M433 499l-116 100l-151 -101l-14 21l128 120q38 35 51 35q14 0 38 -34l86 -122zM451 440l7 -6l-73 -384l86 53l13 -17q-40 -43 -76 -69t-55 -26q-43 0 -43 44q0 33 36 173h-4q-48 -123 -100.5 -172t-96.5 -49q-75 0 -75 75q0 20 7 58l56 272l-89 -62l-16 17 q90 104 136 104q44 0 44 -41q0 -20 -7 -52l-42 -195q-11 -55 -11 -71q0 -47 38 -47q43 0 103.5 112.5t83.5 224.5l11 53q24 1 67 5z"/>
<glyph glyph-name="udieresis" horiz-adv-x="514" unicode="ü" d="M414 636q16 0 27 -12t11 -29q0 -22 -17 -39t-38 -17q-17 0 -28 11t-11 28q0 23 17 40.5t39 17.5zM247 636q16 0 27 -12t11 -29q0 -21 -17.5 -38.5t-37.5 -17.5q-16 0 -27.5 11.5t-11.5 27.5q0 23 17 40.5t39 17.5zM451 440l7 -6l-73 -384l86 53l13 -17q-40 -43 -76 -69 t-55 -26q-43 0 -43 44q0 33 36 173h-4q-48 -123 -100.5 -172t-96.5 -49q-75 0 -75 75q0 20 7 58l56 272l-89 -62l-16 17q90 104 136 104q44 0 44 -41q0 -20 -7 -52l-42 -195q-11 -55 -11 -71q0 -47 38 -47q43 0 103.5 112.5t83.5 224.5l11 53q24 1 67 5z"/>
<glyph glyph-name="yacute" horiz-adv-x="428" unicode="ý" d="M200 513l-8 20q38 25 66.5 54t40.5 46.5t27 29.5t34 12q13 0 21 -10t8 -22q0 -14 -17.5 -35.5t-63 -49t-108.5 -45.5zM362 456q20 0 35.5 -15t15.5 -46q0 -72 -47 -177t-116.5 -201t-160 -164t-168.5 -68q-30 0 -56.5 16t-26.5 44q0 22 15 35t34 13q24 0 41.5 -23 t17.5 -52q76 7 193 119q-8 111 -26 252t-31 203q-1 -1 -19.5 -21.5t-36.5 -40t-19 -20.5q-14 14 -19 14q68 125 120 125q37 0 47 -37q10 -36 25.5 -166.5t23.5 -235.5q67 80 110.5 170.5t59.5 161.5q-26 4 -41.5 23.5t-15.5 45.5q0 15 10.5 30t34.5 15z"/>
<glyph glyph-name="thorn" horiz-adv-x="510" unicode="þ" d="M225 22q70 0 119 82.5t49 196.5q0 100 -64 100q-50 0 -107.5 -82.5t-81.5 -205.5l-11 -55q39 -36 96 -36zM22 -107l135 719q3 12 3 21q0 18 -18.5 26t-37 13t-18.5 14q0 11 3 15q27 4 80 11.5t79 11.5l3 -4l-57 -291q-19 -94 -43 -180h4q33 93 90.5 146.5t111.5 53.5 q118 0 118 -154q0 -71 -26 -139.5t-81.5 -117.5t-128.5 -49q-76 0 -120 33q-4 -19 -12.5 -64.5t-13.5 -70.5q-1 -4 -1 -12q0 -19 13.5 -29t29.5 -11.5t29.5 -6.5t13.5 -14q-2 -10 -2 -16h-249l2 14q2 12 22 16t42.5 17.5t28.5 47.5z"/>
<glyph glyph-name="OE" horiz-adv-x="933" unicode="Œ" d="M447 100l82 470q1 4 1 12q0 36 -31.5 52t-79.5 16q-68 0 -123 -42t-86.5 -107.5t-48 -135.5t-16.5 -135q0 -95 39.5 -153t127.5 -58q28 0 54.5 6t50.5 25.5t30 49.5zM590 32h71q73 0 116.5 39t102.5 140q11 22 24 22l2 -1h2l12 -3l-87 -226q-1 -1 -2 -2.5t-2.5 -2.5 t-2.5 -2q-15 0 -72.5 2t-113.5 2h-252q-62 -11 -85 -11q-121 0 -185 72t-64 191q0 112 49 211t135 159t187 60q37 0 72 -8h160q90 0 266 8l4 -5l-13 -177q-1 0 -4.5 -0.5t-5.5 -0.5q-17 0 -21 17q-20 85 -41 105t-87 20h-130l-48 -271h81q35 0 57 17.5t28.5 38t15 38 t19.5 17.5h10l-46 -266h-8q-12 0 -16 19t-4 42t-14.5 42t-46.5 19h-82l-42 -245q-2 -12 -2 -16q0 -44 63 -44z"/>
<glyph glyph-name="oe" horiz-adv-x="738" unicode="œ" d="M438 217q79 9 138.5 49t59.5 93q0 27 -13.5 41.5t-35.5 14.5q-45 0 -90.5 -55t-58.5 -143zM272 418q-50 0 -87.5 -47.5t-54 -109.5t-16.5 -122q0 -121 82 -121q41 0 74.5 29t53.5 72.5t30.5 89t10.5 84.5q0 125 -93 125zM497 -11q-49 0 -83.5 24t-47.5 67 q-74 -90 -180 -90q-152 0 -152 173q0 115 70.5 200.5t173.5 85.5q106 0 145 -95q29 43 76.5 69t106.5 26q52 0 81.5 -25t29.5 -69q0 -63 -81 -108t-202 -65q-3 -18 -3 -32q0 -54 27 -83t74 -29q66 0 144 69l16 -15q-34 -41 -85 -72t-110 -31z"/>
<glyph glyph-name="Scaron" horiz-adv-x="504" unicode="Š" d="M348 801l158 87l13 -22l-133 -108q-39 -33 -52 -33q-8 0 -15 6.5t-25 27.5l-90 107l21 23zM194 -10q-80 0 -134.5 30.5t-54.5 78.5q0 31 15 45.5t36 14.5q24 0 38 -16.5t14 -42.5q0 -35 -18 -57q39 -23 108 -23q74 0 132 39.5t58 113.5q0 43 -30 76.5t-73 57t-86.5 47.5 t-73.5 58.5t-30 78.5q0 94 67.5 143t162.5 49q74 0 124.5 -29.5t50.5 -77.5q0 -25 -12.5 -42t-36.5 -17q-26 0 -40 17.5t-14 43.5q0 32 18 54q-41 18 -87 18q-36 0 -68 -11t-57 -40t-25 -72q0 -35 30.5 -64.5t73.5 -52t86 -48t73.5 -65t30.5 -88.5q0 -57 -25 -100.5 t-66.5 -68.5t-89 -37.5t-97.5 -12.5z"/>
<glyph glyph-name="scaron" horiz-adv-x="371" unicode="š" d="M241 572l151 102l14 -21l-129 -120q-34 -33 -49 -33q-14 0 -38 34l-87 120l22 22zM225 449q52 0 89 -23.5t37 -62.5q0 -21 -12.5 -32.5t-27.5 -11.5q-21 0 -32.5 13t-11.5 30q0 27 17 49q-23 10 -52 10q-38 0 -65 -21t-27 -60q0 -26 29 -51t63 -42.5t63 -48.5t29 -68 q0 -57 -52.5 -99t-131.5 -42q-61 0 -98 23t-37 61q0 24 13 35.5t28 11.5q41 0 41 -45q0 -29 -16 -47q28 -13 71 -13q48 0 78 26t30 62q0 24 -19 45t-46.5 37.5t-55 33.5t-46.5 41.5t-19 53.5q0 62 46.5 98.5t114.5 36.5z"/>
<glyph glyph-name="Ydieresis" horiz-adv-x="547" unicode="Ÿ" d="M460 839q16 0 27 -11t11 -28q0 -23 -17 -40.5t-39 -17.5q-17 0 -28 11.5t-11 28.5q0 22 18 39.5t39 17.5zM292 839q16 0 26.5 -11t10.5 -28q0 -23 -16.5 -40.5t-37.5 -17.5q-18 0 -28.5 11t-10.5 29q0 22 17.5 39.5t38.5 17.5zM310 340h6l127 191q30 46 33 69q0 2 0.5 4 t0.5 3q0 12 -8 20t-18 11t-18 8t-8 12q0 11 2 16h199l-2 -12q-2 -13 -13.5 -19t-27.5 -10t-42.5 -26.5t-52.5 -61.5l-163 -243l-38 -217q-1 -4 -1 -12q0 -17 12 -26t26 -10t25 -6.5t9 -17.5q-1 -10 -2 -13h-246l2 12q2 12 15 18t28 8t30 14.5t19 37.5l37 205l-91 268 q-9 28 -24 45.5t-26.5 22.5t-20 11.5t-8.5 16.5q0 2 0.5 7.5t0.5 7.5h225l-2 -12q-2 -15 -30.5 -25t-31.5 -29v-5q0 -15 6 -31l44 -136q18 -55 27 -96z"/>
<glyph glyph-name="circumflex" horiz-adv-x="452" unicode="ˆ" d="M401 499l-116 100l-151 -101l-14 21l128 120q38 35 51 35q14 0 38 -34l86 -122z"/>
<glyph glyph-name="tilde" horiz-adv-x="454" unicode="˜" d="M424 634l13 -6q-14 -38 -39.5 -63.5t-58.5 -25.5q-21 0 -61.5 16.5t-59.5 16.5q-37 0 -67 -41l-16 7q14 36 39 64.5t60 28.5q19 0 61.5 -17.5t65.5 -17.5q33 0 63 38z"/>
<glyph glyph-name="Alpha" horiz-adv-x="632" unicode="Α" d="M355 569h-4q-20 -37 -79 -150t-92 -175h230l-27 135q-20 104 -28 190zM164 214q-64 -116 -64 -143q0 -15 9.5 -24t21.5 -11.5t21.5 -7.5t9.5 -12q0 -8 -2 -16h-199l2 13q2 11 13.5 16.5t26.5 9.5t36.5 23.5t39.5 52.5q133 254 299 563q11 1 32 1l110 -568q6 -34 19.5 -53 t25.5 -23t21 -9t9 -14q0 -3 -0.5 -7t-0.5 -5h-221l1 8q2 13 12.5 19.5t22.5 8t21.5 12.5t9.5 33q0 5 -2 21l-21 112h-253z"/>
<glyph glyph-name="Beta" horiz-adv-x="593" unicode="Β" d="M210 353l-40 -228q-5 -27 -5 -43q0 -25 15.5 -37.5t54.5 -12.5h19q51 0 96.5 18t79 62.5t33.5 109.5q0 39 -16.5 67t-43 41t-50.5 18t-48 5h-95zM289 0h-297l2 15q1 10 13 15t26.5 7t29 17.5t19.5 44.5l75 420q11 63 11 72q0 19 -10.5 29.5t-23.5 13t-23.5 7.5t-10.5 14 q0 2 4 19h268q97 0 149 -40.5t52 -97.5q0 -73 -60 -116.5t-128 -46.5v-4q81 -4 125 -51t44 -111q0 -33 -17 -68.5t-48.5 -67t-84 -51.5t-115.5 -20zM261 641l-46 -257h85q24 0 50.5 5.5t59.5 20.5t54 48t21 81q0 53 -42.5 77.5t-98.5 24.5h-83z"/>
<glyph glyph-name="Gamma" horiz-adv-x="544" unicode="Γ" d="M266 641l-98 -553q-1 -4 -1 -12q0 -18 12.5 -27.5t27 -11t25.5 -7.5t9 -18l-2 -12h-247l2 12q2 12 15 18.5t28 8.5t29.5 14.5t18.5 36.5l85 475q3 15 3 26q0 25 -16.5 35t-33.5 14t-17 15q0 9 2 19h208q106 0 277 8l4 -5l-13 -177q-4 -1 -10 -1q-17 0 -21 17 q-21 87 -42 106t-92 19h-153z"/>
<glyph glyph-name="Delta" horiz-adv-x="621" unicode="Δ" d="M347 568l-282 -499h398l-82 343q-21 88 -30 156h-4zM-5 0l3 20l377 659h29l158 -657l-4 -22h-563z"/>
<glyph glyph-name="Epsilon" horiz-adv-x="590" unicode="Ε" d="M228 32h85q72 0 119.5 40.5t103.5 138.5q10 21 25 21h4l12 -3l-87 -226q-1 -1 -2 -2.5t-2.5 -2.5t-2.5 -2q-176 4 -193 4h-295l2 15q2 11 14 16t26 7t28.5 17t19.5 44l84 478q1 5 1 14q0 20 -10.5 30.5t-23 12.5t-23 7t-10.5 14t2 19h208q96 0 267 8l4 -5l-13 -177 q-4 -1 -10 -1q-17 0 -21 17q-21 87 -42 106t-92 19h-143l-48 -271h100q35 0 57 17.5t28.5 38t15 38t19.5 17.5h10l-46 -266h-8q-12 0 -16 19t-4 42t-14.5 42t-46.5 19h-101l-42 -242q-2 -14 -2 -19q0 -44 63 -44z"/>
<glyph glyph-name="Zeta" horiz-adv-x="580" unicode="Ζ" d="M498 641h-189q-73 0 -106.5 -23t-75.5 -113q-9 -19 -19 -19h-2q-2 1 -3 1q-8 2 -9 2l54 189l10 5q72 -9 193 -9h257l-5 -28l-497 -614h226q67 0 109 42t101 149q9 18 23 18h3l10 -3l-90 -235l-8 -7q-97 4 -257 4h-234l5 28z"/>
<glyph glyph-name="Eta" horiz-adv-x="701" unicode="Η" d="M655 584l-87 -496q-1 -4 -1 -12q0 -18 12.5 -27.5t27 -11t25.5 -7.5t9 -18l-2 -12h-247l2 12q2 12 15 18.5t28 8.5t29.5 14.5t18.5 36.5l44 248h-320l-44 -250q-1 -4 -1 -12q0 -18 12.5 -27.5t27 -11t25.5 -7.5t9 -18l-2 -12h-247l2 12q2 12 15 18.5t28 8.5t29.5 14.5 t18.5 36.5l87 492q1 5 1 14q0 18 -11 27.5t-24.5 11.5t-23 8t-7.5 18l2 12h248l-2 -12q-2 -12 -16.5 -18t-31 -8t-32.5 -14.5t-20 -36.5l-38 -214h320l38 212q1 5 1 14q0 18 -11 27.5t-24.5 11.5t-23 8t-7.5 18l2 12h248l-2 -12q-2 -12 -16.5 -18t-31 -8t-32.5 -14.5 t-20 -36.5z"/>
<glyph glyph-name="Theta" horiz-adv-x="732" unicode="Θ" d="M425 333h-84q-35 0 -56 -15.5t-26.5 -34.5t-13 -34.5t-18.5 -15.5h-10l40 226h9q11 0 13 -15t1.5 -33t16.5 -33t53 -15h78q34 0 55.5 15t27.5 33t14 33t20 15h9l-40 -226h-8q-12 0 -15.5 15.5t-3.5 34.5t-15 34.5t-47 15.5zM439 651q-71 0 -129 -40t-92 -102.5 t-52.5 -131t-18.5 -132.5q0 -100 44 -162t141 -62q70 0 127.5 38.5t92.5 99t53.5 129t18.5 134.5q0 101 -44.5 165t-140.5 64zM445 683q129 0 200.5 -80t71.5 -205q0 -107 -53 -201t-144 -150.5t-197 -56.5q-128 0 -198 77.5t-70 199.5q0 171 114 293.5t276 122.5z"/>
<glyph glyph-name="Iota" horiz-adv-x="334" unicode="Ι" d="M268 584l-87 -496q-1 -4 -1 -12q0 -18 12.5 -27.5t27 -11t25.5 -7.5t9 -18l-2 -12h-247l2 12q2 12 15 18.5t28 8.5t29.5 14.5t18.5 36.5l87 492q1 5 1 14q0 18 -11 27.5t-24.5 11.5t-23 8t-7.5 18l2 12h248l-2 -12q-2 -12 -16.5 -18t-31 -8t-32.5 -14.5t-20 -36.5z"/>
<glyph glyph-name="Kappa" horiz-adv-x="635" unicode="Κ" d="M289 335h-81l-44 -247q-1 -4 -1 -12q0 -18 12 -27t26 -11t25 -8t9 -18l-2 -12h-241l2 12q2 14 14.5 20.5t27 8t28 13.5t17.5 36l87 492q1 5 1 14q0 18 -11 27.5t-24.5 11.5t-23 8t-7.5 18l2 12h242l-2 -12q-2 -13 -16 -19.5t-29.5 -8t-30 -13.5t-18.5 -36l-37 -214h107 l194 208q18 18 18 35q0 11 -9 16.5t-19.5 7.5t-18.5 7.5t-6 16.5l2 13h222l-1 -9q-3 -15 -17 -22t-33.5 -10.5t-53.5 -23.5t-69 -57l-167 -177l135 -267q16 -32 37.5 -49.5t37 -20.5t26 -8.5t9.5 -17.5l-1 -12h-245l1 12q0 16 28 24.5t28 25.5q0 14 -9 32z"/>
<glyph glyph-name="Lambda" horiz-adv-x="632" unicode="Λ" d="M164 214q-64 -116 -64 -143q0 -15 9.5 -24t21.5 -11.5t21.5 -7.5t9.5 -12q0 -8 -2 -16h-199l2 13q2 11 13.5 16.5t26.5 9.5t36.5 23.5t39.5 52.5q133 254 299 563q11 1 32 1l110 -568q6 -34 19.5 -53t25.5 -23t21 -9t9 -14q0 -3 -0.5 -7t-0.5 -5h-221l1 8q2 13 12.5 19.5 t22.5 8t21.5 12.5t9.5 33q0 5 -2 21l-55 277q-20 104 -28 190h-4q-16 -30 -84.5 -161t-102.5 -194z"/>
<glyph glyph-name="Mu" horiz-adv-x="843" unicode="Μ" d="M707 674h177l-2 -18q-1 -10 -16.5 -16.5t-33.5 -11t-34.5 -21t-19.5 -45.5l-57 -470q0 -2 -0.5 -6t-0.5 -5q0 -21 12 -32t25.5 -13t24.5 -7.5t9 -16.5l-2 -12h-239l2 12q1 6 3.5 10t7.5 6.5t8.5 4t12 3.5t11.5 3q24 8 33.5 20t12.5 32l61 501h-5q-53 -100 -153.5 -300 t-153.5 -300h-32l-97 475q-23 111 -25 134h-4l-112 -507q-2 -12 -2 -15q0 -18 13 -28t28 -12t26.5 -8t9.5 -18l-2 -13h-203l2 13q2 15 22.5 20.5t43 17.5t28.5 40l104 460q4 15 4 29q0 22 -11.5 35t-24.5 16.5t-23.5 9.5t-8.5 16l3 17h179l89 -451q12 -66 15 -114h6 q52 98 147 287t142 278z"/>
<glyph glyph-name="Nu" horiz-adv-x="700" unicode="Ν" d="M275 674l231 -454q21 -43 33 -82q1 1 4 1l77 437q1 4 1 12q0 19 -13.5 30t-30 13.5t-28.5 9t-10 18.5l2 14h215l-2 -13q-2 -13 -11 -19t-28.5 -11.5t-26.5 -8.5t-13.5 -8.5t-11 -14t-7.5 -15t-5.5 -19.5t-4 -18.5t-3.5 -20.5t-3 -18l-91 -514q-5 -1 -14 -4t-14 -4 l-272 527q-27 49 -36 80h-4l-75 -424q-1 -8 -4 -24t-5 -28.5t-3 -22.5q0 -1 -0.5 -5t-0.5 -5q0 -20 13.5 -30.5t29.5 -13t28 -9t10 -17.5l-2 -13h-212l2 13q1 5 3.5 9.5t8.5 7.5t10 4.5t13.5 4t12.5 3.5q30 9 41.5 33t22.5 90l69 394q2 16 2 21q0 23 -11.5 35.5t-25 15 t-24 8.5t-8.5 18l3 17h168z"/>
<glyph glyph-name="Xi" horiz-adv-x="605" unicode="Ξ" d="M368 674h41q120 0 202 8l9 -5l-19 -175q-1 0 -5 -0.5t-6 -0.5q-15 0 -18 17q-11 63 -30.5 77.5t-96.5 14.5h-164q-56 0 -81 -6.5t-41.5 -23.5t-40.5 -62q-10 -19 -21 -19q-1 0 -2.5 0.5t-2.5 0.5l-8 2l42 175l10 5q76 -8 232 -8zM185 68h186q76 0 104 18.5t81 99.5 q11 17 20 17q6 0 15 -3q-12 -33 -38 -98.5t-39 -98.5l-8 -7q-144 4 -234 4h-32q-117 0 -217 -4l-6 7q-1 33 -3 98.5t-4 98.5q3 1 10 1q14 0 19 -16q22 -79 45 -98t101 -19zM284 371h82q36 0 59 15.5t30 34.5t15 34.5t19 15.5h10l-42 -238h-10q-11 0 -14 16.5t-3 36t-16 36 t-51 16.5h-88q-36 0 -58 -16.5t-28 -36t-14 -36t-19 -16.5h-11l42 238h9q11 0 14 -15.5t3 -34.5t17.5 -34.5t53.5 -15.5z"/>
<glyph glyph-name="Omicron" horiz-adv-x="692" unicode="Ο" d="M420 650q-68 0 -123 -42t-87 -107.5t-48.5 -135.5t-16.5 -134q0 -95 39.5 -153t128.5 -58q68 0 122.5 41t86 105t48 134t16.5 136q0 96 -39 155t-127 59zM426 682q120 0 186 -75t66 -194q0 -169 -110.5 -296.5t-264.5 -127.5q-121 0 -184.5 72t-63.5 191q0 112 49 211 t135 159t187 60z"/>
<glyph glyph-name="Pi" horiz-adv-x="688" unicode="Π" d="M491 90l97 550h-327q-16 -94 -47.5 -270t-39.5 -224l-10 -61q-1 -4 -1 -11q0 -23 18 -31t36 -12t18 -16q0 -2 -2 -15h-242l2 12q2 12 14.5 17.5t27 7.5t29 15t18.5 38l87 494q1 4 1 11q0 18 -12 28t-26 12t-26 7t-12 14q0 2 2 17h662l-2 -13q-2 -12 -15.5 -18t-29.5 -8 t-31 -14t-19 -36q-13 -76 -43 -242.5t-45 -255.5q-1 -5 -1 -12q0 -18 11.5 -27t25 -10t25 -6t11.5 -15q0 -3 -2 -16h-240l2 12q2 12 14 18t26 8t28 15t18 37z"/>
<glyph glyph-name="Rho" horiz-adv-x="543" unicode="Ρ" d="M106 673h242q103 0 164 -45.5t61 -123.5q0 -59 -27 -104t-70.5 -70t-90.5 -37.5t-95 -12.5q-42 0 -87 8l-36 -201q-1 -5 -1 -13q0 -23 19 -31t38 -12t19 -16q0 -2 -2 -15h-250l2 12q2 12 15 17.5t28 7t29.5 14.5t19.5 39l86 487q1 5 1 14q0 25 -16.5 35t-33.5 14t-17 14 q0 5 2 19zM266 642l-57 -325q32 -8 73 -8q81 0 140.5 53.5t59.5 144.5q0 71 -47 103t-113 32h-56z"/>
<glyph glyph-name="Sigma" horiz-adv-x="605" unicode="Σ" d="M365 372l-275 -295h277q73 0 106.5 22.5t86.5 117.5q12 24 26 24l2 -1h3l9 -2l-90 -235l-9 -7q-102 4 -271 4h-236l4 28l277 297l-163 316l5 33h266q128 0 204 9l9 -5l-12 -188l-8 -1q-18 -3 -22 16q-22 88 -35 107q-18 26 -70 29q-13 1 -32 1h-190z"/>
<glyph glyph-name="Tau" horiz-adv-x="588" unicode="Τ" d="M102 676q4 3 12 7q76 -9 254 -9q176 0 260 9q6 -4 9 -7l-14 -188h-8q-15 0 -19 16q-20 93 -40 115.5t-91 22.5h-59l-97 -548q-2 -8 -2 -18q0 -18 12 -27.5t26 -11.5t25 -7.5t9 -17.5l-2 -12h-245l2 12q2 13 14.5 19t27.5 7.5t29 14t19 37.5l98 552h-59q-73 0 -101 -22.5 t-78 -115.5q-9 -18 -22 -18q-2 0 -13 2q41 143 53 188z"/>
<glyph glyph-name="Upsilon" horiz-adv-x="547" unicode="Υ" d="M310 340h6l127 191q30 46 33 69q0 2 0.5 4t0.5 3q0 12 -8 20t-18 11t-18 8t-8 12q0 11 2 16h199l-2 -12q-2 -13 -13.5 -19t-27.5 -10t-42.5 -26.5t-52.5 -61.5l-163 -243l-38 -217q-1 -4 -1 -12q0 -17 12 -26t26 -10t25 -6.5t9 -17.5q-1 -10 -2 -13h-246l2 12q2 12 15 18 t28 8t30 14.5t19 37.5l37 205l-91 268q-9 28 -24 45.5t-26.5 22.5t-20 11.5t-8.5 16.5q0 2 0.5 7.5t0.5 7.5h225l-2 -12q-2 -15 -30.5 -25t-31.5 -29v-5q0 -15 6 -31l44 -136q18 -55 27 -96z"/>
<glyph glyph-name="Phi" horiz-adv-x="752" unicode="Φ" d="M141 300q0 -72 45.5 -118t124.5 -53l74 421q-100 -8 -172 -83t-72 -167zM469 552l-75 -423q111 7 183 81t72 173q0 73 -48 117.5t-132 51.5zM389 99l-2 -11q-2 -10 -2 -17q0 -17 11.5 -26t25 -10.5t25 -6t11.5 -13.5q0 -2 -2 -15h-246l2 12q2 12 14.5 17.5t27 7t29 14.5 t20.5 38l2 9q-124 11 -190 65t-66 140q0 111 100 188.5t242 89.5q1 4 1 12q0 16 -10.5 25.5t-23.5 13t-23.5 9.5t-10.5 15q0 2 2 17h248l-2 -13q-2 -12 -16.5 -18t-31 -8t-32 -15t-18.5 -38q124 -6 196 -62t72 -148q0 -115 -100 -189.5t-253 -82.5z"/>
<glyph glyph-name="Chi" horiz-adv-x="593" unicode="Χ" d="M359 130l-69 173l-129 -164q-44 -56 -44 -81q0 -17 26 -24t26 -23q0 -2 -0.5 -6t-0.5 -5h-202q0 17 8 24.5t20 10t33.5 14.5t42.5 34q40 40 65 71l144 175l-88 208q-16 37 -35.5 60.5t-33.5 31t-24 14t-10 14.5q0 4 3 17h229l-2 -13q-2 -15 -28 -23.5t-27 -30.5 q0 -27 16 -64l60 -146l101 131q45 58 45 80q0 11 -8 18t-17 9.5t-17 8.5t-8 15q0 2 2 15h215l-2 -11q-4 -15 -16 -21.5t-30 -10t-52.5 -30t-73.5 -74.5l-127 -159l88 -212q21 -50 45 -79t40.5 -34.5t28 -11t11.5 -15.5q0 -6 -2 -16h-254l2 13q2 11 17.5 16.5t29.5 14.5 t14 31q0 25 -12 55z"/>
<glyph glyph-name="Psi" horiz-adv-x="783" unicode="Ψ" d="M432 231q53 5 92 25.5t62.5 54.5t36.5 71t22 87l34 192l9 13h141l-2 -12q-2 -12 -13 -18.5t-23.5 -9.5t-25 -15.5t-16.5 -35.5l-19 -111q-21 -128 -95 -196t-208 -77l-20 -111q-1 -5 -1 -13q0 -18 12 -27.5t26 -11t25 -7t9 -17.5l-2 -12h-246l2 12q2 12 15.5 18t28.5 7.5 t30 14.5t19 38l19 109q-105 8 -160.5 61t-55.5 144q0 33 5 59l22 125q1 5 1 13q0 15 -9 23.5t-19.5 10t-18.5 7t-6 16.5l2 12l143 10l6 -12l-33 -190q-8 -45 -8 -81q0 -150 137 -166l61 351q1 5 1 13q0 18 -11.5 28t-25 12t-23.5 8t-8 18l2 12h248l-2 -12q-2 -12 -16.5 -18 t-30.5 -8t-31.5 -14.5t-19.5 -36.5z"/>
<glyph glyph-name="alpha" horiz-adv-x="523" unicode="α" d="M153 -11q-118 0 -118 153q0 72 26 140.5t82 117.5t129 49q72 0 125 -49l57 47h21q-45 -153 -81 -398q1 0 22 13.5t42 26.5t22 14l14 -17q-40 -43 -76 -69.5t-54 -26.5q-45 0 -45 45q0 50 20 118h-4q-76 -164 -182 -164zM181 37q48 0 107 87t81 200l9 47q-45 42 -94 42 q-71 0 -119 -80.5t-48 -194.5q0 -101 64 -101z"/>
<glyph glyph-name="beta" horiz-adv-x="476" unicode="β" d="M193 405l7 9q86 10 137.5 65t51.5 132q0 86 -75 86q-49 0 -82.5 -37.5t-46.5 -108.5q-16 -81 -49 -252t-48 -245q49 -33 98 -33q73 0 122 70t49 164q0 63 -41 97.5t-121 35.5zM84 21l-5 -4l-34 -197q-31 -19 -73 -26l-7 8q24 122 68.5 345.5t57.5 287.5l14 70 q18 91 83.5 159t142.5 68q134 0 134 -130q0 -75 -52.5 -130t-134.5 -63q0 -1 -0.5 -2t-0.5 -2q81 -1 120 -45.5t39 -111.5q0 -111 -70 -185t-166 -74q-68 0 -116 32z"/>
<glyph glyph-name="gamma" horiz-adv-x="430" unicode="γ" d="M197 61h4q44 56 67.5 89.5t54.5 89t50 110.5q-19 3 -35 20.5t-16 43.5q0 8 3 17t13.5 18.5t26.5 9.5q20 0 34.5 -16.5t14.5 -42.5q0 -74 -67 -183.5t-157 -205.5q-31 -164 -47 -216q-29 -18 -76 -26l-7 8q70 236 70 417q0 128 -25 198l-82 -78q-3 3 -10 8.5t-9 6.5 q72 120 119 120q25 0 38 -13.5t24 -39.5q20 -54 20 -173q0 -76 -8 -162z"/>
<glyph glyph-name="delta" horiz-adv-x="480" unicode="δ" d="M333 734q56 0 95.5 -25.5t39.5 -64.5q0 -23 -12.5 -39t-30.5 -16q-21 0 -32 13t-11 33q0 34 26 52q-36 18 -74 18q-45 0 -80 -28t-35 -81q0 -29 23.5 -54t56.5 -47t66.5 -49t57 -73t23.5 -105q0 -107 -73 -193t-177 -86q-82 0 -123.5 47t-41.5 121q0 102 56 182t146 105 l3 4q-90 52 -90 128q0 68 54 113t133 45zM205 19q64 0 113 79t49 173q0 109 -100 157q-62 -18 -110 -101t-48 -190q0 -118 96 -118z"/>
<glyph glyph-name="epsilon" horiz-adv-x="393" unicode="ε" d="M29 90q0 16 8 36.5t25 44.5t53.5 41t85.5 20v4q-66 3 -94 29t-28 60q0 45 45 84t136 39q52 0 90.5 -22t38.5 -61q0 -20 -11.5 -33t-29.5 -13q-21 0 -31.5 12.5t-10.5 31.5q0 27 15 43q-23 11 -54 11q-47 0 -78 -24.5t-31 -66.5q0 -76 127 -76l4 -4l-7 -24 q-74 -3 -123.5 -37t-49.5 -96q0 -65 76 -65q86 0 168 51l12 -18q-88 -70 -202 -70q-62 0 -98 25t-36 78z"/>
<glyph glyph-name="zeta" horiz-adv-x="349" unicode="ζ" d="M524 702l4 -4l-7 -24q-413 -327 -413 -487q0 -40 35.5 -70t77.5 -44.5t77.5 -37.5t35.5 -50q0 -71 -156 -137l-12 22q88 61 88 94q0 13 -23 24.5t-56 23.5t-66 29.5t-56 50t-23 76.5q0 51 43 120t109.5 136.5t135.5 125.5t133 101l-1 3q-25 -16 -85 -29t-106 -13 q-79 0 -79 51q0 32 26 67l17 1q21 -66 133 -66q65 0 168 37z"/>
<glyph glyph-name="eta" horiz-adv-x="497" unicode="η" d="M160 451q48 0 48 -48q0 -59 -40 -183h4q48 122 106 175.5t101 53.5q76 0 76 -74q0 -28 -7 -59l-91 -424q3 1 44.5 27t42.5 27l13 -18q-39 -42 -76.5 -69.5t-55.5 -27.5q-43 0 -43 38q0 14 4 30l80 374q11 44 11 70q0 48 -38 48q-46 0 -109.5 -109.5t-86.5 -227.5l-11 -54 h-74l75 393l-89 -63l-15 18q89 103 131 103z"/>
<glyph glyph-name="theta" horiz-adv-x="481" unicode="θ" d="M317 700q-45 0 -83.5 -50t-60.5 -115.5t-38 -145.5h253q15 93 15 159q0 152 -86 152zM194 20q122 0 189 340h-253q-22 -117 -22 -188q0 -152 86 -152zM326 732q77 0 114 -58t37 -161q0 -134 -39 -254.5t-106.5 -195t-144.5 -74.5q-76 0 -114 58t-38 161q0 133 40 254 t107.5 195.5t143.5 74.5z"/>
<glyph glyph-name="iota" horiz-adv-x="272" unicode="ι" d="M106 -11q-21 0 -30.5 8t-9.5 31q0 19 4 40l63 324l-89 -62l-16 17q89 103 133 103q46 0 46 -49q0 -13 -6 -49q-10 -53 -31 -155t-30 -147l85 53l13 -17q-39 -42 -76.5 -69.5t-55.5 -27.5z"/>
<glyph glyph-name="kappa" horiz-adv-x="479" unicode="κ" d="M160 451q48 0 48 -49q0 -48 -51 -211h4q35 109 101 184t152 75q27 0 48 -12.5t21 -37.5q0 -21 -13.5 -32.5t-30.5 -11.5q-27 0 -41 17.5t-14 42.5q-75 -15 -137 -102q46 -180 108 -275l88 64l14 -17q-81 -97 -126 -97q-42 0 -78 81.5t-52 161.5q-41 -92 -61 -198l-7 -34 h-75l75 393l-89 -63l-15 18q89 103 131 103z"/>
<glyph glyph-name="lambda" horiz-adv-x="455" unicode="λ" d="M359 59l69 58l18 -13q-76 -115 -116 -115q-20 0 -30 15.5t-13 55.5q-1 5 -8 88.5t-14 169.5t-7 88h-4l-200 -408q-24 -5 -72 -10l-7 7l263 445h18l-22 236q-13 -13 -88 -63l-17 16q77 101 131 101q47 0 51 -66q2 -16 24.5 -303.5t23.5 -301.5z"/>
<glyph glyph-name="nu" horiz-adv-x="432" unicode="ν" d="M126 449q15 0 25.5 -5t15.5 -16t7 -19t4 -22q19 -147 25 -314h4q49 54 98 132.5t71 145.5q-24 5 -37.5 23.5t-13.5 39.5q0 18 11 31.5t31 13.5q22 0 36 -17t14 -44q0 -77 -79.5 -199.5t-169.5 -207.5h-33q-5 213 -32 401q-6 -6 -40 -43.5t-35 -38.5l-19 13 q72 126 117 126z"/>
<glyph glyph-name="xi" horiz-adv-x="365" unicode="ξ" d="M329 733q56 0 93.5 -23t37.5 -60q0 -20 -12 -33.5t-33 -13.5q-18 0 -28 13.5t-10 32.5q0 23 13 42q-23 12 -52 12q-55 0 -102.5 -36.5t-47.5 -112.5q0 -58 49.5 -87t137.5 -29l4 -6l-10 -24q-104 -1 -181 -60t-77 -137q0 -37 24 -67t58.5 -49t69.5 -35.5t59 -35t24 -39.5 q0 -36 -42.5 -71.5t-112.5 -65.5l-11 20q88 60 88 92q0 13 -24 27t-58.5 29t-68.5 35t-58 55t-24 80q0 78 58.5 143.5t151.5 82.5l1 4q-67 4 -101.5 41.5t-34.5 89.5q0 83 66.5 134.5t152.5 51.5z"/>
<glyph glyph-name="omicron" horiz-adv-x="480" unicode="ο" d="M272 418q-37 0 -68.5 -27.5t-50 -70t-29 -90t-10.5 -90.5q0 -121 82 -121q53 0 94 50t58.5 111t17.5 115q0 123 -94 123zM278 449q79 0 123 -48t44 -125q0 -113 -77 -200t-180 -87q-153 0 -153 174q0 115 70.5 200.5t172.5 85.5z"/>
<glyph glyph-name="pi" horiz-adv-x="499" unicode="π" d="M489 389q-9 0 -28 0.5t-29 0.5l-68 -340l85 53l13 -17q-39 -42 -76.5 -69t-56.5 -27q-20 0 -29.5 7.5t-9.5 29.5q0 15 4 34l64 329l-177 6q-10 -58 -38.5 -206t-32.5 -176q-29 -17 -73 -25l-8 7l79 399l-75 3l8 28l9 9l458 4l5 -10q-10 -25 -24 -40z"/>
<glyph glyph-name="rho" horiz-adv-x="479" unicode="ρ" d="M283 450q79 0 120 -45t41 -128q0 -70 -27.5 -134t-87.5 -109t-142 -45q-66 0 -117 31q-4 -22 -13 -89t-19 -121q-29 -17 -73 -24l-1 2q-2 3 -3 5q14 68 38.5 194.5t34.5 178.5l13 64q19 95 81 157.5t155 62.5zM271 418q-53 0 -93.5 -41.5t-55.5 -110.5q-8 -38 -22 -111.5 t-19 -98.5q37 -34 100 -34q76 0 129.5 72.5t53.5 194.5q0 129 -93 129z"/>
<glyph glyph-name="sigma1" horiz-adv-x="408" unicode="ς" d="M35 197q0 77 39 136t94.5 87t113.5 28t96 -22.5t38 -60.5q0 -21 -12 -35.5t-33 -14.5t-32.5 14.5t-11.5 34.5q0 22 12 42q-17 10 -50 10q-80 0 -129.5 -54t-49.5 -141q0 -39 20.5 -70t50 -50.5t59.5 -36.5t50.5 -37t20.5 -43q0 -72 -151 -135l-12 20q87 64 87 94 q0 16 -31.5 35.5t-68.5 39.5t-68.5 62t-31.5 97z"/>
<glyph glyph-name="sigma" horiz-adv-x="495" unicode="σ" d="M269 405q-52 0 -89.5 -45.5t-52.5 -105t-15 -120.5q0 -117 90 -117q71 0 119.5 86t48.5 178q0 124 -101 124zM396 391l-2 -3q53 -41 53 -126q0 -103 -71 -188t-182 -85q-79 0 -119.5 48t-40.5 123q0 126 69 201t170 75h68q75 0 163 4l6 -9q-6 -18 -23 -46z"/>
<glyph glyph-name="tau" horiz-adv-x="316" unicode="τ" d="M74 78q12 61 33 174.5t27 143.5l-110 4l7 28q6 4 9 7l295 4l6 -10q-7 -17 -25 -39l-108 4l-66 -344q17 11 50.5 32.5t50.5 32.5l13 -17q-39 -44 -84 -76.5t-64 -32.5q-20 0 -30 8t-10 30q0 21 6 51z"/>
<glyph glyph-name="upsilon" horiz-adv-x="502" unicode="υ" d="M89 180l44 212q-73 -49 -89 -62q0 1 -7 9t-8 9q38 45 75 74t59 29q46 0 46 -42q0 -17 -7 -50l-46 -217q-5 -23 -5 -44q0 -79 68 -79q49 0 89.5 47t61 110.5t20.5 122.5q0 79 -53 128l12 25q61 -9 89.5 -53.5t28.5 -103.5q0 -115 -74.5 -210.5t-182.5 -95.5q-58 0 -93 30 t-35 95q0 31 7 66z"/>
<glyph glyph-name="phi" horiz-adv-x="589" unicode="φ" d="M276 -13q-16 -96 -32 -177q-21 -13 -73 -23l-5 5q2 8 21.5 99t20.5 96q-86 2 -129.5 51t-43.5 125q0 89 54 172t157 113q0 -1 3 -11.5t4 -11.5q-58 -34 -99 -101.5t-41 -174.5q0 -125 100 -129l46 236q15 79 41 113q23 30 62.5 55t77.5 25q58 0 86.5 -41.5t28.5 -106.5 q0 -116 -77.5 -208.5t-201.5 -105.5zM421 413q-31 0 -52 -27.5t-27 -61.5l-60 -305q66 8 112 59.5t64.5 113.5t18.5 126q0 95 -56 95z"/>
<glyph glyph-name="chi" horiz-adv-x="458" unicode="χ" d="M164 446q22 0 34 -12t23 -45q12 -36 36 -116q56 103 91 141t70 38q24 0 41.5 -12.5t17.5 -32.5t-13 -31.5t-32 -11.5q-21 0 -35 13.5t-17 32.5q-39 -30 -111 -176q48 -162 57 -188l78 69l18 -14q-23 -38 -58.5 -75t-64.5 -37q-22 0 -34 13t-24 46q-9 25 -39 130 q-61 -115 -98 -156t-74 -41q-25 0 -42 13t-17 33t13.5 31.5t32.5 11.5q21 0 34.5 -13.5t17.5 -32.5q41 32 121 195q-8 25 -24 82t-26 87l-78 -72l-18 15q27 43 61 79t59 36z"/>
<glyph glyph-name="psi" horiz-adv-x="623" unicode="ψ" d="M307 -9l-20 -100q-2 -10 -2 -15q0 -18 13.5 -28.5t29.5 -13t29.5 -7t13.5 -13.5q0 -1 -2 -16h-248l2 14q2 12 22 16t42.5 17.5t28.5 47.5l19 98q-77 7 -116.5 50t-39.5 117q0 34 7 68l32 166l-89 -62l-15 17q90 104 134 104q46 0 46 -41q0 -16 -7 -48l-35 -166 q-7 -33 -7 -53q0 -102 96 -124q59 308 82 421q4 24 4 31q0 17 -16.5 25.5t-33.5 13.5t-17 13q0 3 3 16q66 9 152 23l4 -5l-105 -538q63 11 102.5 61t52.5 120q3 17 9 50q7 41 11 60t11 48t13.5 41t17 26t23.5 19t31 5q21 0 58 -11l-5 -26q-33 0 -47 -15.5t-21 -52.5 l-23 -113q-21 -103 -82.5 -166.5t-157.5 -73.5z"/>
<glyph glyph-name="afii10023" horiz-adv-x="590" unicode="Ё" d="M478 839q16 0 27 -11t11 -28q0 -23 -17 -40.5t-39 -17.5q-17 0 -28 11.5t-11 28.5q0 22 18 39.5t39 17.5zM310 839q16 0 26.5 -11t10.5 -28q0 -23 -16.5 -40.5t-37.5 -17.5q-18 0 -28.5 11t-10.5 29q0 22 17.5 39.5t38.5 17.5zM228 32h85q72 0 119.5 40.5t103.5 138.5 q10 21 25 21h4l12 -3l-87 -226q-1 -1 -2 -2.5t-2.5 -2.5t-2.5 -2q-176 4 -193 4h-295l2 15q2 11 14 16t26 7t28.5 17t19.5 44l84 478q1 5 1 14q0 20 -10.5 30.5t-23 12.5t-23 7t-10.5 14t2 19h208q96 0 267 8l4 -5l-13 -177q-4 -1 -10 -1q-17 0 -21 17q-21 87 -42 106 t-92 19h-143l-48 -271h100q35 0 57 17.5t28.5 38t15 38t19.5 17.5h10l-46 -266h-8q-12 0 -16 19t-4 42t-14.5 42t-46.5 19h-101l-42 -242q-2 -14 -2 -19q0 -44 63 -44z"/>
<glyph glyph-name="afii10051" horiz-adv-x="732" unicode="Ђ" d="M445 -20l2 -3q52 6 98 72.5t46 161.5q0 71 -41.5 108t-104.5 37q-48 0 -111 -21q-8 -41 -22 -124t-21 -125q-2 -14 -2 -19q0 -12 6 -19.5t13 -9t13 -6.5t6 -13q0 -4 -2 -19h-210l2 12q2 11 10 16t24 9t23 7t12 7t9 10.5t6.5 11t4.5 13t3 12.5t2.5 15t2.5 14l91 515h-43 q-73 0 -101 -22.5t-78 -115.5q-8 -18 -25 -18l-10 2q41 143 53 188q4 3 12 7q77 -9 253 -9h7q154 0 255 9q6 -4 9 -7l-14 -188q-2 0 -5 -0.5t-4 -0.5q-15 0 -19 17q-11 51 -17 72t-20.5 39.5t-34.5 22.5t-58 4h-76l-49 -276q71 30 143 30q85 0 144 -47.5t59 -134.5 q0 -100 -74 -182.5t-178 -82.5q-32 0 -55 17.5t-23 47.5q0 22 12 37t34 15q23 0 36.5 -16t13.5 -40q0 -12 -7 -30z"/>
<glyph glyph-name="afii10052" horiz-adv-x="544" unicode="Ѓ" d="M266 641l-98 -553q-1 -4 -1 -12q0 -18 12.5 -27.5t27 -11t25.5 -7.5t9 -18l-2 -12h-247l2 12q2 12 15 18.5t28 8.5t29.5 14.5t18.5 36.5l85 475q3 15 3 26q0 25 -16.5 35t-33.5 14t-17 15q0 9 2 19h208q106 0 277 8l4 -5l-13 -177q-4 -1 -10 -1q-17 0 -21 17 q-21 87 -42 106t-92 19h-153zM311 737l-5 22q50 24 84.5 54t52 45.5t39.5 15.5q14 0 20.5 -9.5t6.5 -21.5q0 -14 -15.5 -33t-63.5 -41.5t-119 -31.5z"/>
<glyph glyph-name="afii10053" horiz-adv-x="618" unicode="Є" d="M418 683q97 0 171 -54l32 54h17l-38 -216h-9q-14 0 -19.5 19t-9.5 46t-14.5 54t-43 46t-85.5 19q-103 0 -169 -78.5t-88 -206.5q100 4 300 14l-9 -53l-297 2q-5 -36 -5 -86q0 -222 163 -222q53 0 93 16.5t61.5 42t38.5 54.5t25 54.5t19 42t24 16.5h9l-26 -159 q-78 -60 -135.5 -79t-123.5 -19q-118 0 -181.5 75t-63.5 197q0 178 103 299.5t261 121.5z"/>
<glyph glyph-name="afii10054" horiz-adv-x="504" unicode="Ѕ" d="M194 -10q-80 0 -134.5 30.5t-54.5 78.5q0 31 15 45.5t36 14.5q24 0 38 -16.5t14 -42.5q0 -35 -18 -57q39 -23 108 -23q74 0 132 39.5t58 113.5q0 43 -30 76.5t-73 57t-86.5 47.5t-73.5 58.5t-30 78.5q0 94 67.5 143t162.5 49q74 0 124.5 -29.5t50.5 -77.5 q0 -25 -12.5 -42t-36.5 -17q-26 0 -40 17.5t-14 43.5q0 32 18 54q-41 18 -87 18q-36 0 -68 -11t-57 -40t-25 -72q0 -35 30.5 -64.5t73.5 -52t86 -48t73.5 -65t30.5 -88.5q0 -57 -25 -100.5t-66.5 -68.5t-89 -37.5t-97.5 -12.5z"/>
<glyph glyph-name="afii10055" horiz-adv-x="334" unicode="І" d="M268 584l-87 -496q-1 -4 -1 -12q0 -18 12.5 -27.5t27 -11t25.5 -7.5t9 -18l-2 -12h-247l2 12q2 12 15 18.5t28 8.5t29.5 14.5t18.5 36.5l87 492q1 5 1 14q0 18 -11 27.5t-24.5 11.5t-23 8t-7.5 18l2 12h248l-2 -12q-2 -12 -16.5 -18t-31 -8t-32.5 -14.5t-20 -36.5z"/>
<glyph glyph-name="afii10056" horiz-adv-x="334" unicode="Ї" d="M355 815q16 0 27 -12t11 -29q0 -22 -17 -39t-38 -17q-17 0 -28 11t-11 28q0 23 17 40.5t39 17.5zM188 815q16 0 27 -12t11 -29q0 -22 -17 -39t-38 -17q-17 0 -28 11t-11 28q0 23 17 40.5t39 17.5zM268 584l-87 -496q-1 -4 -1 -12q0 -18 12.5 -27.5t27 -11t25.5 -7.5 t9 -18l-2 -12h-247l2 12q2 12 15 18.5t28 8.5t29.5 14.5t18.5 36.5l87 492q1 5 1 14q0 18 -11 27.5t-24.5 11.5t-23 8t-7.5 18l2 12h248l-2 -12q-2 -12 -16.5 -18t-31 -8t-32.5 -14.5t-20 -36.5z"/>
<glyph glyph-name="afii10057" horiz-adv-x="325" unicode="Ј" d="M270 585q-84 -477 -90 -506q-18 -87 -72 -156q-102 -131 -187 -131q-33 0 -50.5 17t-17.5 38q0 23 14.5 39t41.5 16q26 0 46 -19t23 -48q55 39 80.5 99t48.5 192l72 406q9 47 9 64q0 23 -17.5 33t-35 15t-17.5 16q0 1 2 14h251l-2 -12q-2 -12 -16.5 -18t-31 -8t-32 -14.5 t-19.5 -36.5z"/>
<glyph glyph-name="afii10058" horiz-adv-x="913" unicode="Љ" d="M554 353l-39 -226q-6 -38 -6 -49q0 -24 16 -35t62 -11q49 0 94 19t78.5 65.5t33.5 111.5q0 70 -47 101.5t-121 31.5q-29 0 -71 -8zM337 0l1 12q2 12 14.5 18t26.5 8t28 15t18 37l98 551h-172q-24 -119 -44.5 -206t-50 -177.5t-60.5 -147t-73 -92.5t-91 -36 q-28 0 -47.5 15t-19.5 39q0 27 18 40.5t37 13.5q24 0 44 -16.5t24 -43.5q107 77 195 464q20 86 20 100q0 18 -12 27.5t-27 12t-27.5 9t-12.5 17.5l2 14h466l-2 -13q-2 -12 -15.5 -18t-29 -8t-31 -14t-19.5 -36l-36 -199q60 12 107 12q93 0 155 -41.5t62 -129.5 q0 -37 -14.5 -74.5t-44.5 -73t-85 -57.5t-126 -22h-276z"/>
<glyph glyph-name="afii10059" horiz-adv-x="890" unicode="Њ" d="M544 349l-38 -220q-7 -35 -7 -51q0 -24 16 -35t61 -11q33 0 66 11t64 33t50 61t19 88q0 69 -46.5 100t-116.5 31q-31 0 -68 -7zM594 0h-270l2 12q2 12 14.5 17.5t27 7t28.5 15t19 40.5l45 253h-254l-46 -257q-1 -5 -1 -13q0 -23 18 -31t36 -12t18 -16q0 -1 -1 -7.5 t-1 -8.5h-239l2 12q2 13 14.5 18.5t26.5 7t28 14.5t18 38l86 492q1 5 1 13q0 18 -10.5 27.5t-23 12t-21.5 8.5t-7 17q1 10 2 13h241l-2 -12q-2 -13 -16.5 -19t-30.5 -8t-31.5 -14.5t-19.5 -36.5l-36 -206h254l37 205q1 5 1 13q0 18 -11.5 27.5t-25.5 11.5t-24 8t-8 18l2 13 h249l-2 -12q-2 -13 -16.5 -19t-30.5 -8t-32 -14.5t-20 -36.5l-35 -201q50 10 100 10q40 0 76 -8t68.5 -26.5t52 -53t19.5 -81.5q0 -37 -14.5 -74t-44 -71.5t-84.5 -56t-128 -21.5z"/>
<glyph glyph-name="afii10060" horiz-adv-x="748" unicode="Ћ" d="M638 211l-21 -123q-3 -15 -3 -16q0 -17 11.5 -25t25.5 -9.5t25.5 -6.5t11.5 -15q0 -3 -2 -16h-239l2 12q2 12 14 18t26 8t28 15t18 37l19 109q4 20 4 41q0 54 -28.5 85.5t-81.5 31.5t-115 -23l-44 -248q-1 -4 -1 -12q0 -17 11 -26t24.5 -10.5t24.5 -7t11 -15.5 q0 -2 -2 -15h-244l2 12q2 12 15 18.5t28 8.5t29.5 14.5t18.5 36.5q33 184 97 552h-40q-73 0 -101 -22t-77 -115q-10 -19 -22 -19q-3 0 -13 3q17 63 53 187q4 3 12 7q75 -9 235 -9q194 0 279 9q6 -4 9 -7l-14 -187h-12q-12 0 -16 16q-7 35 -11 51.5t-11.5 36t-14.5 26 t-20.5 13.5t-30 8.5t-42.5 1.5h-79l-49 -279q78 39 157 39q70 0 108.5 -39t38.5 -107q0 -24 -4 -45z"/>
<glyph glyph-name="afii10061" horiz-adv-x="610" unicode="Ќ" d="M209 338l-44 -242q-2 -10 -2 -21q0 -18 11.5 -27.5t25 -11t25 -6.5t11.5 -15q0 -2 -2 -15h-244l2 12q2 12 15 18t27.5 7.5t29 14.5t18.5 38l87 491q1 5 1 13q0 18 -10.5 28t-23 12t-23 7t-10.5 15l1 1q0 1 0.5 5t1.5 11h246l-2 -13q-2 -12 -16.5 -18t-31 -8t-32 -14.5 t-19.5 -36.5l-37 -213h25q78 0 119.5 39t112.5 166q14 25 24 40.5t26.5 34t37 28t43.5 9.5t40 -13t17 -35q0 -20 -18 -36.5t-40 -16.5q-43 0 -58 40q-15 -15 -39.5 -57t-46.5 -81.5t-56.5 -77.5t-70.5 -52v-2l-1 -2q59 -9 85 -52.5t68 -185.5q15 -50 33.5 -67t54.5 -21v-29 q-36 -10 -62 -10q-22 0 -38 5t-29.5 20t-22.5 28.5t-19 44t-16 52.5t-18 68q-21 84 -45 107.5t-80 23.5h-31zM341 737l-5 22q50 24 84.5 54t52 45.5t39.5 15.5q14 0 20.5 -9.5t6.5 -21.5q0 -14 -15.5 -33t-63.5 -41.5t-119 -31.5z"/>
<glyph glyph-name="afii10062" horiz-adv-x="589" unicode="Ў" d="M111 -28q-30 0 -48.5 15.5t-18.5 38.5q0 26 16.5 40t41.5 14q24 0 42 -17t22 -38q36 23 80 94l-89 439q-6 31 -21.5 50t-29.5 24t-24 12t-8 18l2 12h230l-2 -14q-2 -11 -18 -15.5t-30.5 -13.5t-14.5 -33q0 -5 2 -21l64 -354h5l189 330q19 33 19 50q0 14 -9 23t-19.5 12 t-19 8.5t-7.5 13.5l2 14h202l-2 -13q-2 -11 -14 -16.5t-28 -9.5t-38.5 -23t-42.5 -52l-251 -425q-53 -90 -94.5 -126.5t-87.5 -36.5zM563 862l18 -17q-101 -114 -209 -114q-42 0 -65.5 19.5t-23.5 49.5q0 29 18.5 48t42.5 19q23 0 34.5 -16t11.5 -39q0 -19 -8 -37 q86 0 181 87z"/>
<glyph glyph-name="afii10145" horiz-adv-x="693" unicode="Џ" d="M465 32q25 142 89 501q9 57 9 60q0 17 -10 27t-22.5 13t-22.5 8.5t-10 14.5q0 2 2 17h245l-2 -13q-2 -12 -16 -18t-30 -8t-31.5 -14t-19.5 -36l-88 -497q-1 -5 -1 -12q0 -23 18.5 -31t36.5 -11.5t18 -16.5q0 -3 -2 -16h-234q-32 0 -44.5 -9.5t-22.5 -43.5l-39 -134h-27 q0 15 1 41.5t1.5 48.5t0.5 42q0 36 -9 45.5t-46 9.5h-218l2 12q2 12 15 17.5t27.5 7.5t29 15t18.5 38l87 492q1 5 1 13q0 15 -10.5 24.5t-22.5 13t-22.5 9.5t-10.5 15q0 2 2 16h245l-2 -13q-2 -12 -16 -18t-30.5 -8t-32 -14.5t-19.5 -36.5l-96 -551h309z"/>
<glyph glyph-name="afii10017" horiz-adv-x="632" unicode="А" d="M355 569h-4q-20 -37 -79 -150t-92 -175h230l-27 135q-20 104 -28 190zM164 214q-64 -116 -64 -143q0 -15 9.5 -24t21.5 -11.5t21.5 -7.5t9.5 -12q0 -8 -2 -16h-199l2 13q2 11 13.5 16.5t26.5 9.5t36.5 23.5t39.5 52.5q133 254 299 563q11 1 32 1l110 -568q6 -34 19.5 -53 t25.5 -23t21 -9t9 -14q0 -3 -0.5 -7t-0.5 -5h-221l1 8q2 13 12.5 19.5t22.5 8t21.5 12.5t9.5 33q0 5 -2 21l-21 112h-253z"/>
<glyph glyph-name="afii10018" horiz-adv-x="573" unicode="Б" d="M259 640l-45 -253q66 11 116 11q93 0 155 -41.5t62 -129.5q0 -37 -15.5 -75t-46.5 -73t-86.5 -57t-126.5 -22h-282l2 12q2 12 14 17.5t26.5 7t28.5 15t19 40.5l79 434q8 48 8 68q0 22 -16.5 31.5t-33.5 14t-17 15.5q0 4 2 18q334 0 461 8l3 -5l-13 -176q-2 0 -7 -0.5 t-6 -0.5q-14 0 -18 16q-20 87 -41.5 106t-92.5 19h-129zM210 353l-39 -225q-6 -38 -6 -50q0 -24 16 -35t62 -11q36 0 72.5 11.5t69 34t52.5 61.5t20 89q0 70 -47 101.5t-121 31.5q-39 0 -79 -8z"/>
<glyph glyph-name="afii10019" horiz-adv-x="593" unicode="В" d="M210 353l-40 -228q-5 -27 -5 -43q0 -25 15.5 -37.5t54.5 -12.5h19q51 0 96.5 18t79 62.5t33.5 109.5q0 39 -16.5 67t-43 41t-50.5 18t-48 5h-95zM289 0h-297l2 15q1 10 13 15t26.5 7t29 17.5t19.5 44.5l75 420q11 63 11 72q0 19 -10.5 29.5t-23.5 13t-23.5 7.5t-10.5 14 q0 2 4 19h268q97 0 149 -40.5t52 -97.5q0 -73 -60 -116.5t-128 -46.5v-4q81 -4 125 -51t44 -111q0 -33 -17 -68.5t-48.5 -67t-84 -51.5t-115.5 -20zM261 641l-46 -257h85q24 0 50.5 5.5t59.5 20.5t54 48t21 81q0 53 -42.5 77.5t-98.5 24.5h-83z"/>
<glyph glyph-name="afii10020" horiz-adv-x="544" unicode="Г" d="M266 641l-98 -553q-1 -4 -1 -12q0 -18 12.5 -27.5t27 -11t25.5 -7.5t9 -18l-2 -12h-247l2 12q2 12 15 18.5t28 8.5t29.5 14.5t18.5 36.5l85 475q3 15 3 26q0 25 -16.5 35t-33.5 14t-17 15q0 9 2 19h208q106 0 277 8l4 -5l-13 -177q-4 -1 -10 -1q-17 0 -21 17 q-21 87 -42 106t-92 19h-153z"/>
<glyph glyph-name="afii10021" horiz-adv-x="674" unicode="Д" d="M517 33h76l7 -7q-39 -154 -53 -210q-1 0 -5 -0.5t-5 -0.5q-16 0 -16 17v113q0 35 -12 45t-47 10h-361q-32 0 -46.5 -11t-25.5 -44l-38 -113q-6 -17 -20 -17q-2 0 -6 0.5t-6 0.5l20 209l8 7h63q58 63 114.5 201t97.5 348q2 10 2 16q0 17 -12.5 26t-27.5 11t-27.5 7.5 t-12.5 15.5q0 8 2 16h526l-2 -13q-2 -12 -15.5 -18t-29.5 -8t-31 -14t-19 -36zM263 428q-65 -257 -171 -396h343q29 167 107 608h-233q-18 -102 -46 -212z"/>
<glyph glyph-name="afii10022" horiz-adv-x="590" unicode="Е" d="M228 32h85q72 0 119.5 40.5t103.5 138.5q10 21 25 21h4l12 -3l-87 -226q-1 -1 -2 -2.5t-2.5 -2.5t-2.5 -2q-176 4 -193 4h-295l2 15q2 11 14 16t26 7t28.5 17t19.5 44l84 478q1 5 1 14q0 20 -10.5 30.5t-23 12.5t-23 7t-10.5 14t2 19h208q96 0 267 8l4 -5l-13 -177 q-4 -1 -10 -1q-17 0 -21 17q-21 87 -42 106t-92 19h-143l-48 -271h100q35 0 57 17.5t28.5 38t15 38t19.5 17.5h10l-46 -266h-8q-12 0 -16 19t-4 42t-14.5 42t-46.5 19h-101l-42 -242q-2 -14 -2 -19q0 -44 63 -44z"/>
<glyph glyph-name="afii10024" horiz-adv-x="888" unicode="Ж" d="M548 584l-38 -214h12q77 0 119 39.5t112 165.5q19 33 33 53.5t41 39.5t58 19q22 0 39.5 -13.5t17.5 -34.5t-18.5 -37t-39.5 -16q-43 0 -58 40q-17 -17 -51 -79.5t-75.5 -116.5t-87.5 -72v-2l-1 -2q59 -10 83.5 -53t72.5 -195q13 -43 31.5 -58.5t53.5 -19.5v-29 q-37 -10 -61 -10q-25 0 -44 10t-31.5 24.5t-25 46.5t-20 58.5t-20.5 78.5q-22 84 -46.5 107.5t-81.5 23.5h-17l-44 -250q-1 -4 -1 -12q0 -18 12.5 -27.5t27 -11t25.5 -7.5t9 -18l-2 -12h-247l2 12q2 12 15 18.5t28 8.5t29.5 14.5t18.5 36.5l44 248h-13q-56 0 -86 -24 t-82 -110q-27 -45 -40 -66t-34 -51.5t-34.5 -44t-32 -28.5t-36.5 -20t-40 -5q-17 0 -59 10l6 29q35 4 58 20t55 64q99 147 130 182q46 49 107 59q3 1 5 1v2l1 2q-33 15 -55 56.5t-30 84.5t-19 83.5t-25 51.5q-7 -24 -25.5 -37.5t-39.5 -13.5q-19 0 -32.5 12t-13.5 31 q0 30 22.5 45.5t52.5 15.5q44 0 64.5 -31t31.5 -81q25 -127 53 -166t106 -39h10l38 212q1 5 1 14q0 18 -11 27.5t-24.5 11.5t-23 8t-7.5 18l2 12h248l-2 -12q-2 -12 -16.5 -18t-31 -8t-32.5 -14.5t-20 -36.5z"/>
<glyph glyph-name="afii10025" horiz-adv-x="542" unicode="З" d="M337 685q59 0 101 -13.5t62 -36t28 -44t8 -44.5q0 -58 -56 -111.5t-156 -64.5l-2 -4q90 -11 134.5 -51t44.5 -102q0 -89 -77.5 -158t-217.5 -69q-134 0 -206 86l30 171h11q10 0 13 -6t3 -22q1 -107 35.5 -152t115.5 -45q93 0 144.5 57t51.5 134q0 66 -45 100.5t-132 34.5 q-13 0 -35 -2l2 33q56 6 98.5 18t77.5 32t53.5 52t18.5 75q0 49 -32.5 72.5t-83.5 23.5q-47 0 -95 -17t-74 -41q23 -24 23 -53q0 -22 -14 -37t-37 -15q-17 0 -28 13t-11 29q0 60 76.5 108.5t170.5 48.5z"/>
<glyph glyph-name="afii10026" horiz-adv-x="691" unicode="И" d="M632 583l-86 -490q-2 -10 -2 -18q0 -18 11.5 -27.5t25 -11t25 -6.5t11.5 -15q0 -2 -2 -15h-247l2 12q2 12 15 18t28 7.5t30 14.5t19 38l73 413q-82 -86 -364 -384l-4 -24q-2 -10 -2 -20q0 -18 11.5 -27.5t24.5 -11t24.5 -6.5t11.5 -15q0 -2 -2 -15h-246l2 12q2 12 15 18 t28 7.5t30 14.5t19 38l86 491q1 5 1 14q0 18 -10.5 27.5t-23.5 11.5t-23.5 7t-10.5 15v1q1 1 1.5 5t1.5 11h248l-2 -13q-2 -12 -16 -18t-30.5 -8t-32 -14.5t-19.5 -36.5l-73 -414l364 384l5 28q2 14 2 17q0 17 -11 25.5t-23.5 10.5t-23.5 7t-11 15l3 17h247l-2 -13 q-2 -12 -16 -18t-30.5 -8t-32 -14.5t-19.5 -36.5z"/>
<glyph glyph-name="afii10027" horiz-adv-x="691" unicode="Й" d="M632 583l-86 -490q-2 -10 -2 -18q0 -18 11.5 -27.5t25 -11t25 -6.5t11.5 -15q0 -2 -2 -15h-247l2 12q2 12 15 18t28 7.5t30 14.5t19 38l73 413q-82 -86 -364 -384l-4 -24q-2 -10 -2 -20q0 -18 11.5 -27.5t24.5 -11t24.5 -6.5t11.5 -15q0 -2 -2 -15h-246l2 12q2 12 15 18 t28 7.5t30 14.5t19 38l86 491q1 5 1 14q0 18 -10.5 27.5t-23.5 11.5t-23.5 7t-10.5 15v1q1 1 1.5 5t1.5 11h248l-2 -13q-2 -12 -16 -18t-30.5 -8t-32 -14.5t-19.5 -36.5l-73 -414l364 384l5 28q2 14 2 17q0 17 -11 25.5t-23.5 10.5t-23.5 7t-11 15l3 17h247l-2 -13 q-2 -12 -16 -18t-30.5 -8t-32 -14.5t-19.5 -36.5zM596 862l18 -17q-101 -114 -209 -114q-42 0 -65.5 19.5t-23.5 49.5q0 29 18.5 48t42.5 19q23 0 34.5 -16t11.5 -39q0 -19 -8 -37q86 0 181 87z"/>
<glyph glyph-name="afii10028" horiz-adv-x="610" unicode="К" d="M209 338l-44 -242q-2 -10 -2 -21q0 -18 11.5 -27.5t25 -11t25 -6.5t11.5 -15q0 -2 -2 -15h-244l2 12q2 12 15 18t27.5 7.5t29 14.5t18.5 38l87 491q1 5 1 13q0 18 -10.5 28t-23 12t-23 7t-10.5 15l1 1q0 1 0.5 5t1.5 11h246l-2 -13q-2 -12 -16.5 -18t-31 -8t-32 -14.5 t-19.5 -36.5l-37 -213h25q78 0 119.5 39t112.5 166q14 25 24 40.5t26.5 34t37 28t43.5 9.5t40 -13t17 -35q0 -20 -18 -36.5t-40 -16.5q-43 0 -58 40q-15 -15 -39.5 -57t-46.5 -81.5t-56.5 -77.5t-70.5 -52v-2l-1 -2q59 -9 85 -52.5t68 -185.5q15 -50 33.5 -67t54.5 -21v-29 q-36 -10 -62 -10q-22 0 -38 5t-29.5 20t-22.5 28.5t-19 44t-16 52.5t-18 68q-21 84 -45 107.5t-80 23.5h-31z"/>
<glyph glyph-name="afii10029" horiz-adv-x="680" unicode="Л" d="M293 585q0 2 0.5 5.5t0.5 4.5q0 18 -12.5 28t-27 12t-27 7t-12.5 15q0 9 2 17h503l-2 -13q-2 -12 -15.5 -18t-29.5 -8t-31 -14t-19 -36l-88 -500q-1 -4 -1 -10q0 -18 11 -27t25 -10.5t25 -6t11 -14.5v-5l-2 -12h-239l2 12q2 12 14 18t26 8t28 15t18 37l96 551h-207 q-52 -266 -117 -440q-35 -96 -85.5 -157.5t-116.5 -61.5q-29 0 -48 15t-19 39q0 28 17.5 41t36.5 13q25 0 44.5 -16t24.5 -44q62 45 112 179.5t102 375.5z"/>
<glyph glyph-name="afii10030" horiz-adv-x="843" unicode="М" d="M707 674h177l-2 -18q-1 -10 -16.5 -16.5t-33.5 -11t-34.5 -21t-19.5 -45.5l-57 -470q0 -2 -0.5 -6t-0.5 -5q0 -21 12 -32t25.5 -13t24.5 -7.5t9 -16.5l-2 -12h-239l2 12q1 6 3.5 10t7.5 6.5t8.5 4t12 3.5t11.5 3q24 8 33.5 20t12.5 32l61 501h-5q-53 -100 -153.5 -300 t-153.5 -300h-32l-97 475q-23 111 -25 134h-4l-112 -507q-2 -12 -2 -15q0 -18 13 -28t28 -12t26.5 -8t9.5 -18l-2 -13h-203l2 13q2 15 22.5 20.5t43 17.5t28.5 40l104 460q4 15 4 29q0 22 -11.5 35t-24.5 16.5t-23.5 9.5t-8.5 16l3 17h179l89 -451q12 -66 15 -114h6 q52 98 147 287t142 278z"/>
<glyph glyph-name="afii10031" horiz-adv-x="701" unicode="Н" d="M655 584l-87 -496q-1 -4 -1 -12q0 -18 12.5 -27.5t27 -11t25.5 -7.5t9 -18l-2 -12h-247l2 12q2 12 15 18.5t28 8.5t29.5 14.5t18.5 36.5l44 248h-320l-44 -250q-1 -4 -1 -12q0 -18 12.5 -27.5t27 -11t25.5 -7.5t9 -18l-2 -12h-247l2 12q2 12 15 18.5t28 8.5t29.5 14.5 t18.5 36.5l87 492q1 5 1 14q0 18 -11 27.5t-24.5 11.5t-23 8t-7.5 18l2 12h248l-2 -12q-2 -12 -16.5 -18t-31 -8t-32.5 -14.5t-20 -36.5l-38 -214h320l38 212q1 5 1 14q0 18 -11 27.5t-24.5 11.5t-23 8t-7.5 18l2 12h248l-2 -12q-2 -12 -16.5 -18t-31 -8t-32.5 -14.5 t-20 -36.5z"/>
<glyph glyph-name="afii10032" horiz-adv-x="692" unicode="О" d="M420 650q-68 0 -123 -42t-87 -107.5t-48.5 -135.5t-16.5 -134q0 -95 39.5 -153t128.5 -58q68 0 122.5 41t86 105t48 134t16.5 136q0 96 -39 155t-127 59zM426 682q120 0 186 -75t66 -194q0 -169 -110.5 -296.5t-264.5 -127.5q-121 0 -184.5 72t-63.5 191q0 112 49 211 t135 159t187 60z"/>
<glyph glyph-name="afii10033" horiz-adv-x="688" unicode="П" d="M491 90l97 550h-327q-16 -94 -47.5 -270t-39.5 -224l-10 -61q-1 -4 -1 -11q0 -23 18 -31t36 -12t18 -16q0 -2 -2 -15h-242l2 12q2 12 14.5 17.5t27 7.5t29 15t18.5 38l87 494q1 4 1 11q0 18 -12 28t-26 12t-26 7t-12 14q0 2 2 17h662l-2 -13q-2 -12 -15.5 -18t-29.5 -8 t-31 -14t-19 -36q-13 -76 -43 -242.5t-45 -255.5q-1 -5 -1 -12q0 -18 11.5 -27t25 -10t25 -6t11.5 -15q0 -3 -2 -16h-240l2 12q2 12 14 18t26 8t28 15t18 37z"/>
<glyph glyph-name="afii10034" horiz-adv-x="543" unicode="Р" d="M106 673h242q103 0 164 -45.5t61 -123.5q0 -59 -27 -104t-70.5 -70t-90.5 -37.5t-95 -12.5q-42 0 -87 8l-36 -201q-1 -5 -1 -13q0 -23 19 -31t38 -12t19 -16q0 -2 -2 -15h-250l2 12q2 12 15 17.5t28 7t29.5 14.5t19.5 39l86 487q1 5 1 14q0 25 -16.5 35t-33.5 14t-17 14 q0 5 2 19zM266 642l-57 -325q32 -8 73 -8q81 0 140.5 53.5t59.5 144.5q0 71 -47 103t-113 32h-56z"/>
<glyph glyph-name="afii10035" horiz-adv-x="624" unicode="С" d="M427 683q94 0 168 -54l32 54h17l-38 -217h-5q-13 0 -18 19t-9.5 46t-15 54t-43 46t-85.5 19q-128 0 -203.5 -120t-75.5 -287q0 -102 42 -162t126 -60q52 0 92 16t61.5 40.5t38.5 52.5t25.5 52.5t19 40.5t23.5 16h9l-43 -245h-18l-17 58q-91 -62 -201 -62 q-119 0 -187 76.5t-68 196.5q0 177 107 298.5t266 121.5z"/>
<glyph glyph-name="afii10036" horiz-adv-x="588" unicode="Т" d="M102 676q4 3 12 7q76 -9 254 -9q176 0 260 9q6 -4 9 -7l-14 -188h-8q-15 0 -19 16q-20 93 -40 115.5t-91 22.5h-59l-97 -548q-2 -8 -2 -18q0 -18 12 -27.5t26 -11.5t25 -7.5t9 -17.5l-2 -12h-245l2 12q2 13 14.5 19t27.5 7.5t29 14t19 37.5l98 552h-59q-73 0 -101 -22.5 t-78 -115.5q-9 -18 -22 -18q-2 0 -13 2q41 143 53 188z"/>
<glyph glyph-name="afii10037" horiz-adv-x="589" unicode="У" d="M111 -28q-30 0 -48.5 15.5t-18.5 38.5q0 26 16.5 40t41.5 14q24 0 42 -17t22 -38q36 23 80 94l-89 439q-6 31 -21.5 50t-29.5 24t-24 12t-8 18l2 12h230l-2 -14q-2 -11 -18 -15.5t-30.5 -13.5t-14.5 -33q0 -5 2 -21l64 -354h5l189 330q19 33 19 50q0 14 -9 23t-19.5 12 t-19 8.5t-7.5 13.5l2 14h202l-2 -13q-2 -11 -14 -16.5t-28 -9.5t-38.5 -23t-42.5 -52l-251 -425q-53 -90 -94.5 -126.5t-87.5 -36.5z"/>
<glyph glyph-name="afii10038" horiz-adv-x="752" unicode="Ф" d="M141 300q0 -72 45.5 -118t124.5 -53l74 421q-100 -8 -172 -83t-72 -167zM469 552l-75 -423q111 7 183 81t72 173q0 73 -48 117.5t-132 51.5zM389 99l-2 -11q-2 -10 -2 -17q0 -17 11.5 -26t25 -10.5t25 -6t11.5 -13.5q0 -2 -2 -15h-246l2 12q2 12 14.5 17.5t27 7t29 14.5 t20.5 38l2 9q-124 11 -190 65t-66 140q0 111 100 188.5t242 89.5q1 4 1 12q0 16 -10.5 25.5t-23.5 13t-23.5 9.5t-10.5 15q0 2 2 17h248l-2 -13q-2 -12 -16.5 -18t-31 -8t-32 -15t-18.5 -38q124 -6 196 -62t72 -148q0 -115 -100 -189.5t-253 -82.5z"/>
<glyph glyph-name="afii10039" horiz-adv-x="593" unicode="Х" d="M359 130l-69 173l-129 -164q-44 -56 -44 -81q0 -17 26 -24t26 -23q0 -2 -0.5 -6t-0.5 -5h-202q0 17 8 24.5t20 10t33.5 14.5t42.5 34q40 40 65 71l144 175l-88 208q-16 37 -35.5 60.5t-33.5 31t-24 14t-10 14.5q0 4 3 17h229l-2 -13q-2 -15 -28 -23.5t-27 -30.5 q0 -27 16 -64l60 -146l101 131q45 58 45 80q0 11 -8 18t-17 9.5t-17 8.5t-8 15q0 2 2 15h215l-2 -11q-4 -15 -16 -21.5t-30 -10t-52.5 -30t-73.5 -74.5l-127 -159l88 -212q21 -50 45 -79t40.5 -34.5t28 -11t11.5 -15.5q0 -6 -2 -16h-254l2 13q2 11 17.5 16.5t29.5 14.5 t14 31q0 25 -12 55z"/>
<glyph glyph-name="afii10040" horiz-adv-x="699" unicode="Ц" d="M505 0h-514l2 12q2 12 15 17.5t28 7.5t29.5 15t18.5 38q50 290 77 436q11 63 11 69q0 18 -10.5 27.5t-23 11.5t-23 7.5t-10.5 14.5q0 3 2 17h245l-2 -13q-2 -12 -16 -18t-30.5 -8t-32 -14.5t-19.5 -36.5l-96 -551h301q17 94 47.5 266.5t41.5 236.5q10 52 10 63 q0 17 -10.5 26t-22.5 11t-22.5 7t-10.5 15q0 8 3 16h245l-2 -13q-2 -12 -16 -18t-30 -8t-31.5 -14t-19.5 -36l-98 -551h97l7 -7q-5 -19 -56 -210q-1 0 -5 -0.5t-5 -0.5q-15 0 -15 17q0 19 0.5 57t0.5 56q0 36 -11.5 45.5t-48.5 9.5z"/>
<glyph glyph-name="afii10041" horiz-adv-x="621" unicode="Ч" d="M435 337q-76 -39 -163 -39q-67 0 -108 36.5t-41 111.5q0 31 5 56l14 82q1 5 1 12q0 18 -11.5 27.5t-25 12t-23 8.5t-7.5 18l2 12h246l-2 -12q-2 -12 -16 -18.5t-30.5 -8.5t-32 -14.5t-19.5 -36.5l-15 -81q-5 -30 -5 -48q0 -58 31 -85t82 -27q60 0 124 22l38 217q1 5 1 13 q0 18 -11.5 28t-25 12t-23.5 8t-8 18l2 12h248l-2 -12q-2 -12 -16.5 -18t-30.5 -8t-31.5 -14.5t-19.5 -36.5l-87 -496q-1 -5 -1 -13q0 -18 12 -27.5t26 -11t25 -7t9 -17.5l-2 -12h-246l2 12q2 12 15 18t28 7.5t30 14.5t19 38z"/>
<glyph glyph-name="afii10042" horiz-adv-x="913" unicode="Ш" d="M844 12l-2 -12h-848l2 12q2 12 14.5 17.5t27.5 7.5t29.5 15t18.5 38q4 22 35 196.5t52 297.5q1 4 1 11q0 17 -10.5 27t-22.5 12t-22.5 7.5t-10.5 14.5q0 3 2 17h245l-2 -13q-2 -12 -16 -18t-30.5 -8t-32 -14.5t-19.5 -36.5l-96 -551h220l86 496q9 50 9 69q0 17 -10 26 t-22.5 11t-22.5 7t-10 15q0 3 2 17h245l-2 -13q-2 -12 -16 -18t-30.5 -8t-32 -14.5t-19.5 -36.5l-96 -551h218q35 195 88 497q10 60 10 69q0 17 -10 26t-22 11t-22 7t-10 14q0 10 2 17h245l-2 -13q-2 -12 -16.5 -18t-31 -8t-31.5 -14t-19 -36q-11 -65 -24 -138.5t-29 -163.5 t-25 -139q-9 -54 -9 -71t11 -26t25 -10t25 -6t11 -15v-3z"/>
<glyph glyph-name="afii10043" horiz-adv-x="917" unicode="Щ" d="M727 0h-733l2 12q2 12 14.5 17.5t27 7.5t29 15t19.5 38l77 435q11 66 11 70q0 17 -10.5 27t-22.5 12t-22.5 7.5t-10.5 14.5q0 3 2 17h245l-2 -13q-2 -12 -16 -18t-30.5 -8t-32 -14.5t-19.5 -36.5l-96 -551h220l87 502q8 40 8 63q0 17 -10 26t-22.5 11t-22.5 7t-10 15 q0 3 2 17h245l-2 -13q-2 -12 -16 -18t-30.5 -8t-32 -14.5t-19.5 -36.5l-96 -551h218l89 503q9 49 9 63q0 17 -10 26t-22 11t-22 7t-10 14q0 10 2 17h245l-2 -13q-2 -12 -16 -18t-30.5 -8t-32 -14t-19.5 -36q-18 -112 -97 -551h97l7 -7l-55 -210q-1 0 -5 -0.5t-5 -0.5 q-9 0 -12 3.5t-3 13.5q0 19 0.5 57t0.5 56q0 36 -11.5 45.5t-48.5 9.5z"/>
<glyph glyph-name="afii10044" horiz-adv-x="700" unicode="Ъ" d="M489 674l-2 -13q-2 -13 -16.5 -19t-30.5 -8t-31.5 -14.5t-19.5 -36.5l-35 -197q63 13 104 13q93 0 155 -41.5t62 -130.5q0 -37 -15 -74.5t-45 -73t-84 -57.5t-123 -22h-280l2 12q2 12 14.5 17.5t27 7.5t29 17t19.5 44l96 543h-53q-71 0 -103 -22.5t-75 -113.5 q-7 -15 -15 -18q-5 -2 -20 2l53 189l10 5q72 -9 193 -9h183zM349 354l-39 -227q-6 -38 -6 -49q0 -24 15.5 -35t60.5 -11q75 0 140 51t65 146q0 69 -47 100.5t-120 31.5q-25 0 -69 -7z"/>
<glyph glyph-name="afii10045" horiz-adv-x="806" unicode="Ы" d="M759 584l-87 -496q-1 -4 -1 -12q0 -18 12.5 -27.5t27 -11t25.5 -7.5t9 -18l-2 -12h-247l2 12q2 12 15 18.5t28 8.5t29.5 14.5t18.5 36.5l87 492q1 5 1 14q0 18 -11 27.5t-24.5 11.5t-23 8t-7.5 18l2 12h248l-2 -12q-2 -12 -16.5 -18t-31 -8t-32.5 -14.5t-20 -36.5z M210 353l-39 -226q-6 -37 -6 -50q0 -23 16 -34t61 -11q79 0 145.5 50.5t66.5 145.5q0 70 -46.5 101.5t-120.5 31.5q-37 0 -77 -8zM80 92l77 435q11 61 11 67q0 18 -10.5 27.5t-23.5 12t-23.5 7.5t-10.5 14q0 4 2 18h248l-2 -13q-2 -12 -16 -18t-30.5 -8t-32 -14.5 t-19.5 -36.5l-35 -197q70 12 112 12q93 0 155 -41.5t62 -129.5q0 -37 -15.5 -75t-47 -73t-87.5 -57t-128 -22h-276l2 12q2 12 14.5 17.5t26.5 7t28 15t19 40.5z"/>
<glyph glyph-name="afii10046" horiz-adv-x="569" unicode="Ь" d="M210 353l-39 -226q-6 -37 -6 -50q0 -23 16 -34t61 -11q79 0 145.5 50.5t66.5 145.5q0 70 -46.5 101.5t-120.5 31.5q-37 0 -77 -8zM80 92l76 421q12 66 12 81q0 18 -10.5 27.5t-23.5 12t-23.5 7.5t-10.5 14q0 4 2 18h248l-2 -13q-2 -12 -16 -18t-30.5 -8t-32 -14.5 t-19.5 -36.5l-35 -197q70 12 112 12q93 0 155 -41.5t62 -129.5q0 -37 -15.5 -75t-47 -73t-87.5 -57t-128 -22h-276l2 12q2 12 14.5 17.5t26.5 7t28 15t19 40.5z"/>
<glyph glyph-name="afii10047" horiz-adv-x="616" unicode="Э" d="M358 683q116 0 180 -68.5t64 -184.5q0 -85 -27.5 -164.5t-76 -140.5t-120 -98t-153.5 -37q-136 0 -215 91l30 171h8q11 0 14.5 -7t3.5 -26q0 -198 159 -198q106 0 179 91t98 227l-302 -10l8 50l299 -7q6 52 6 78q0 95 -42 146.5t-128 51.5q-94 0 -166 -57q20 -22 20 -50 q0 -24 -12.5 -40.5t-37.5 -16.5q-18 0 -28.5 13t-10.5 31q0 61 76.5 108t173.5 47z"/>
<glyph glyph-name="afii10048" horiz-adv-x="938" unicode="Ю" d="M676 650q-71 0 -125.5 -46.5t-83.5 -116.5t-43 -138t-14 -126q0 -203 158 -203q57 0 103.5 30t76 76t49.5 103.5t28.5 111t8.5 100.5q0 93 -37 151t-121 58zM253 584l-38 -214h120q33 135 127.5 223.5t219.5 88.5q117 0 179 -73t62 -191q0 -112 -47 -210.5t-131.5 -158.5 t-185.5 -60q-119 0 -179 70t-60 187q0 48 8 91h-119l-43 -249q-1 -5 -1 -13q0 -18 12 -27.5t26.5 -11t25.5 -7t9 -17.5l-2 -12h-247l2 12q2 12 15 18t28 7.5t30 14.5t19 38l87 492q1 5 1 13q0 18 -11.5 28t-25 12t-23.5 8t-8 18l2 12h249l-2 -12q-2 -12 -16.5 -18t-30.5 -8 t-32 -14.5t-20 -36.5z"/>
<glyph glyph-name="afii10049" horiz-adv-x="580" unicode="Я" d="M131 473q0 97 73.5 149t198.5 52h231l-2 -13q-2 -12 -15 -18t-28 -8t-29 -14t-18 -36l-87 -497q-2 -10 -2 -14q0 -18 11 -27t24.5 -10t24.5 -6t11 -15q0 -2 -2 -16h-244l2 12q2 12 15.5 18t28.5 8t30 15t19 37l39 222h-34q-33 0 -59.5 -16.5t-62.5 -60.5 q-20 -24 -80 -114q-49 -73 -89 -103t-87 -30q-14 0 -49 7l5 26q57 9 90 55q102 149 136 184q44 47 95 58l-2 4q-62 8 -103 50.5t-41 100.5zM355 343h63l53 299h-68q-73 0 -129.5 -43.5t-56.5 -135.5q0 -56 37 -88t101 -32z"/>
<glyph glyph-name="afii10065" horiz-adv-x="523" unicode="а" d="M153 -11q-118 0 -118 153q0 72 26 140.5t82 117.5t129 49q72 0 125 -49l57 47h21q-45 -153 -81 -398q1 0 22 13.5t42 26.5t22 14l14 -17q-40 -43 -76 -69.5t-54 -26.5q-45 0 -45 45q0 50 20 118h-4q-76 -164 -182 -164zM181 37q48 0 107 87t81 200l9 47q-45 42 -94 42 q-71 0 -119 -80.5t-48 -194.5q0 -101 64 -101z"/>
<glyph glyph-name="afii10066" horiz-adv-x="473" unicode="б" d="M276 417q-44 0 -78 -31t-51.5 -77.5t-26 -90.5t-8.5 -80q0 -119 83 -119q42 0 76 29.5t53.5 74t29.5 89t10 80.5q0 54 -22 89.5t-66 35.5zM285 446q75 0 116 -45t41 -126q0 -61 -28.5 -125.5t-89 -112.5t-136.5 -48q-153 0 -153 169q0 84 29.5 180t77.5 173 q30 48 68 76.5t72 35t69 11t61 6t46.5 18.5t27.5 50l23 3q0 -2 1.5 -14.5t1.5 -19.5q0 -49 -21.5 -75.5t-57.5 -33.5t-75 -9t-83.5 -10t-73.5 -29q-41 -29 -73 -93.5t-44 -122.5h4q28 56 67 90t69 43t61 9z"/>
<glyph glyph-name="afii10067" horiz-adv-x="432" unicode="в" d="M278 413q-45 0 -84.5 -54t-59 -120t-19.5 -116q0 -103 61 -103q54 0 97.5 45t43.5 92q0 59 -81 59q-34 0 -61 -5q0 6 -0.5 15.5t-0.5 14.5q68 11 106 47.5t38 78.5q0 46 -40 46zM283 252v-4q115 0 115 -74q0 -62 -68.5 -124.5t-160.5 -62.5q-71 0 -103 42t-32 101 q0 134 77 226.5t197 92.5q43 0 64.5 -22t21.5 -56q0 -80 -111 -119z"/>
<glyph glyph-name="afii10068" horiz-adv-x="357" unicode="г" d="M98 73q0 -20 12 -32t35 -12q44 0 82 21t84 60l16 -14q-92 -104 -195 -104q-48 0 -80 22t-32 70q0 37 25 70t61 58t72 48.5t61 51.5t25 57q0 51 -64 51q-40 0 -66 -17q12 -15 12 -37t-14 -39t-38 -17q-16 0 -26 9.5t-10 24.5q0 44 45.5 73.5t102.5 29.5q60 0 95.5 -22.5 t35.5 -65.5q0 -35 -24.5 -67t-60 -56.5t-70.5 -48.5t-59.5 -53t-24.5 -61z"/>
<glyph glyph-name="afii10069" horiz-adv-x="480" unicode="д" d="M263 449q46 0 67 -19.5t21 -46.5q0 -18 -12.5 -30.5t-32.5 -12.5q-24 0 -37 18t-13 45q0 10 1 15q-37 -1 -71.5 -45t-55 -111.5t-20.5 -135.5q0 -49 20.5 -78t61.5 -29q44 0 80.5 36.5t57.5 89.5t35.5 115.5t20 110.5t5.5 79q0 115 -36 172.5t-103 57.5q-48 0 -106 -27 l-13 23q81 51 152 51q84 0 134.5 -72t50.5 -198q0 -74 -19 -154t-54 -151t-91.5 -117t-123.5 -46q-70 0 -108.5 43t-38.5 117q0 115 66 206t162 94z"/>
<glyph glyph-name="afii10070" horiz-adv-x="421" unicode="е" d="M121 217q79 8 138.5 48.5t59.5 93.5q0 27 -13.5 41.5t-34.5 14.5q-46 0 -91 -55.5t-59 -142.5zM181 -11q-69 0 -108 41t-39 115q0 53 15.5 104.5t45 97t80 74t114.5 28.5q52 0 81.5 -24.5t29.5 -69.5q0 -63 -80.5 -108t-202.5 -65q-2 -10 -2 -29q0 -57 26.5 -86t73.5 -29 q65 0 145 69l16 -15q-87 -103 -195 -103z"/>
<glyph glyph-name="afii10072" horiz-adv-x="878" unicode="ж" d="M440 405l6 31h65q-40 -200 -56 -284q1 0 1 -0.5t1 -0.5q22 54 51.5 103.5t68.5 95t88 73t99 27.5q54 0 81 -20.5t27 -49.5q0 -18 -13 -29.5t-28 -11.5q-26 0 -42.5 20.5t-16.5 46.5q0 13 2 19q-77 -1 -123 -80t-46 -193q0 -52 21.5 -84.5t67.5 -32.5q52 0 133 70l16 -15 q-88 -101 -182 -101q-125 0 -125 163q0 54 15 119h-3q-33 -50 -67 -119t-44 -119l-7 -33h-64q20 104 52 260h-1l-1 1q-46 -117 -125.5 -194.5t-178.5 -77.5q-55 0 -81.5 20t-26.5 49q0 18 13.5 29.5t28.5 11.5q28 0 42.5 -22t14.5 -51q0 -9 -1 -13q82 1 126.5 76t44.5 197 q0 52 -22.5 84.5t-68.5 32.5q-52 0 -132 -71l-16 16q88 102 182 102q126 0 126 -164q0 -85 -24 -153l1 -1h2q36 48 72 132t47 141z"/>
<glyph glyph-name="afii10073" horiz-adv-x="410" unicode="з" d="M238 450q78 0 109.5 -30t31.5 -67q0 -36 -32.5 -68.5t-95.5 -44.5l1 -3q100 -21 100 -101q0 -58 -54.5 -103.5t-151.5 -45.5q-101 0 -152 58l22 119h13q9 0 11 -6t2 -22q1 -120 99 -120q60 0 94 36.5t34 86.5q0 81 -108 81q-8 0 -27 -1l4 29q161 16 161 109 q0 28 -24 44.5t-57 16.5q-62 0 -101 -31q18 -23 18 -49q0 -20 -12 -33.5t-35 -13.5q-14 0 -24.5 11t-10.5 30q0 43 53.5 80.5t131.5 37.5z"/>
<glyph glyph-name="afii10074" horiz-adv-x="514" unicode="и" d="M451 440l7 -6l-73 -384l86 53l13 -17q-40 -43 -76 -69t-55 -26q-43 0 -43 44q0 33 36 173h-4q-48 -123 -100.5 -172t-96.5 -49q-75 0 -75 75q0 20 7 58l56 272l-89 -62l-16 17q90 104 136 104q44 0 44 -41q0 -20 -7 -52l-42 -195q-11 -55 -11 -71q0 -47 38 -47 q43 0 103.5 112.5t83.5 224.5l11 53q24 1 67 5z"/>
<glyph glyph-name="afii10075" horiz-adv-x="514" unicode="й" d="M451 440l7 -6l-73 -384l86 53l13 -17q-40 -43 -76 -69t-55 -26q-43 0 -43 44q0 33 36 173h-4q-48 -123 -100.5 -172t-96.5 -49q-75 0 -75 75q0 20 7 58l56 272l-89 -62l-16 17q90 104 136 104q44 0 44 -41q0 -20 -7 -52l-42 -195q-11 -55 -11 -71q0 -47 38 -47 q43 0 103.5 112.5t83.5 224.5l11 53q24 1 67 5zM462 631l17 -17q-53 -60 -107 -86t-94 -26t-63 19.5t-23 48.5q0 28 18 47t41 19q22 0 33 -16t11 -38q0 -19 -8 -37q83 0 175 86z"/>
<glyph glyph-name="afii10076" horiz-adv-x="479" unicode="к" d="M160 451q48 0 48 -49q0 -48 -51 -211h4q35 109 101 184t152 75q27 0 48 -12.5t21 -37.5q0 -21 -13.5 -32.5t-30.5 -11.5q-27 0 -41 17.5t-14 42.5q-75 -15 -137 -102q46 -180 108 -275l88 64l14 -17q-81 -97 -126 -97q-42 0 -78 81.5t-52 161.5q-41 -92 -61 -198l-7 -34 h-75l75 393l-89 -63l-15 18q89 103 131 103z"/>
<glyph glyph-name="afii10077" horiz-adv-x="489" unicode="л" d="M156 422l3 14h166q96 0 96 -65q0 -6 -4 -28l-58 -293l87 53l13 -17q-39 -42 -76.5 -69.5t-55.5 -27.5q-22 0 -32.5 9t-10.5 31q0 9 6 41l55 262q5 30 5 33q0 39 -54 39h-53q-8 -48 -13.5 -77.5t-17 -78t-22.5 -79.5t-28.5 -68t-37.5 -58t-47.5 -36t-59.5 -15 q-22 0 -39 12t-17 33q0 20 12.5 30.5t32.5 10.5t34.5 -15t16.5 -34q96 38 149 331q1 3 1 9q0 13 -8.5 21t-19 10.5t-18 7.5t-5.5 14z"/>
<glyph glyph-name="afii10078" horiz-adv-x="679" unicode="м" d="M617 440l7 -9q-11 -58 -36 -186t-38 -195l86 53q2 -3 7 -8.5t7 -8.5q-40 -43 -77.5 -69.5t-56.5 -26.5q-42 0 -42 36q0 6 4 30q42 208 64 313h-4q-25 -38 -92.5 -141t-104.5 -159h-27l-75 288h-4q-10 -57 -20.5 -101.5t-29 -96.5t-40.5 -86.5t-55.5 -57.5t-73.5 -23 q-20 0 -37.5 12t-17.5 33q0 19 12.5 29.5t31.5 10.5q20 0 35 -15t17 -34q97 39 151 328q2 8 2 13q0 13 -8.5 20.5t-19 10t-19 7t-8.5 11.5q0 2 2 18l128 5l10 -8q40 -158 70 -272q165 245 185 275z"/>
<glyph glyph-name="afii10079" horiz-adv-x="517" unicode="н" d="M460 440l7 -7l-77 -383l43 26q43 27 44 28l13 -18q-40 -42 -77 -69.5t-55 -27.5q-44 0 -44 38q0 14 4 31l33 160h-177l-42 -218h-74l75 393l-89 -63l-15 18q89 103 131 103q48 0 48 -49q0 -18 -7 -51l-21 -102h178l39 187z"/>
<glyph glyph-name="afii10080" horiz-adv-x="480" unicode="о" d="M272 418q-37 0 -68.5 -27.5t-50 -70t-29 -90t-10.5 -90.5q0 -121 82 -121q53 0 94 50t58.5 111t17.5 115q0 123 -94 123zM278 449q79 0 123 -48t44 -125q0 -113 -77 -200t-180 -87q-153 0 -153 174q0 115 70.5 200.5t172.5 85.5z"/>
<glyph glyph-name="afii10081" horiz-adv-x="520" unicode="п" d="M160 451q48 0 48 -48q0 -59 -40 -183h4q48 122 106 175.5t101 53.5q76 0 76 -74q0 -28 -7 -59l-58 -266q3 1 44.5 27t42.5 27l14 -18q-40 -42 -77.5 -69.5t-55.5 -27.5q-44 0 -44 38q0 11 5 31l47 215q11 55 11 70q0 48 -38 48q-46 0 -109.5 -109.5t-86.5 -227.5l-11 -54 h-74l75 393q-12 -7 -49.5 -34t-39.5 -29l-15 18q89 103 131 103z"/>
<glyph glyph-name="afii10082" horiz-adv-x="510" unicode="р" d="M225 22q70 0 119 82.5t49 196.5q0 100 -64 100q-50 0 -107.5 -82.5t-81.5 -205.5l-11 -55q37 -36 96 -36zM193 403q0 -37 -23 -119h4q77 165 183 165q118 0 118 -154q0 -53 -15.5 -106t-44.5 -98t-75 -73.5t-102 -28.5q-73 0 -119 33l-25 -131q-2 -10 -2 -15 q0 -18 13.5 -28.5t29.5 -13t29.5 -7t13.5 -13.5q0 -1 -2 -16h-249l2 14q2 12 22 16t42.5 17.5t28.5 47.5l97 499l-89 -62l-15 17q87 104 133 104q45 0 45 -48z"/>
<glyph glyph-name="afii10083" horiz-adv-x="411" unicode="с" d="M299 450q55 0 82 -20t27 -49q0 -18 -13 -29.5t-29 -11.5q-28 0 -43 18.5t-15 44.5q0 6 2 16q-64 0 -110.5 -47.5t-65 -105.5t-18.5 -113q0 -53 25 -85.5t78 -32.5q63 0 143 71l16 -16q-35 -41 -85 -71t-108 -30q-68 0 -109 43.5t-41 117.5q0 122 73.5 211t190.5 89z"/>
<glyph glyph-name="afii10084" horiz-adv-x="737" unicode="т" d="M363 449q37 0 56 -19.5t19 -53.5q0 -37 -29 -137h4q42 106 94.5 158t89.5 52t56 -20t19 -56q0 -27 -7 -56l-57 -267q22 10 87 53l13 -17q-39 -42 -76.5 -69.5t-55.5 -27.5q-44 0 -44 38q0 14 4 30l48 215q11 46 11 71q0 48 -39 48q-45 0 -101 -107.5t-79 -229.5l-10 -54 h-74l58 272q10 42 10 71q0 48 -38 48q-45 0 -100.5 -107.5t-79.5 -229.5l-10 -54h-74l75 392q-73 -49 -89 -62l-15 18q88 102 133 102t45 -48q0 -58 -39 -182h4q49 124 99.5 176.5t91.5 52.5z"/>
<glyph glyph-name="afii10085" horiz-adv-x="428" unicode="у" d="M362 456q20 0 35.5 -15t15.5 -46q0 -72 -47 -177t-116.5 -201t-160 -164t-168.5 -68q-30 0 -56.5 16t-26.5 44q0 22 15 35t34 13q24 0 41.5 -23t17.5 -52q76 7 193 119q-8 111 -26 252t-31 203q-1 -1 -19.5 -21.5t-36.5 -40t-19 -20.5q-14 14 -19 14q68 125 120 125 q37 0 47 -37q10 -36 25.5 -166.5t23.5 -235.5q67 80 110.5 170.5t59.5 161.5q-26 4 -41.5 23.5t-15.5 45.5q0 15 10.5 30t34.5 15z"/>
<glyph glyph-name="afii10086" horiz-adv-x="682" unicode="ф" d="M474 720l-73 -373q1 0 2.5 -0.5t2.5 -0.5q55 103 131 103q110 0 110 -154q0 -66 -24 -134t-76 -118.5t-119 -50.5q-57 0 -90 29q-2 -11 -10.5 -46.5t-13 -59t-4.5 -40.5q0 -20 13.5 -30t29.5 -11.5t29.5 -6.5t13.5 -15l-2 -14h-250l2 14q1 10 14 15.5t28.5 8t31 17 t20.5 40.5l40 200q-1 0 -2.5 0.5t-2.5 0.5q-54 -102 -131 -102q-110 0 -110 153q0 66 24 134t76 119t119 51q55 0 89 -30l36 183q3 17 3 28q0 16 -11.5 24.5t-25 10.5t-25 6.5t-11.5 12.5q0 4 3 17l159 23zM112 138q0 -100 60 -100q42 0 82 68.5t65 194.5l17 88 q-27 27 -74 27q-61 0 -105.5 -84t-44.5 -194zM569 301q0 100 -60 100q-45 0 -87 -77t-66 -211q-2 -9 -5.5 -29.5t-5.5 -30.5q27 -27 74 -27q61 0 105.5 82.5t44.5 192.5z"/>
<glyph glyph-name="afii10087" horiz-adv-x="458" unicode="х" d="M164 446q22 0 34 -12t23 -45q12 -36 36 -116q56 103 91 141t70 38q24 0 41.5 -12.5t17.5 -32.5t-13 -31.5t-32 -11.5q-21 0 -35 13.5t-17 32.5q-39 -30 -111 -176q48 -162 57 -188l78 69l18 -14q-23 -38 -58.5 -75t-64.5 -37q-22 0 -34 13t-24 46q-9 25 -39 130 q-61 -115 -98 -156t-74 -41q-25 0 -42 13t-17 33t13.5 31.5t32.5 11.5q21 0 34.5 -13.5t17.5 -32.5q41 32 121 195q-8 25 -24 82t-26 87l-78 -72l-18 15q27 43 61 79t59 36z"/>
<glyph glyph-name="afii10088" horiz-adv-x="514" unicode="ц" d="M451 440l6 -8l-72 -382l86 53l13 -17q-16 -19 -16 -45q0 -20 11.5 -62t11.5 -58q0 -93 -141 -93q0 4 -0.5 12t-0.5 13q46 9 61 24.5t15 39.5q0 8 -1 26t-1 27q0 45 22 73l-3 2q-59 -54 -89 -54q-43 0 -43 45q0 44 18 107l18 65h-4q-48 -123 -100.5 -172t-96.5 -49 q-43 0 -59 20.5t-16 60.5q0 15 7 50q11 56 30.5 151t25.5 123l-89 -62l-16 17q90 104 135 104q46 0 46 -42q0 -11 -8 -51q-6 -29 -13 -61.5t-15.5 -72t-13.5 -61.5q-11 -44 -11 -71q0 -47 38 -47q42 0 103.5 113t83.5 224l11 54z"/>
<glyph glyph-name="afii10089" horiz-adv-x="483" unicode="ч" d="M423 440l6 -8l-71 -382l41 26q41 27 42 28l13 -18q-39 -42 -76.5 -69.5t-55.5 -27.5q-23 0 -31.5 8.5t-8.5 31.5q0 12 20 117q0 1 14 67.5t14 67.5h-4q-36 -71 -80.5 -101.5t-84.5 -30.5q-37 0 -55.5 21.5t-18.5 54.5q0 20 8 50l24 118l-89 -63l-15 18q38 45 75 74t60 29 q45 0 45 -40q0 -6 -9 -51q-23 -107 -23 -120q0 -16 8.5 -27t23.5 -11q46 0 89 56.5t63 142.5l8 35z"/>
<glyph glyph-name="afii10090" horiz-adv-x="739" unicode="ш" d="M679 441l4 -8l-74 -383q63 38 87 53q2 -3 7 -8.5t7 -8.5q-39 -42 -76.5 -69.5t-55.5 -27.5q-44 0 -44 36q0 38 41 182h-4q-48 -123 -98.5 -171.5t-92.5 -48.5q-37 0 -56 19.5t-19 53.5q0 39 29 130h-4q-42 -105 -93.5 -154t-90.5 -49q-75 0 -75 75q0 20 7 57l55 272 q-27 -17 -89 -61l-15 17q87 102 134 102q45 0 45 -49q0 -18 -8 -54l-20 -84t-23 -104t-8 -66q0 -47 38 -47q45 0 100 109t80 232l11 50l65 4l6 -8l-56 -269q-10 -50 -10 -71q0 -47 38 -47q45 0 101.5 107.5t78.5 228.5l10 55z"/>
<glyph glyph-name="afii10091" horiz-adv-x="739" unicode="щ" d="M678 440l6 -7l-73 -383l86 53q2 -3 7 -8.5t7 -8.5q-16 -17 -16 -45q0 -20 11 -62t11 -58q0 -93 -140 -93q0 4 -0.5 12t-0.5 13q46 9 60.5 24t14.5 38q0 11 -1 29t-1 26q0 41 22 73l-2 2q-61 -56 -91 -56q-43 0 -43 41q0 29 22 111l18 66h-4q-48 -123 -98.5 -171.5 t-92.5 -48.5q-37 0 -56 19.5t-19 53.5q0 39 29 130h-4q-42 -105 -93.5 -154t-90.5 -49q-75 0 -75 76q0 19 7 57l54 271q-15 -10 -44 -30.5t-44 -30.5l-16 17q89 101 136 101q44 0 44 -48q0 -20 -8 -54l-40 -186q-12 -60 -12 -75q0 -41 39 -41q31 0 72.5 63.5t74.5 155.5 t43 173l67 4l5 -8l-52 -254q-14 -70 -14 -86q0 -48 38 -48q45 0 101.5 108t78.5 229l10 55z"/>
<glyph glyph-name="afii10092" horiz-adv-x="456" unicode="ъ" d="M343 200q0 34 -15 57t-47 23q-58 0 -97.5 -60t-39.5 -124q0 -81 65 -81q42 0 74.5 33.5t46 74.5t13.5 77zM319 323q44 0 75.5 -26.5t31.5 -84.5q0 -93 -60.5 -158.5t-150.5 -65.5q-147 0 -147 117q0 53 31.5 131t112.5 169q-1 1 -1 2q-34 -11 -76 -11q-9 0 -30 2t-33 2 q-22 0 -49 -73l-23 4q13 72 33.5 98.5t51.5 26.5q18 0 63.5 -4t70.5 -4q23 0 44 3l12 -20q-94 -114 -116 -196h4q63 88 156 88z"/>
<glyph glyph-name="afii10093" horiz-adv-x="645" unicode="ы" d="M589 440l8 -10l-75 -380l85 53l13 -17q-41 -44 -79 -69t-59 -25q-35 0 -35 38q0 12 5 39l71 367zM157 210h1l2 -1q34 57 78 86t78 29q46 0 76 -30t30 -85q0 -82 -57.5 -152t-148.5 -70q-83 0 -164 40l71 365l-89 -63l-15 18q88 104 132 104q47 0 47 -50q0 -17 -7 -50 q-22 -112 -34 -141zM205 20q57 0 97 60t40 133q0 64 -51 64q-40 0 -88 -53t-66 -134l-12 -53q27 -17 80 -17z"/>
<glyph glyph-name="afii10094" horiz-adv-x="453" unicode="ь" d="M157 210h1l2 -1q34 57 78 86t78 29q46 0 76 -30t30 -85q0 -82 -57.5 -152t-148.5 -70q-83 0 -164 40l71 365l-89 -63l-15 18q88 104 132 104q47 0 47 -50q0 -17 -7 -50q-22 -112 -34 -141zM205 20q57 0 97 60t40 133q0 64 -51 64q-40 0 -88 -53t-66 -134l-12 -53 q27 -17 80 -17z"/>
<glyph glyph-name="afii10095" horiz-adv-x="418" unicode="э" d="M74 341l-17 18q87 91 183 91q68 0 105.5 -43t37.5 -118q0 -122 -74 -211t-191 -89q-55 0 -81.5 20t-26.5 49q0 17 12.5 29t28.5 12q25 -1 41 -20t16 -46q0 -5 -2 -17q73 0 122 57t65 141l-187 -10q0 1 4.5 23t4.5 23q3 0 92 -2t92 -2q3 21 3 41q0 116 -94 116 q-60 0 -134 -62z"/>
<glyph glyph-name="afii10096" horiz-adv-x="700" unicode="ю" d="M499 418q-50 0 -87.5 -47.5t-54 -109.5t-16.5 -122q0 -121 82 -121q41 0 73.5 29t50.5 73t27.5 89.5t9.5 84.5q0 124 -85 124zM505 449q79 0 119 -48t40 -126q0 -114 -73.5 -200t-176.5 -86q-152 0 -152 174q0 25 3 49h-92l-42 -212h-74q16 80 76 392l-89 -62l-16 17 q89 103 133 103q46 0 46 -50q0 -18 -3.5 -41.5t-13 -65.5t-10.5 -48h92q23 88 86.5 146t146.5 58z"/>
<glyph glyph-name="afii10097" horiz-adv-x="452" unicode="я" d="M393 410q-24 -120 -70 -360q8 5 39 24t47 29q13 -16 14 -17q-40 -43 -77 -70t-55 -27q-22 0 -32.5 8t-10.5 28q0 12 3 30l69 345q-26 10 -59 10q-56 0 -89 -27t-33 -80q0 -37 33.5 -55t79.5 -18l4 -27q-37 -93 -97.5 -154.5t-133.5 -61.5q-21 0 -37.5 11.5t-16.5 33.5 q0 19 12.5 29.5t30.5 10.5q43 0 54 -49q94 39 154 178q-27 0 -53.5 5t-52.5 17t-42 36t-16 57q0 57 47 95t128 38q84 0 160 -39z"/>
<glyph glyph-name="afii10071" horiz-adv-x="421" unicode="ё" d="M395 643q16 0 27 -12t11 -29q0 -22 -17 -39t-38 -17q-17 0 -28 11t-11 28q0 23 17 40.5t39 17.5zM228 643q16 0 27 -12t11 -29q0 -22 -17 -39t-38 -17q-17 0 -28 11t-11 28q0 23 17 40.5t39 17.5zM121 217q79 8 138.5 48.5t59.5 93.5q0 27 -13.5 41.5t-34.5 14.5 q-46 0 -91 -55.5t-59 -142.5zM181 -11q-69 0 -108 41t-39 115q0 53 15.5 104.5t45 97t80 74t114.5 28.5q52 0 81.5 -24.5t29.5 -69.5q0 -63 -80.5 -108t-202.5 -65q-2 -10 -2 -29q0 -57 26.5 -86t73.5 -29q65 0 145 69l16 -15q-87 -103 -195 -103z"/>
<glyph glyph-name="afii10099" horiz-adv-x="467" unicode="ђ" d="M345 537h-156l-13 -63l-8 -40l-13.5 -67.5t-15.5 -68t-16 -51.5q1 0 3 -1q22 61 52.5 104.5t60.5 62.5t51.5 27t37.5 8q103 0 103 -143q0 -99 -41.5 -212.5t-115 -195.5t-151.5 -82q-25 0 -41.5 13.5t-16.5 33.5q0 17 11.5 29.5t30.5 12.5q21 0 37.5 -13.5t20.5 -39.5 q63 27 108 114.5t62 175t17 161.5q0 91 -56 91q-52 0 -107.5 -81.5t-79.5 -211.5l-19 -100h-76l102 537h-59l6 33h60l7 40q3 14 3 22q0 14 -11.5 22.5t-25 11t-25 7.5t-11.5 14q0 2 2 14q27 4 80.5 11.5t79.5 11.5l3 -4l-30 -150h156z"/>
<glyph glyph-name="afii10100" horiz-adv-x="347" unicode="ѓ" d="M98 73q0 -20 12 -32t35 -12q44 0 82 21t84 60l16 -14q-92 -104 -195 -104q-48 0 -80 22t-32 70q0 37 25 70t61 58t72 48.5t61 51.5t25 57q0 51 -64 51q-40 0 -66 -17q12 -15 12 -37t-14 -39t-38 -17q-16 0 -26 9.5t-10 24.5q0 44 45.5 73.5t102.5 29.5q60 0 95.5 -22.5 t35.5 -65.5q0 -35 -24.5 -67t-60 -56.5t-70.5 -48.5t-59.5 -53t-24.5 -61zM156 513l-8 20q38 25 66.5 54t40.5 46.5t27 29.5t34 12q13 0 21 -10t8 -22q0 -14 -17.5 -35.5t-63 -49t-108.5 -45.5z"/>
<glyph glyph-name="afii10101" horiz-adv-x="413" unicode="є" d="M299 450q55 0 82 -20t27 -49q0 -18 -13 -29.5t-29 -11.5q-28 0 -43 18.5t-15 44.5q0 10 2 16q-70 -1 -116.5 -52.5t-66.5 -126.5l183 11l-9 -45l-180 2q-5 -33 -5 -55q0 -53 25 -85.5t78 -32.5q63 0 143 71l16 -16q-35 -41 -85 -71t-108 -30q-68 0 -109 43.5t-41 117.5 q0 122 73.5 211t190.5 89z"/>
<glyph glyph-name="afii10102" horiz-adv-x="371" unicode="ѕ" d="M225 449q52 0 89 -23.5t37 -62.5q0 -21 -12.5 -32.5t-27.5 -11.5q-21 0 -32.5 13t-11.5 30q0 27 17 49q-23 10 -52 10q-38 0 -65 -21t-27 -60q0 -26 29 -51t63 -42.5t63 -48.5t29 -68q0 -57 -52.5 -99t-131.5 -42q-61 0 -98 23t-37 61q0 24 13 35.5t28 11.5q41 0 41 -45 q0 -29 -16 -47q28 -13 71 -13q48 0 78 26t30 62q0 24 -19 45t-46.5 37.5t-55 33.5t-46.5 41.5t-19 53.5q0 62 46.5 98.5t114.5 36.5z"/>
<glyph glyph-name="afii10103" horiz-adv-x="272" unicode="і" d="M151 618q0 21 15 36t36 15t35.5 -14.5t14.5 -34.5q0 -21 -15.5 -36t-36.5 -15q-20 0 -34.5 14.5t-14.5 34.5zM106 -11q-21 0 -30.5 8t-9.5 31q0 19 4 40l63 324l-89 -62l-16 17q89 103 133 103q46 0 46 -49q0 -13 -6 -49q-10 -53 -31 -155t-30 -147l85 53l13 -17 q-39 -42 -76.5 -69.5t-55.5 -27.5z"/>
<glyph glyph-name="afii10104" horiz-adv-x="272" unicode="ї" d="M108 636q16 0 27 -12t11 -29q0 -21 -17 -38.5t-38 -17.5q-17 0 -28 11.5t-11 27.5q0 23 17 40.5t39 17.5zM275 636q16 0 27 -12t11 -29q0 -22 -17 -39t-38 -17q-17 0 -28 11t-11 28q0 23 17 40.5t39 17.5zM106 -11q-21 0 -30.5 8t-9.5 31q0 18 7 53l60 311q-4 -2 -44 -30 t-45 -32q0 1 -7 9t-8 9q89 103 131 103q48 0 48 -49q0 -18 -7 -49q-57 -285 -61 -303l85 53l14 -17q-40 -42 -77.5 -69.5t-55.5 -27.5z"/>
<glyph glyph-name="afii10105" horiz-adv-x="229" unicode="ј" d="M143 618q0 21 15 36t36 15t35.5 -14.5t14.5 -34.5q0 -21 -15 -36t-36 -15t-35 14t-15 35zM193 351l-59 -296q-8 -40 -21.5 -81t-36 -85.5t-56 -72.5t-72.5 -28q-23 0 -42.5 11.5t-19.5 32.5t13 33t32 12q21 0 37.5 -14.5t19.5 -41.5q33 18 52 120l85 451l-89 -62l-15 17 q88 102 133 102q46 0 46 -48q0 -8 -7 -50z"/>
<glyph glyph-name="afii10106" horiz-adv-x="674" unicode="љ" d="M427 20q57 0 97 60t40 133q0 65 -51 65q-40 0 -88 -53.5t-66 -134.5l-12 -53q26 -17 80 -17zM157 419q0 8 3 17h169q37 0 58 -15.5t21 -56.5q0 -33 -10.5 -83t-18.5 -71q2 -1 3 -1q34 57 78 86t78 29q46 0 76 -30t30 -85q0 -81 -57 -151.5t-148 -70.5q-85 0 -165 40 q21 118 56 305q3 18 3 27q0 45 -52 45h-38q-5 -33 -7.5 -48.5t-9.5 -54.5t-13 -61.5t-17 -59t-22.5 -59.5t-28 -50t-35 -42.5t-43 -26t-51.5 -10.5q-23 0 -39 12t-16 33q0 19 12.5 29.5t31.5 10.5q20 0 35 -15t17 -34q105 43 150 332q0 1 0.5 3.5t0.5 3.5q0 17 -15 27 q-5 3 -15.5 6.5t-15.5 7.5t-5 11z"/>
<glyph glyph-name="afii10107" horiz-adv-x="691" unicode="њ" d="M535 279q-40 0 -87.5 -53t-64.5 -133l-11 -54q26 -17 80 -17q56 0 95 59.5t39 133.5q0 64 -51 64zM443 440l7 -5l-26 -136q-10 -58 -24 -87l4 -1q34 56 78.5 85t77.5 29q46 0 76 -29.5t30 -85.5q0 -81 -56 -151t-146 -70q-88 0 -166 41l37 188h-166l-44 -218h-74l77 393 l-44 -31q-43 -31 -44 -32l-16 18q90 103 132 103q47 0 47 -49q0 -18 -7 -51l-21 -102h167l38 187z"/>
<glyph glyph-name="afii10108" horiz-adv-x="476" unicode="ћ" d="M123 570l6 32q3 16 3 28q0 16 -11.5 24.5t-25 10.5t-25 6.5t-11.5 12.5q0 4 3 17l159 23l4 -4l-30 -150h157l-6 -33h-156l-22 -126q-21 -112 -45 -191q1 0 2.5 -0.5t2.5 -0.5q48 122 106 176t101 54q75 0 75 -75q0 -20 -7 -59l-57 -265l87 53l13 -17q-39 -42 -76.5 -69.5 t-55.5 -27.5q-22 0 -32.5 8.5t-10.5 30.5q0 28 11 61l40 183q9 38 9 67q0 52 -36 52q-30 0 -71 -51t-76 -130.5t-49 -155.5l-11 -54h-74l102 537h-58l6 33h59z"/>
<glyph glyph-name="afii10109" horiz-adv-x="479" unicode="ќ" d="M229 513l-8 20q38 25 66.5 54t40.5 46.5t27 29.5t34 12q13 0 21 -10t8 -22q0 -14 -17.5 -35.5t-63 -49t-108.5 -45.5zM160 451q48 0 48 -49q0 -48 -51 -211h4q35 109 101 184t152 75q27 0 48 -12.5t21 -37.5q0 -21 -13.5 -32.5t-30.5 -11.5q-27 0 -41 17.5t-14 42.5 q-75 -15 -137 -102q46 -180 108 -275l88 64l14 -17q-81 -97 -126 -97q-42 0 -78 81.5t-52 161.5q-41 -92 -61 -198l-7 -34h-75l75 393l-89 -63l-15 18q89 103 131 103z"/>
<glyph glyph-name="afii10110" horiz-adv-x="428" unicode="ў" d="M423 644l17 -17q-53 -60 -107 -86t-94 -26t-63 19.5t-23 48.5q0 28 18 47t41 19q22 0 33 -16t11 -38q0 -19 -8 -37q83 0 175 86zM362 456q20 0 35.5 -15t15.5 -46q0 -72 -47 -177t-116.5 -201t-160 -164t-168.5 -68q-30 0 -56.5 16t-26.5 44q0 22 15 35t34 13 q24 0 41.5 -23t17.5 -52q76 7 193 119q-8 111 -26 252t-31 203q-1 -1 -19.5 -21.5t-36.5 -40t-19 -20.5q-14 14 -19 14q68 125 120 125q37 0 47 -37q10 -36 25.5 -166.5t23.5 -235.5q67 80 110.5 170.5t59.5 161.5q-26 4 -41.5 23.5t-15.5 45.5q0 15 10.5 30t34.5 15z"/>
<glyph glyph-name="afii10193" horiz-adv-x="514" unicode="џ" d="M451 440l7 -6l-73 -384l86 53l13 -17q-40 -43 -76 -69t-55 -26q-43 0 -43 44q0 33 36 173h-4q-48 -123 -100.5 -172t-96.5 -49q-75 0 -75 75q0 20 7 58l56 272l-89 -62l-16 17q90 104 136 104q44 0 44 -41q0 -20 -7 -52l-42 -195q-11 -55 -11 -71q0 -47 38 -47 q43 0 103.5 112.5t83.5 224.5l11 53q24 1 67 5zM150 -182q44 9 56.5 24.5t12.5 60.5q0 69 53 113l4 -4q3 -3 8 -6l4 -4q-20 -25 -20 -46q0 -12 11 -39t11 -49q0 -71 -139 -72l-1 11v11z"/>
<glyph glyph-name="afii10050" horiz-adv-x="526" unicode="Ґ" d="M271 642l-98 -554q-1 -5 -1 -13q0 -19 12.5 -28.5t27.5 -10.5t26.5 -6.5t9.5 -17.5l-2 -12h-247l2 12q2 12 14.5 18t27 7.5t29 14.5t18.5 38l87 484q2 14 2 18q0 21 -11.5 32t-24.5 12.5t-23.5 6.5t-8.5 15l2 16h323q53 0 78.5 22t70.5 99q12 20 24 20h4l9 -1l-50 -174 l-7 -5q-119 7 -212 7h-82z"/>
<glyph glyph-name="afii10098" horiz-adv-x="338" unicode="ґ" d="M263 413q-37 0 -37 -62q0 -9 1 -27t1 -25q0 -172 -40.5 -241t-119.5 -69q-30 0 -50.5 14t-20.5 42q0 20 10.5 31.5t25.5 11.5q25 0 38 -21.5t13 -54.5q20 3 31.5 19.5t20 71.5t8.5 155q0 42 5 74t16.5 51t22.5 31.5t30 18.5t31.5 8t34.5 3.5t32 3.5q15 2 23 6t18 21 t19 50l23 -3q-8 -72 -22.5 -96t-48.5 -24q-13 0 -36.5 5.5t-28.5 5.5z"/>
<glyph glyph-name="schwacyrillic" horiz-adv-x="421" unicode="ә" d="M299 221q-78 -9 -138 -49.5t-60 -93.5q0 -27 13.5 -41t34.5 -14q47 0 91.5 55t58.5 143zM240 449q69 0 107.5 -41t38.5 -115q0 -53 -15.5 -105t-45 -97.5t-80 -73.5t-114.5 -28q-51 0 -81 24.5t-30 68.5q0 63 80.5 107.5t202.5 65.5q2 11 2 32q0 54 -26.5 83t-73.5 29 q-66 0 -144 -69l-5 5t-6 5.5t-5 5.5q35 41 85.5 72t109.5 31z"/>
<glyph glyph-name="endash" horiz-adv-x="467" unicode="–" d="M437 225h-409l9 52h409z"/>
<glyph glyph-name="emdash" horiz-adv-x="740" unicode="—" d="M711 225h-683l10 53h683z"/>
<glyph glyph-name="quoteleft" horiz-adv-x="201" unicode="‘" d="M132 488q-40 0 -40 44q0 41 38.5 95t94.5 84l11 -19q-63 -56 -74 -106q27 -8 27 -38q0 -23 -18 -41.5t-39 -18.5z"/>
<glyph glyph-name="quotesinglbase" horiz-adv-x="209" unicode="‚" d="M91 98q18 0 29 -12t11 -33q0 -40 -39 -93.5t-94 -84.5l-10 19q62 59 74 106q-27 8 -27 38q0 24 17 42t39 18z"/>
<glyph glyph-name="quotedblleft" horiz-adv-x="315" unicode="“" d="M246 488q-39 0 -39 44q0 41 38.5 95t93.5 84l12 -19q-23 -20 -46 -50t-29 -56q27 -8 27 -38q0 -23 -17.5 -41.5t-39.5 -18.5zM132 488q-40 0 -40 44q0 41 38.5 95t94.5 84l11 -19q-63 -56 -74 -106q27 -8 27 -38q0 -23 -18 -41.5t-39 -18.5z"/>
<glyph glyph-name="quotedblright" horiz-adv-x="324" unicode="”" d="M313 700q18 0 28.5 -12t10.5 -32q0 -41 -38.5 -94.5t-95.5 -84.5l-10 20q23 19 46 49.5t30 55.5q-29 8 -29 38q0 24 18 42t40 18zM198 700q18 0 29 -12t11 -32q0 -41 -38.5 -94.5t-95.5 -84.5l-10 20q22 19 44.5 49.5t29.5 55.5q-27 8 -27 38q0 24 17.5 42t39.5 18z"/>
<glyph glyph-name="dagger" horiz-adv-x="472" unicode="†" d="M327 742q38 0 38 -42q0 -20 -10.5 -47t-31 -67t-28.5 -59q110 44 140 44q19 0 31.5 -10.5t12.5 -31.5q0 -32 -19.5 -47t-41.5 -15q-10 0 -22 2.5t-28.5 9t-24 9.5t-29 13.5t-22.5 11.5q-4 -36 -4 -82q0 -71 8 -124q-73 -224 -117 -454h-21q45 250 45 454q34 78 74 206 q-104 -46 -143 -46q-42 0 -42 38q0 32 19 49t44 17q9 0 24.5 -4.5t28 -9.5t36.5 -15l36 -15q-14 94 -14 133q0 34 15.5 58t45.5 24z"/>
<glyph glyph-name="daggerdbl" horiz-adv-x="472" unicode="‡" d="M327 742q38 0 38 -41q0 -13 -4 -28.5t-13.5 -37t-16 -35t-19.5 -39.5t-17 -33q110 44 140 44q19 0 31.5 -10.5t12.5 -31.5q0 -32 -19 -47.5t-42 -15.5q-30 0 -126 47q-4 -37 -4 -83q0 -57 8 -123q-54 -114 -76 -206q112 46 142 46q42 0 42 -38q0 -31 -19 -48.5t-43 -17.5 q-29 0 -124 44q0 -3 4 -32t7 -58t3 -48q0 -29 -14.5 -52.5t-44.5 -23.5q-39 0 -39 42q0 32 69 172q-13 -4 -41 -14.5t-42.5 -15.5t-31.5 -9.5t-26 -4.5q-20 0 -32.5 10.5t-12.5 30.5q0 32 19.5 47.5t42.5 15.5q37 0 126 -46q0 6 1.5 48t1.5 63q0 42 -5 95q35 76 75 206 q-110 -47 -143 -47q-43 0 -43 38q0 32 19 49t44 17q7 0 17.5 -2.5t24 -7.5t24.5 -9t30 -12t29 -12q-14 92 -14 132q0 34 15.5 58t45.5 24z"/>
<glyph glyph-name="ellipsis" horiz-adv-x="572" unicode="…" d="M453 103q19 0 30.5 -12t11.5 -31q0 -27 -18 -47t-43 -20q-19 0 -30.5 12.5t-11.5 31.5q0 26 19.5 46t41.5 20zM260 103q19 0 30.5 -12t11.5 -31q0 -27 -18.5 -47t-43.5 -20q-19 0 -30.5 12.5t-11.5 31.5q0 27 19 46.5t43 19.5zM74 103q18 0 29.5 -12.5t11.5 -31.5 q0 -27 -18.5 -46.5t-42.5 -19.5q-19 0 -30.5 12.5t-11.5 31.5q0 27 19 46.5t43 19.5z"/>
<glyph glyph-name="perthousand" horiz-adv-x="1103" unicode="‰" d="M917 356q-48 0 -78.5 -79.5t-30.5 -171.5q0 -83 51 -83q49 0 80 81.5t31 170.5q0 82 -53 82zM923 383q58 0 84.5 -36t26.5 -95q0 -56 -17.5 -112.5t-60.5 -100.5t-101 -44q-111 0 -111 131q0 58 17.5 114.5t60 99.5t101.5 43zM591 356q-48 0 -78.5 -79.5t-30.5 -171.5 q0 -83 51 -83q49 0 80 81.5t31 170.5q0 82 -53 82zM597 383q58 0 84.5 -36t26.5 -95q0 -56 -17.5 -112.5t-60.5 -100.5t-101 -44q-111 0 -111 131q0 58 17.5 114.5t60 99.5t101.5 43zM261 656q-48 0 -79 -80t-31 -171q0 -83 52 -83q49 0 79.5 81.5t30.5 170.5q0 82 -52 82z M267 683q110 0 110 -131q0 -41 -10.5 -84t-31 -82.5t-56.5 -65t-80 -25.5q-58 0 -85 36t-27 95q0 58 18 114.5t60.5 99.5t101.5 43zM649 720l-482 -759h-32l482 759h32z"/>
<glyph glyph-name="guilsinglleft" horiz-adv-x="287" unicode="‹" d="M257 410l14 -13l-141 -190l71 -190q-1 -1 -10.5 -8t-10.5 -7l-121 166q-17 23 -17 33q0 17 29 42z"/>
<glyph glyph-name="guilsinglright" horiz-adv-x="287" unicode="›" d="M76 397l19 13l125 -167q17 -23 17 -36q0 -3 -0.5 -5t-2.5 -5t-3.5 -5t-4.5 -5t-5.5 -5t-7 -6.5l-7.5 -7.5l-179 -166q-1 0 -8.5 7t-7.5 8q2 3 35 48.5t67.5 93t35.5 48.5z"/>
<glyph glyph-name="Euro" d="M36 359l5 29h40q35 126 120.5 203t188.5 77q59 0 101.5 -23.5t42.5 -66.5q0 -28 -14.5 -42.5t-31.5 -14.5q-23 0 -34 14.5t-11 35.5q0 32 20 54q-29 14 -67 14q-80 0 -141.5 -73t-82.5 -178h272l-5 -29h-403zM22 279l5 28h402l-5 -28h-274q-4 -28 -4 -65q0 -196 143 -196 q43 0 72 10q-7 14 -7 34q0 28 15 50t42 23q17 0 28.5 -11.5t11.5 -30.5q0 -50 -47 -76.5t-119 -26.5q-109 0 -167.5 66t-58.5 177q0 14 2 46h-39z" unicode="€"/>
<glyph glyph-name="trademark" horiz-adv-x="809" unicode="™" d="M88 677l8 2q67 -5 140 -5q62 0 135 5l8 -4l10 -92q-2 0 -4 -0.5t-3 -0.5q-11 0 -15 9q-18 43 -32 53t-55 10h-21v-262q0 -12 22.5 -19.5t22.5 -17.5v-8h-139v10q0 9 21 15.5t21 22.5v259h-21q-41 0 -55 -9.5t-32 -52.5q-5 -10 -13 -10q-2 0 -4 0.5t-4 0.5zM726 615h-4 q-80 -200 -108 -272h-23l-120 278h-4l-11 -227q0 -19 23.5 -24t23.5 -16v-7h-114v7q0 7 6.5 10.5t14.5 4.5t15 7.5t8 18.5l12 221q0 14 -6.5 22t-15 10t-15 6t-6.5 11v11q76 0 102 1q38 -90 64 -152.5t35 -85t14 -33.5q15 37 50 127t55 139l4 2q60 0 93 1v-11 q0 -8 -21.5 -17t-21.5 -29t11 -224q1 -20 23 -24.5t22 -16.5v-6h-134v6q0 11 20 19t20 20z"/>
</font>
</defs>
</svg>
